<svg width="382" height="172" viewBox="0 0 382 172" fill="none" xmlns="http://www.w3.org/2000/svg">
<g clip-path="url(#clip0_261_2456)">
<path d="M0.890526 30.376L12.0755 2.06542L11.8618 1.60248L11.3987 1.81615L0.249347 30.3048V30.7321L0.890526 30.376ZM11.5768 2.3147L42.2109 14.2443H42.7452L42.5315 13.7814L11.8618 1.67371L11.3987 1.85176L11.5768 2.3147ZM298.576 147.998L302.316 138.455L302.138 137.992L301.675 138.205L298.112 147.749V148.176L298.576 147.998ZM305.985 129.16L309.903 119.617L309.689 119.154L309.226 119.367L305.664 128.911L305.878 129.338L305.985 129.16ZM304.026 132.294L302.886 134.858V135.321H303.349L304.489 132.721V132.294H304.026ZM302.957 134.858L301.603 138.419L301.817 138.882L302.245 138.704L303.598 135.143V134.716L302.957 134.858ZM0.534316 31.1594L0.712421 31.3731H1.17549V30.8745V30.6609H0.6768L0.534316 31.1594ZM0 30.3048L0.463073 31.1238H0.926147V30.6253L0.641179 29.9487L0 29.8062V30.3048ZM31.0259 42.7329L267.514 136.069L267.977 135.891L267.763 135.321L31.2753 42.0207L30.8478 42.2344L31.0259 42.7329ZM0.213726 30.4472L31.0259 42.7329L31.489 42.5549L31.3109 42.0919L0.463073 29.8062L0 29.9843L0.213726 30.4472ZM267.372 136.069L298.219 148.248L298.682 148.034L298.469 147.607L267.763 135.321L267.336 135.535L267.372 136.069ZM297.578 148.533L298.469 148.176L298.682 147.749L298.219 147.535L297.329 147.892L297.151 148.354L297.578 148.533ZM27.7132 50.959L24.9347 49.8551H24.4717V50.318L27.2857 51.4932L27.7488 51.2795L27.7132 50.959ZM0.712421 31.3731L3.02779 34.4356L5.5925 37.3201L8.33532 40.0265L11.2562 42.5549L14.3553 44.9052L17.6324 46.9706H17.8105L21.3726 48.858L24.9347 50.4961H25.3978L24.9347 49.8551L21.3726 48.2526L18.1311 46.294L14.854 44.2642L11.7906 41.9495L8.86964 39.4567L6.12682 36.7859L3.5621 34.0083L1.24674 30.9458H0.748042L0.712421 31.3731ZM264.308 144.437L27.6775 50.9234H27.2145L27.3926 51.3863L264.023 145.078L264.451 144.9L264.308 144.437ZM267.051 145.506L264.237 144.366L263.596 144.58L263.809 145.043L266.623 146.147L267.158 146.004L267.051 145.506ZM297.364 147.927L293.517 148.497L289.706 148.853H285.894H282.047L278.2 148.426L274.282 147.642L270.72 146.716L267.158 145.47L266.73 145.719L266.944 146.147L270.506 147.357L274.282 148.283L278.093 148.995L281.941 149.387H285.788H289.706L293.517 149.031L297.4 148.461L297.685 148.034L297.364 147.927ZM297.578 148.568H297.792V148.105H297.293H297.079V148.568H297.578ZM11.6837 1.92298L15.2458 1.28199L18.8079 0.890269H22.37H25.9321L29.4942 1.17516L33.0563 1.78054L36.6184 2.52836L40.1805 3.48986L43.7426 4.77184L44.2057 4.59379L43.992 4.13085L40.4299 2.84886L36.8678 1.85176L33.3057 1.10393L29.7436 0.534162L26.2883 0H22.7262L19.1641 0.178054L15.602 0.605383L12.0399 1.24638L11.2919 1.6381L11.6837 1.92298ZM310.117 119.154L307.873 116.234L305.486 113.42L302.779 110.785L300 108.328L297.079 106.049L294.123 103.948L290.953 102.06L287.676 100.351L284.113 98.8911L283.65 99.0692V99.5321L287.212 100.992L290.454 102.666L293.624 104.518L296.581 106.619L299.466 108.898L302.209 111.355L304.774 113.954L307.16 116.732L309.369 119.652H309.867L310.117 119.154ZM42.7452 13.4253L11.6837 1.21077H11.2206L11.4344 1.67371L42.3178 14.2443L42.7452 13.8882V13.4253ZM42.3178 14.2443L278.806 107.473L279.269 107.295L279.055 106.832L42.7452 13.4253H42.3178V14.2443ZM11.8262 1.9942V1.6381L11.7193 1.17516L11.2919 1.42443V1.74493L11.3987 2.20787L11.8262 1.9942ZM284.256 98.8199L282.475 98.1077L282.012 98.3213L282.226 98.7843L284.007 99.4609L284.47 99.2828L284.256 98.8199ZM282.51 98.1789L45.9868 4.66501L45.5237 4.84306L45.7374 5.306L282.261 98.8199L282.724 98.6418L282.51 98.1789ZM46.0224 4.70062L44.2057 3.98841L43.7783 4.20207L43.9564 4.66501L45.773 5.34161L46.3074 5.16356L46.0224 4.70062ZM42.4603 13.7101L11.5768 1.49565H11.1138L11.3275 2.13665L42.2109 14.2443H42.7452L42.4603 13.7101ZM278.948 107.188L42.4247 13.6389L41.9616 13.8526L42.1397 14.3155L278.699 107.829L279.162 107.616L278.948 107.188ZM309.903 119.047L279.02 106.832H278.557L278.77 107.295L309.689 119.545H310.152L309.903 119.047ZM309.903 119.332L278.984 107.117L278.557 107.331V107.758L309.44 120.008L309.903 119.795V119.332ZM309.654 119.332L309.44 119.617V120.115H309.903L310.152 119.795V119.332H309.654ZM301.354 140.342H301.603H302.066V139.879H301.817H301.354V140.342ZM306.341 127.38H306.59L307.018 127.095L306.733 126.703H306.519L306.092 126.952L306.341 127.38ZM303.313 134.502L300.25 142.443L300.463 142.906L300.927 142.692L304.026 135L303.812 134.537L303.313 134.502ZM303.313 143.048L300.677 141.98H300.214L300.428 142.443L303.064 143.511L303.527 143.298L303.313 143.048ZM304.311 131.938L303.278 134.502V134.965L303.741 134.787L304.809 132.187L304.596 131.76L304.311 131.938ZM307.374 124.21L304.275 131.938V132.401L304.738 132.187L308.051 124.638V124.175L307.374 124.21ZM307.374 124.673L309.939 125.742L310.402 125.528V125.065L307.837 124.032H307.374V124.673ZM311.257 127.202V126.667V126.133L310.972 125.742L310.509 125.457H310.01V125.955L310.402 126.205L310.615 126.489V126.881V127.38L310.936 127.771L311.257 127.202ZM308.015 133.469L306.947 136.033L307.16 136.496L307.623 136.282L308.656 133.718V133.255L308.015 133.469ZM310.58 127.024L307.944 133.469V133.896H308.407L311.043 127.451L310.865 127.024H310.58ZM307.018 136.033L304.453 142.479V142.906H304.916L307.481 136.46L307.303 136.033H307.018ZM303.135 143.868H303.669H304.204L304.667 143.583L304.952 143.084V142.621H304.489L304.239 143.013L303.883 143.227H303.491H303.064L302.636 143.511L303.135 143.868ZM361.66 156.687L361.304 156.331L360.948 156.687L361.304 157.043L361.66 156.687ZM362.302 155.263L361.91 155.049H361.411V155.512L361.839 155.762H362.302V155.263ZM361.589 156.901L362.408 155.726V155.227H361.91L361.09 156.367V156.865L361.589 156.901ZM361.91 155.085L308.478 133.896L308.015 134.11L308.229 134.573L361.66 155.726H362.124L361.91 155.085ZM361.91 156.402L362.266 155.477L362.052 155.014L361.589 155.227L361.269 156.153L361.447 156.616L361.91 156.402ZM361.91 156.794V156.296L361.66 155.904L361.233 156.153V156.616L361.482 157.043L361.91 156.794ZM361.696 156.367L307.908 135.321L307.445 135.499L307.659 135.962L361.09 157.115L361.518 156.937L361.696 156.367ZM361.162 156.901L373.629 166.445H374.128V165.946L361.696 156.438H361.197L361.162 156.901ZM381.608 170.433L380.718 171.501V172H381.145L382.036 170.932V170.433H381.608ZM381.608 170.433L380.682 171.537V172.036H381.145L382.107 170.896V170.433H381.608ZM374.484 164.878L373.593 165.982V166.48H374.057L374.947 165.376V164.878H374.484ZM374.128 165.911L361.803 156.402H361.304V156.865L373.629 166.409H374.128V165.911ZM373.7 166.48L374.805 167.406L375.909 168.225L376.942 169.009L377.939 169.792L378.759 170.433L379.507 170.967L380.076 171.43L380.468 171.751H380.718H381.145V171.252H380.86L380.468 170.932L379.898 170.469L379.15 169.935L378.331 169.294L377.334 168.546L376.301 167.727L375.196 166.908L374.092 165.982H373.593L373.7 166.48ZM381.145 171.466L380.468 170.932L379.934 170.504L379.685 170.326H379.4V170.647L379.685 170.86L380.219 171.288L380.896 171.858H381.145V171.359L380.433 170.789L379.898 170.398L379.613 170.148H379.222V170.54L379.542 170.754L380.076 171.145L380.789 171.68H381.252L381.145 171.466ZM381.145 171.466L380.86 171.252L380.433 170.896L379.863 170.504L379.15 169.935L378.26 169.294L377.334 168.546L376.265 167.727L375.161 166.908L373.985 166.017H373.487V166.516L374.662 167.406L375.766 168.225L376.835 169.044L377.761 169.792L378.652 170.433L379.328 171.003L379.898 171.395L380.29 171.751L380.575 171.964H381.145V171.466ZM374.733 164.771L362.408 155.263H361.91V155.762L374.235 165.305H374.733V164.771ZM381.858 170.291L381.644 170.113L381.252 169.828L380.646 169.365L379.898 168.795L379.079 168.118L378.082 167.406L377.013 166.623L375.873 165.733L374.698 164.842H374.235V165.341L375.41 166.231L376.514 167.086L377.583 167.905L378.58 168.617L379.4 169.258L380.148 169.828L380.753 170.291L381.145 170.54L381.359 170.754H381.858V170.291ZM381.858 170.682L381.501 170.362L381.181 170.682L381.501 171.039L381.858 170.682Z" fill="#1D1D1B"/>
<path d="M380.041 171.608L380.219 171.751L380.254 171.786L380.468 171.893L380.504 171.964V172H380.575H380.824H381.038V171.964H381.074V171.929V171.893L381.288 171.608H380.041Z" fill="#1D1D1B"/>
<circle cx="91" cy="50" r="8.5" fill="white" stroke="black"/>
</g>
<defs>
<clipPath id="clip0_261_2456">
<rect width="382" height="172" fill="white"/>
</clipPath>
</defs>
</svg>
