<svg width="415" height="368" viewBox="0 0 415 368" fill="none" xmlns="http://www.w3.org/2000/svg">
<path d="M23.3992 94.5234L10.5822 120.707L10.0758 120.872L9.88913 120.423L22.8661 94.1456L23.1859 93.8623L23.3992 94.5234ZM10.3955 120.211L42.2477 132.61L42.6475 132.964L42.1411 133.129L10.1291 120.825L9.91578 120.4L10.3955 120.211ZM334.191 213.883L329.847 222.69L329.368 222.878L329.181 222.43L333.658 213.741L333.977 213.458L334.191 213.883ZM325.637 231.284L321.427 240.208L320.921 240.373L320.734 239.925L325.211 231.236L325.69 231.095L325.637 231.284ZM326.516 227.907L327.582 225.452L327.929 225.145L328.275 225.452L327.183 227.931L326.863 228.214L326.516 227.907ZM327.635 225.499L329.288 222.241L329.794 222.076L329.981 222.477L328.329 225.735L328.009 226.019L327.635 225.499ZM23.7189 93.7679L24.0121 93.7443L24.3586 94.0513L23.9855 94.3818L23.8256 94.5234L23.4524 94.1928L23.7189 93.7679ZM22.6795 93.9803L23.639 93.7442L23.9855 94.0512L23.6124 94.3817L22.8928 94.6414L22.3064 94.3108L22.6795 93.9803ZM55.198 106.308L302.019 201.201L302.232 201.626L301.646 201.862L54.8515 106.946L54.6916 106.521L55.198 106.308ZM22.946 94.0275L55.198 106.308L55.4112 106.733L54.9315 106.922L22.6529 94.6178L22.4396 94.1927L22.946 94.0275ZM301.912 201.106L334.111 213.482L334.297 213.93L333.818 214.072L301.646 201.862L301.486 201.437L301.912 201.106ZM333.844 212.868L334.244 213.694L334.084 214.119L333.578 213.954L333.178 213.127L333.391 212.702L333.844 212.868ZM58.8752 98.6587L55.9698 97.5487L55.6233 97.2417L55.9698 96.9348L58.9551 98.0212L59.1417 98.4698L58.8752 98.6587ZM24.0121 93.7443L28.0367 93.2488L32.1146 93.0367L36.1926 93.0607L40.2706 93.3208L44.3486 93.8171L48.3466 94.6202L48.4799 94.7383L52.558 95.8484L56.4495 97.1237L56.7961 97.4307L55.9698 97.5487L52.105 96.2497L48.2135 95.3994L44.242 94.5726L40.2173 94.0764L36.166 93.7927L32.1147 93.745L28.1167 93.8863L24.0921 94.3818L23.719 94.0512L24.0121 93.7443ZM305.883 193.528L58.8219 98.6587L58.4753 98.3517L58.9551 98.1629L306.149 192.914L306.336 193.315L305.883 193.528ZM308.735 194.638L305.776 193.528L305.456 192.961L305.962 192.796L308.894 193.929L309.188 194.378L308.735 194.638ZM333.231 213.127L330.779 210.199L328.193 207.437L325.341 204.91L322.462 202.36L319.263 200.093L315.745 198.015L312.386 196.267L308.788 194.732L308.655 194.283L309.134 194.142L312.706 195.701L316.224 197.59L319.61 199.644L322.782 201.935L325.661 204.485L328.593 207.083L331.178 209.845L333.658 212.797L333.551 213.269L333.231 213.127ZM333.871 212.844L334.031 212.986L333.684 213.293L333.311 212.962L333.151 212.82L333.498 212.514L333.871 212.844ZM10.1823 120.541L12.3682 123.328L14.7407 125.949L17.4063 128.31L20.0719 130.671L22.9507 132.844L26.0694 134.804L29.2947 136.67L32.6799 138.393L36.3049 139.905L36.5182 140.33L36.0118 140.495L32.3867 138.984L28.9749 137.283L25.7497 135.418L22.6576 133.434L19.6722 131.498L17.0066 129.136L14.4743 126.657L12.1284 124.012L9.94254 121.226L9.67591 120.471L10.1823 120.541ZM321.241 240.657L317.376 241.105L313.485 241.388L309.487 241.34L305.568 241.127L301.677 240.702L297.892 240.135L294.107 239.285L290.376 238.245L286.617 236.852L286.404 236.427L286.751 236.12L290.509 237.513L294.187 238.553L297.945 239.427L301.73 239.994L305.595 240.395L309.486 240.585L313.351 240.561L317.216 240.302L321.054 239.83L321.427 240.161L321.241 240.657ZM42.0346 133.507L9.64933 121.014L9.3028 120.707L9.80919 120.541L42.3276 132.681L42.381 133.2L42.0346 133.507ZM42.3276 132.681L289.068 227.644L289.282 228.069L288.775 228.234L42.0346 133.507L41.7147 133.224L42.3276 132.681ZM10.3423 120.589L10.0758 120.825L9.64933 121.061L9.51601 120.612L9.75587 120.4L10.1823 120.164L10.3423 120.589ZM286.671 236.994L284.805 236.285L284.618 235.837L285.125 235.671L286.964 236.403L287.177 236.828L286.671 236.994ZM284.885 236.262L37.9043 141.463L37.691 141.038L38.1974 140.873L285.178 235.671L285.391 236.096L284.885 236.262ZM37.9576 141.463L36.0651 140.731L35.9051 140.306L36.3849 140.117L38.2507 140.873L38.5173 141.345L37.9576 141.463ZM42.0345 133.129L9.78256 120.754L9.43603 120.447L10.0757 120.164L42.2477 132.61L42.6475 132.964L42.0345 133.129ZM288.962 227.927L41.9546 133.153L41.7679 132.704L42.2477 132.515L289.255 227.337L289.442 227.786L288.962 227.927ZM321.001 240.586L288.749 228.211L288.402 227.904L288.909 227.738L321.214 240.114L321.56 240.421L321.001 240.586ZM321.214 240.397L288.935 227.998L288.775 227.573L289.095 227.29L321.374 239.641L321.56 240.09L321.214 240.397ZM321.027 240.232L321.081 239.901L321.454 239.571L321.8 239.878L321.747 240.255L321.4 240.562L321.027 240.232ZM330.54 220.801L330.727 220.966L331.073 221.273L330.727 221.58L330.54 221.415L330.194 221.108L330.54 220.801ZM324.571 232.7L324.758 232.865L324.864 233.338L324.358 233.408L324.198 233.267L324.065 232.818L324.571 232.7ZM327.636 225.971L331.286 218.676L331.793 218.511L331.979 218.959L328.542 226.113L328.035 226.278L327.636 225.971ZM334.032 220.305L331.26 219.266L330.913 218.959L331.419 218.794L334.191 219.833L334.378 220.282L334.032 220.305ZM326.463 228.332L327.609 225.948L327.955 225.641L328.169 226.066L327.023 228.498L326.543 228.639L326.463 228.332ZM322.972 235.486L326.436 228.309L326.783 228.002L326.969 228.45L323.799 235.651L323.452 235.958L322.972 235.486ZM323.319 235.179L326.038 236.171L326.224 236.62L325.878 236.927L323.186 235.911L322.839 235.604L323.319 235.179ZM328.117 236.077L327.717 236.431L327.317 236.785L326.811 236.856L326.251 236.738L325.878 236.407L326.251 236.077L326.731 236.171L327.104 236.124L327.397 235.864L327.77 235.534L328.303 235.487L328.117 236.077ZM330.381 229.773L331.5 227.365L332.007 227.199L332.193 227.648L331.048 230.033L330.701 230.34L330.381 229.773ZM327.477 235.746L330.328 229.726L330.648 229.442L330.994 229.749L328.143 235.77L327.69 235.935L327.477 235.746ZM331.554 227.412L334.458 221.439L334.778 221.155L335.125 221.462L332.22 227.436L331.767 227.601L331.554 227.412ZM334.511 219.644L334.911 219.998L335.311 220.353L335.444 220.848L335.284 221.368L334.938 221.675L334.591 221.368L334.698 220.943L334.591 220.565L334.298 220.305L333.978 220.022L333.872 219.55L334.511 219.644ZM387.901 249.942L387.368 249.942L387.368 249.47L387.901 249.47L387.901 249.942ZM387.315 251.312L386.862 251.193L386.489 250.863L386.835 250.556L387.342 250.674L387.688 250.981L387.315 251.312ZM388.008 249.753L387.742 251.075L387.369 251.406L386.995 251.075L387.235 249.777L387.608 249.446L388.008 249.753ZM386.889 251.17L331.048 229.797L330.861 229.348L331.367 229.183L387.182 250.58L387.528 250.887L386.889 251.17ZM387.875 250.296L387.448 251.146L386.942 251.312L386.755 250.863L387.208 250.037L387.688 249.848L387.875 250.296ZM388.168 250.037L387.795 250.367L387.315 250.462L387.182 250.013L387.528 249.706L388.035 249.588L388.168 250.037ZM387.688 250.178L331.687 228.474L331.474 228.049L331.98 227.884L387.795 249.281L387.981 249.682L387.688 250.178ZM387.688 249.47L404.16 251.408L404.533 251.738L404.16 252.069L387.742 250.131L387.368 249.8L387.688 249.47ZM413.116 254.053L413.249 252.754L413.622 252.424L413.942 252.707L413.809 254.006L413.436 254.336L413.116 254.053ZM413.116 254.053L413.249 252.707L413.622 252.377L413.969 252.684L413.836 254.077L413.489 254.383L413.116 254.053ZM403.627 253.013L403.787 251.691L404.16 251.36L404.507 251.667L404.347 252.99L403.974 253.32L403.627 253.013ZM404.134 252.092L387.795 250.225L387.422 249.895L387.768 249.588L404.133 251.431L404.507 251.762L404.134 252.092ZM404.24 251.431L405.759 251.549L407.199 251.738L408.558 251.904L409.891 252.046L410.983 252.164L411.943 252.306L412.716 252.376L413.249 252.424L413.436 252.589L413.755 252.872L413.382 253.203L413.169 253.014L412.636 252.967L411.863 252.896L410.904 252.754L409.811 252.636L408.505 252.471L407.119 252.329L405.679 252.14L404.16 252.021L403.787 251.691L404.24 251.431ZM413.542 253.061L412.636 252.967L411.916 252.896L411.597 252.849L411.383 252.66L411.623 252.447L411.996 252.494L412.716 252.565L413.649 252.636L413.835 252.802L413.462 253.132L412.503 253.038L411.81 252.943L411.41 252.919L411.117 252.66L411.41 252.4L411.81 252.471L412.503 252.565L413.436 252.683L413.782 252.99L413.542 253.061ZM413.542 253.061L413.169 253.014L412.583 252.967L411.863 252.849L410.904 252.754L409.757 252.589L408.505 252.471L407.092 252.305L405.653 252.116L404.107 251.927L403.734 251.596L404.107 251.266L405.653 251.455L407.092 251.644L408.505 251.809L409.757 251.928L410.904 252.093L411.836 252.164L412.556 252.282L413.116 252.306L413.489 252.353L413.915 252.731L413.542 253.061ZM403.734 253.249L387.395 251.382L387.022 251.052L387.395 250.721L403.76 252.564L404.134 252.895L403.734 253.249ZM413.196 254.313L412.903 254.289L412.396 254.218L411.597 254.124L410.611 254.005L409.491 253.911L408.212 253.722L406.826 253.533L405.306 253.367L403.761 253.178L403.414 252.871L403.787 252.541L405.333 252.73L406.799 252.895L408.212 253.061L409.491 253.25L410.584 253.368L411.57 253.486L412.37 253.581L412.849 253.675L413.169 253.675L413.542 254.006L413.196 254.313ZM413.489 254.053L412.983 254.029L412.983 253.604L413.489 253.581L413.489 254.053Z" fill="#1D1D1B"/>
<path d="M403.821 252.235L404.061 252.258L404.114 252.258L404.354 252.329L404.434 252.306L404.46 252.282L404.514 252.329L404.7 252.495L404.86 252.637L404.834 252.66L404.86 252.684L404.834 252.707L404.807 252.731L404.754 253.062L403.821 252.235Z" fill="#1D1D1B"/>
</svg>
