<svg width="153" height="270" fill="none" xmlns="http://www.w3.org/2000/svg"><g clip-path="url(#clip0_287_332)"><path d="M76.678 168.204c.218-.005.435-.034.648-.086a2.09 2.09 0 00.754-.577l-.323-.285a1.593 1.593 0 01-.538.446 2.57 2.57 0 01-1.152.024.85.85 0 01-.49-.271l-.319.285c.189.211.442.354.72.406.226.043.456.062.686.058h.014z" fill="#414141"/><path d="M55.046 172.854a21.05 21.05 0 005.266-2.45c1.666-1.007 3.208-2.207 4.881-3.152a17.73 17.73 0 012.61-1.195 8.558 8.558 0 012.68-.609 5.281 5.281 0 012.571.639 8.397 8.397 0 012.215 1.674l.343-.261a6.6 6.6 0 00-2.164-2.103 5.392 5.392 0 00-2.986-.818 7.349 7.349 0 00-2.914.856 25.26 25.26 0 00-2.564 1.45c-1.666 1.031-3.15 2.292-4.765 3.361a19.226 19.226 0 01-5.173 2.608zm43.041 0a21.05 21.05 0 01-5.266-2.45c-1.666-1.007-3.209-2.207-4.882-3.152a17.726 17.726 0 00-2.609-1.195 8.558 8.558 0 00-2.68-.609 5.282 5.282 0 00-2.572.639 8.399 8.399 0 00-2.214 1.674l-.343-.261a6.6 6.6 0 012.163-2.103 5.392 5.392 0 012.986-.818 7.349 7.349 0 012.914.856c.882.433 1.738.917 2.564 1.45 1.666 1.031 3.15 2.292 4.765 3.361a19.226 19.226 0 005.174 2.608zm-36.857 4.567l1.828 1.66c1.2 1.113 2.482 2.178 3.993 2.728 1.532.539 3.14.828 4.762.856 1.526.055 7.98.055 9.506 0a15.129 15.129 0 004.762-.856c1.512-.55 2.794-1.615 3.994-2.728l1.827-1.66c.61-.577 1.371-.911 2.081-1.333-.686.443-1.447.804-2.026 1.391l-1.748 1.743c-1.149 1.171-2.4 2.323-3.97 2.986a15.38 15.38 0 01-1.156.498c-.39.155-.788.306-1.19.43a11.39 11.39 0 01-2.467.467c-.827.087-1.658.132-2.49.134h-4.74a24.343 24.343 0 01-2.49-.134 11.39 11.39 0 01-2.468-.467 15.055 15.055 0 01-1.19-.43c-.39-.158-.78-.313-1.154-.498-1.57-.663-2.822-1.815-3.97-2.986l-1.748-1.743c-.58-.587-1.337-.948-2.027-1.391.703.422 1.471.756 2.081 1.333zm-3.39-4.193c.165-.084.35-.123.535-.113.361.073.714.189 1.049.344.185.103.377.178.572.292.196.113.412.223.586.295a3.21 3.21 0 001.214.261c.422-.004.84-.078 1.238-.22l.603-.199.59-.237a12.759 12.759 0 012.44-.787 19.32 19.32 0 012.558-.344c.863-.051 1.73-.024 2.588.079a8.584 8.584 0 002.427-.072c.415-.055.84-.117 1.276-.154a35.058 35.058 0 012.101 0c.435.037.86.099 1.275.154a8.585 8.585 0 002.427.072c.859-.103 1.725-.13 2.589-.079.859.058 1.713.172 2.557.344.838.18 1.656.443 2.44.787l.573.234.604.199c.397.142.816.216 1.237.22a3.21 3.21 0 001.214-.261c.175-.072.394-.196.586-.296.192-.099.388-.189.573-.292.335-.155.687-.27 1.049-.344.185-.01.37.029.534.114.282.143.577.258.881.344-.27.344-.642.595-1.062.718a6.95 6.95 0 01-1.258.285c-.425.062-.84.117-1.272.141a5.688 5.688 0 01-1.303-.086 16.847 16.847 0 01-2.458-.729 12.922 12.922 0 00-2.437-.584c-.415-.034-.833-.041-1.248-.068a24.533 24.533 0 00-1.241-.059 15.78 15.78 0 00-2.475.186 9.614 9.614 0 01-2.647 0 13.538 13.538 0 00-1.981-.124h-.45a13.536 13.536 0 00-1.98.124 9.615 9.615 0 01-2.647 0 15.746 15.746 0 00-2.445-.176c-.414 0-.83.024-1.24.059-.412.034-.834.034-1.249.069-.829.115-1.645.31-2.437.584-.8.304-1.621.548-2.458.728-.43.079-.867.108-1.303.086a14.177 14.177 0 01-1.271-.141 6.953 6.953 0 01-1.259-.285 2.093 2.093 0 01-1.062-.718c.3-.088.59-.206.867-.351z" fill="#414141"/><path d="M68.91 173.153l1.103.168c.737.134 1.485.175 2.222.251.737.076 1.487.045 2.228.069h4.186c.74-.024 1.484-.017 2.228-.069.744-.052 1.485-.117 2.222-.251l1.103-.168 1.1-.203a59.45 59.45 0 01-2.166.577c-.72.203-1.46.316-2.197.464-.737.148-1.488.203-2.228.31a20.025 20.025 0 01-4.31 0c-.74-.107-1.487-.176-2.228-.31-.74-.134-1.478-.261-2.197-.464-.72-.202-1.447-.371-2.167-.577l1.1.203zm17.716-23.413a1.721 1.721 0 00-.507-1.344 2.382 2.382 0 00-1.275-.584 4.672 4.672 0 00-2.637.392 5.588 5.588 0 00-2.04 1.66 6.018 6.018 0 00-1.09 2.35c.605-.6 1.268-1.138 1.978-1.608a7.18 7.18 0 011.848-.862c.279-.074.563-.123.85-.145.136-.008.272-.008.408 0h.196l.192.021.37.069c0-.042 0-.076.048-.076a.45.45 0 01.144.062l1.515.065zm-8.049-4.309a3.934 3.934 0 01-3.13.471 4.006 4.006 0 01-.99-.45l-.1.134c.255.379.586.699.973.941.379.161.786.242 1.197.237.41.003.817-.078 1.196-.237.38-.247.71-.563.974-.931l-.12-.165zm-6.452-8.066c.055.784-.367 2.169-.651 2.873l.462.997c.2-.784.35-3.089.189-3.87zm12.341 49.637a24.849 24.849 0 00-.87-.688c-.295-.223-.62-.391-.93-.591h-.02c-.5-.24-.987-.512-1.515-.687a12.354 12.354 0 00-1.612-.54c-1.1-.282-2.23-.433-3.366-.45a14.307 14.307 0 00-3.377.344 11.43 11.43 0 00-1.625.502 15.19 15.19 0 00-1.529.666h-.024c-.315.193-.634.375-.942.571-.309.196-.6.436-.885.687.343-.106.686-.227 1.029-.344.343-.116.685-.213 1.045-.316h-.02c.528-.13 1.056-.268 1.584-.371a33.84 33.84 0 011.563-.278 21.645 21.645 0 013.157-.189c1.056.015 2.11.106 3.154.271.528.09 1.028.176 1.556.313s1.05.268 1.577.412h-.024c.343.114.686.234 1.029.344.343.11.692.227 1.045.344zM69.53 103.657c.339.408.634.85.88 1.32.255.467.48.948.687 1.436.352.839.66 1.696.922 2.567h-.6a25.887 25.887 0 00-.686-2.422 12.904 12.904 0 00-.569-1.454 7.28 7.28 0 00-.76-1.344l.126-.103zM.003 268.195c3.295-1.966 6.514-4.076 9.72-6.158a72.04 72.04 0 009.272-6.949 66.307 66.307 0 008.09-8.436 55.064 55.064 0 003.456-4.791 42.533 42.533 0 002.863-5.227 52.491 52.491 0 002.057-5.598l.418-1.433c.144-.474.285-.951.388-1.439.215-.97.466-1.945.647-2.908a74.829 74.829 0 001.283-11.804c0-1.976.054-3.955.04-5.924l-.219-5.894c-.267-3.924-.531-7.845-.87-11.753-.038 3.932 0 7.856.03 11.774l-.058 5.88-.253 5.842c-.515 7.759-1.903 15.512-5.02 22.508a40.72 40.72 0 01-2.704 5.031c-1.046 1.615-2.119 3.176-3.305 4.677a72.29 72.29 0 01-7.727 8.468c-1.371 1.323-2.825 2.563-4.302 3.78-1.478 1.216-2.996 2.35-4.556 3.481l-9.25 6.873zm62.9 1.759c-.082-.708-.233-1.374-.367-2.062-.308-.615-.538-1.261-.805-1.893l-1.515-3.828c-.515-1.279-2.218-5.994-2.815-7.217-.302-.618-.59-1.24-.919-1.845l-.935-1.835.84 1.879.798 1.897c.528 1.265 2.16 6 2.602 7.296l1.31 3.907c.212.653.47 1.292.661 1.956a20.4 20.4 0 001.145 1.745zm-51.82-159.627a4.382 4.382 0 00-1.217-1.374 3.66 3.66 0 00-1.776-.646 3.252 3.252 0 00-1.938.378 3.271 3.271 0 00-1.366 1.429 7.177 7.177 0 00-.61 3.781c.098 1.23.308 2.449.627 3.642.593 2.371 1.467 4.619 1.93 6.962.463 2.344.548 4.763.655 7.176.106 2.412.188 4.859.733 7.282l.21.903.253.877c.082.299.189.618.295.907l.315.852c.134.323.25.577.38.863.131.285.258.56.395.838.275.559.581 1.103.915 1.629a23.28 23.28 0 004.834 5.612 21.809 21.809 0 006.418 3.605l.253-.581a30.542 30.542 0 01-5.828-4.01 27.306 27.306 0 01-4.49-5.365 24.692 24.692 0 01-2.921-6.378 35.4 35.4 0 01-1.142-7.055c-.188-2.405-.322-4.811-.644-7.244-.323-2.433-.95-4.79-1.457-7.117a36.407 36.407 0 01-.607-3.488 10.273 10.273 0 01-.086-1.718c.021-.55.137-1.092.343-1.601.198-.486.532-.905.96-1.207a3.064 3.064 0 011.56-.46 3.714 3.714 0 012.992 1.533l.014-.025z" fill="#414141"/><path d="M16.877 139.352a10.549 10.549 0 00-.442-.272l-.419-.295-.435-.258-.411-.292a6.984 6.984 0 01-2.349-3.22l-.144-.484-.106-.492-.144-.491a8.946 8.946 0 00-.106-.512 8.45 8.45 0 00-.059.525v.533l.11.519.155.505c.232.668.564 1.297.983 1.866a7.174 7.174 0 001.475 1.505l.431.306c.151.09.299.186.453.272l.504.168c.161.045.332.083.504.117zm-.333 5.491l-.452-.508a6.212 6.212 0 01-1.964-2.567 6.567 6.567 0 01-.213-.619c-.062-.21-.199-.402-.302-.612a4.787 4.787 0 000 .688c.067.229.142.445.226.649a6.244 6.244 0 001.543 2.241c.165.158.343.306.518.446a3.8 3.8 0 00.644.282zm119.043-5.491c.172-.034.343-.072.514-.117l.504-.168c.151-.086.299-.182.453-.272l.415-.306a7.258 7.258 0 001.47-1.505c.42-.569.752-1.198.984-1.866l.154-.505.134-.519v-.533c0-.178-.034-.343-.058-.525a9.537 9.537 0 00-.106.512l-.141.491-.11.492-.144.484a6.744 6.744 0 01-.939 1.78 6.994 6.994 0 01-1.409 1.44l-.411.292-.432.258-.422.295c-.161.097-.308.176-.456.272zm7.532-21.158l.089 1.491a39.926 39.926 0 01.398 4.426c.03.986.024 1.976-.024 2.962-.024.495-.055.99-.096 1.482v1.494c.123-.484.219-.976.315-1.467.041-.498.072-.993.099-1.491.044-.997.051-1.994.021-2.99-.03-.997-.099-1.99-.209-2.98-.055-.498-.12-.989-.189-1.484a20.969 20.969 0 00-.404-1.443zm-7.199 26.649c.224-.064.442-.149.651-.254.178-.141.343-.289.521-.447.331-.312.628-.657.888-1.031a6.45 6.45 0 00.655-1.209 7.78 7.78 0 00.223-.65 4.922 4.922 0 000-.687c-.103.21-.189.416-.299.612-.109.196-.133.415-.216.618a6.215 6.215 0 01-1.467 2.141c-.16.14-.327.272-.5.395l-.456.512zm-120.373-26.43c0-.405-.052-.807-.096-1.209-.045-.402-.168-.791-.268-1.182a22.58 22.58 0 00-1.686-4.533c-.182-.344-.374-.715-.573-1.065-.199-.351-.463-.664-.716-.98.178.365.363.722.531 1.086.168.365.387.688.566 1.055a22.383 22.383 0 011.937 5.66c.078.392.188.777.305 1.168zm.607 7.894c.082 1.241.192 2.478.342 3.712.151 1.233.309 2.457.525 3.68a54.789 54.789 0 001.837 7.175c.744 2.365 1.519 4.732 2.225 7.124.706 2.392 1.197 4.863 1.817 7.254.62 2.392 1.23 4.811 1.92 7.172.347 1.187.71 2.367 1.09 3.54.374 1.179.792 2.33 1.19 3.522a59.438 59.438 0 002.608 6.873 34.843 34.843 0 003.713 6.23l.034.045.028.045a36.221 36.221 0 004.141 5.498c1.543 1.76 3.174 3.406 4.8 5.175a137.622 137.622 0 009.914 9.942c.428.395.88.77 1.326 1.155.446.385.871.752 1.337 1.116a20.092 20.092 0 002.79 2.021 39.485 39.485 0 006.309 2.952 47.98 47.98 0 006.743 1.918c.572.116 1.148.226 1.714.316.566.089 1.159.189 1.742.24.712.066 3.582.066 4.295 0a22.645 22.645 0 001.742-.24 43.47 43.47 0 001.714-.316 47.97 47.97 0 006.743-1.915 39.563 39.563 0 006.307-2.951 20.23 20.23 0 002.794-2.021c.463-.364.885-.729 1.334-1.117.45-.388.898-.759 1.327-1.155a137.383 137.383 0 009.917-9.941c1.608-1.77 3.243-3.416 4.783-5.176a35.957 35.957 0 004.141-5.498l.027-.045.035-.044a34.934 34.934 0 003.712-6.23 59.417 59.417 0 002.609-6.873c.398-1.193.819-2.344 1.193-3.523.374-1.178.741-2.354 1.087-3.539.685-2.375 1.316-4.77 1.923-7.172s1.107-4.835 1.817-7.255c.71-2.419 1.495-4.762 2.245-7.127a54.223 54.223 0 001.848-7.175c.216-1.223.391-2.447.525-3.68.133-1.234.257-2.471.343-3.712 0 1.244 0 2.488-.072 3.732a48.486 48.486 0 01-.343 3.725 54.553 54.553 0 01-1.481 7.351c-.655 2.405-1.337 4.787-1.944 7.189s-1.028 4.811-1.601 7.261a136.122 136.122 0 01-3.966 14.433 61.525 61.525 0 01-2.643 7.069 34.307 34.307 0 01-3.864 6.529 38.065 38.065 0 01-4.337 5.698c-.792.887-1.604 1.756-2.42 2.612l-1.234 1.271c-.415.416-.802.825-1.207 1.265a163.724 163.724 0 01-4.971 5.068 98.828 98.828 0 01-5.272 4.767c-.449.388-.909.752-1.371 1.124-.463.371-.933.762-1.406 1.11a20.738 20.738 0 01-2.996 2.003 37.006 37.006 0 01-6.589 2.749 47.88 47.88 0 01-6.915 1.581 39.699 39.699 0 01-11.364 0 47.874 47.874 0 01-6.914-1.581 37.06 37.06 0 01-6.586-2.749 20.64 20.64 0 01-3-2.003c-.473-.344-.953-.743-1.405-1.11-.453-.368-.919-.736-1.372-1.124a102.992 102.992 0 01-5.269-4.767 150.985 150.985 0 01-4.97-5.068c-.408-.44-.796-.849-1.21-1.265l-1.235-1.271a98.76 98.76 0 01-2.416-2.612 38.058 38.058 0 01-4.34-5.698 34.472 34.472 0 01-3.864-6.529 60.685 60.685 0 01-2.64-7.069 135.333 135.333 0 01-3.97-14.433c-.555-2.436-.987-4.887-1.6-7.261-.614-2.375-1.286-4.787-1.944-7.189a54.491 54.491 0 01-1.481-7.351 67.757 67.757 0 01-.343-3.725c-.082-1.244-.058-2.488-.051-3.732z" fill="#414141"/><path d="M152.899 268.195c-3.294-1.966-6.513-4.076-9.715-6.158a71.817 71.817 0 01-9.277-6.949 66.443 66.443 0 01-8.09-8.436 55.848 55.848 0 01-3.456-4.791 43.547 43.547 0 01-2.862-5.227 53.273 53.273 0 01-2.057-5.598l-.418-1.433c-.141-.474-.285-.951-.384-1.439-.216-.97-.467-1.945-.652-2.908a75.327 75.327 0 01-1.282-11.804c0-1.976-.055-3.955-.038-5.924l.22-5.894c.267-3.924.528-7.845.867-11.753.041 3.932 0 7.856-.031 11.774l.062 5.88.25 5.842c.515 7.759 1.903 15.512 5.019 22.508a41.813 41.813 0 002.705 5.031c1.049 1.615 2.119 3.176 3.305 4.677a72.245 72.245 0 007.727 8.468 77.631 77.631 0 004.306 3.78 94.1 94.1 0 004.545 3.481l9.256 6.873zM141.82 110.328a4.292 4.292 0 011.217-1.375 3.646 3.646 0 011.772-.646 3.489 3.489 0 011.92.368 3.467 3.467 0 011.391 1.443 7.142 7.142 0 01.611 3.78 20.593 20.593 0 01-.631 3.656c-.597 2.372-1.467 4.619-1.93 6.963-.463 2.343-.552 4.763-.658 7.175-.107 2.412-.185 4.859-.734 7.282l-.206.904-.257.876c-.079.299-.188.618-.295.907l-.312.852c-.137.323-.253.578-.38.863-.127.285-.261.56-.398.838-.274.56-.579 1.104-.915 1.629a23.247 23.247 0 01-4.83 5.612 21.87 21.87 0 01-6.418 3.605l-.257-.581a30.386 30.386 0 005.828-4.01 27.198 27.198 0 004.491-5.382 24.592 24.592 0 002.924-6.378 35.912 35.912 0 001.142-7.055c.185-2.405.322-4.811.644-7.244s.95-4.79 1.454-7.117c.253-1.165.469-2.323.61-3.488.073-.569.102-1.144.086-1.718a4.861 4.861 0 00-.343-1.601 2.754 2.754 0 00-.96-1.207 3.034 3.034 0 00-1.557-.46 3.718 3.718 0 00-2.996 1.533l-.013-.024zm-77.881 35.539c.301-.999.703-1.965 1.2-2.883a13.793 13.793 0 011.775-2.543l-.044.079c.034-.044.068-.093.106-.137-.487.9-.921 1.828-1.3 2.78a22.683 22.683 0 00-.932 2.89c-.126.483-.22.975-.28 1.471a7.036 7.036 0 000 1.471c.046.481.188.948.417 1.374.233.406.595.722 1.029.897v-.024c.11.065.28.148.442.227.25.11.531.216.686.288.154.073.28.11.428.155a.971.971 0 00.439.076.408.408 0 01-.171.041 4.082 4.082 0 01-.717 0 4.555 4.555 0 01-.466-.048 5.058 5.058 0 01-.933-.22 3.87 3.87 0 01-1.58-1.165 3.932 3.932 0 01-.5-1.557 7.353 7.353 0 01.4-3.172z" fill="#414141"/><path d="M75.025 151.981a8.055 8.055 0 00-1.443-2.134 6.905 6.905 0 00-2.057-1.571 3.409 3.409 0 00-2.602-.244 2.596 2.596 0 00-1.131.736 1.511 1.511 0 00-.391 1.354l.411-.103a1.046 1.046 0 01.858-.478c.264-.033.53-.033.795 0 .194.044.384.103.569.175.202.076.432.158.685.272.511.233 1.08.518 1.76.883.678.364 1.37.718 2.358 1.192l.188-.082zm12.9-.523a13.215 13.215 0 01-4.765 1.059 12.336 12.336 0 004.3-1.852c.62-.361 1.652-1.464 1.881-2.196a6.62 6.62 0 00.429-2.155v-.168.072-.072.158c.157.75.179 1.523.065 2.282a3.851 3.851 0 01-.405 1.189 3.757 3.757 0 01-1.505 1.683zm-15.752-25.237c.069-2.553.165-5.106.106-7.656-.082-2.722-.343-5.437-.562-8.152l.319-.024c.092.007.185.007.278 0 .116 2.722.28 5.447.26 8.179-.034 2.56-.23 5.107-.39 7.653 0 .175-.018.344-.025.519v-.244c0 .079 0 .162-.017.244.014-.172.024-.347.031-.519zm-11.645-11.852a18.142 18.142 0 00-2.863-2.684 19.74 19.74 0 00-3.329-2.062 17.441 17.441 0 00-3.688-1.313 19.296 19.296 0 00-3.891-.457 27.241 27.241 0 00-7.724 1.158 53.887 53.887 0 00-7.336 2.677l.02.048c2.465-.828 4.889-1.769 7.388-2.47a32.724 32.724 0 013.788-.853 23.264 23.264 0 013.864-.323c1.291.009 2.58.15 3.843.42 1.261.29 2.486.722 3.65 1.288a19.396 19.396 0 013.305 2.028c1.028.792 2 1.655 2.91 2.581l.063-.038zm-21.725 2.666a14.904 14.904 0 01-3.54-1.463 9.912 9.912 0 01-1.564-1.114 7.256 7.256 0 01-1.282-1.429l-.035.02a8.08 8.08 0 002.798 2.66 10.715 10.715 0 003.606 1.402l.017-.076zm2.427.217c-.116 0-.233-.021-.342-.024a2.852 2.852 0 01-.343-.038c-.233 0-.456-.058-.686-.082l-.02.079c.107.063.222.113.342.147.113.03.228.052.343.066.122.01.245.01.367 0 .118-.016.233-.047.343-.093l-.004-.055zm18.886-5.179a93.502 93.502 0 00-4.666-4.598c-.394-.378-.819-.725-1.237-1.079a16.25 16.25 0 00-1.279-1.031 14.214 14.214 0 00-2.91-1.553l-.113.302c1.015.369 1.984.857 2.886 1.454.446.308.875.64 1.286.993.421.344.85.687 1.254 1.031a92.963 92.963 0 014.765 4.485l.014-.004zm-11.001-8.567a17.286 17.286 0 00-7.12-.667 15.93 15.93 0 00-3.507.808c-1.135.4-2.211.949-3.202 1.632l.096.145a15.8 15.8 0 016.657-2.186c1.17-.121 2.35-.13 3.521-.027 1.17.1 2.33.302 3.466.604l.09-.309zm-14.755 2.478l-1.076.842.052.075 1.169-.707-.145-.21z" fill="#414141"/><path d="M57.154 113.3a4.825 4.825 0 01-.298.753c-.06.12-.13.235-.21.343a.863.863 0 01-.294.275.84.84 0 00.374-.199 2.14 2.14 0 00.308-.303c.19-.214.36-.444.511-.687l-.39-.182zm.586-.302a50.906 50.906 0 00-3.49-2.695l-.178.265a49.71 49.71 0 013.583 2.533l.085-.103zm-12.142 4.075l2.89-.302.562-.058v.257l-.538.059c-.964.106-1.93.175-2.897.237-.967.062-1.937.106-2.904.141v-.076c.957-.072 1.92-.148 2.887-.258zm-.926 4.595a16.726 16.726 0 01-3.932-.279 11.028 11.028 0 01-1.885-.536 6.135 6.135 0 01-1.673-.948l-.203.247c.545.405 1.15.719 1.793.931.633.212 1.282.368 1.94.468 1.311.199 2.64.24 3.96.124v-.007zm-9.667-2.773l-1.56-.976-.068.099 1.443 1.138.185-.261zm7.964-13.454a4.287 4.287 0 001.974 2.749l.151-.271a4.116 4.116 0 01-2.115-2.495l-.01.017zm-.402-.55a4.824 4.824 0 00-.017 1.629c.044.275.126.542.244.794a.89.89 0 00.613.546v-.038a2.111 2.111 0 01-.476-.587 3.037 3.037 0 01-.271-.739 4.063 4.063 0 01-.1-1.601l.007-.004zm-1.172 1.296a2.48 2.48 0 00.106 1.202c.07.196.172.378.302.54a.681.681 0 00.538.302v-.038a6.435 6.435 0 01-.425-.374 1.787 1.787 0 01-.308-.478 2.065 2.065 0 01-.22-1.151l.007-.003zm-6.051 1.512c.195.425.481.803.837 1.106.183.153.39.277.61.368a.8.8 0 00.706 0v-.038a3.242 3.242 0 01-.64-.113 2.209 2.209 0 01-.587-.306 2.75 2.75 0 01-.909-1.01l-.017-.007zm3.182-.533c.01.354.1.7.264 1.014.09.159.206.303.343.426a.592.592 0 00.51.172v-.042c-.15-.096-.27-.171-.404-.264a1.539 1.539 0 01-.343-.344 1.866 1.866 0 01-.367-.945l-.003-.017zm6.386-1.323a2.281 2.281 0 00-.175 1.031c.012.18.055.357.127.522a.565.565 0 00.39.368l.022-.031c-.096-.151-.175-.271-.258-.409a1.444 1.444 0 01-.154-.467 1.878 1.878 0 01.048-1.014zm1.073.254a1.807 1.807 0 00-.027.856c.037.144.096.282.175.409a.45.45 0 00.373.24l.018-.037a2.856 2.856 0 00-.25-.303 1.205 1.205 0 01-.193-.344c-.11-.256-.14-.54-.085-.814l-.01-.007zm4.543.382a1.737 1.737 0 00-.323.794 1.32 1.32 0 00.021.443.455.455 0 00.267.344l.031-.028a3.557 3.557 0 00-.133-.371 1.22 1.22 0 01-.059-.392 1.379 1.379 0 01.2-.794l-.004.004zm-18.509 1.481c-.002.33.062.657.189.962a3.316 3.316 0 001.22 1.55c.278.194.61.296.95.292v-.038a7.642 7.642 0 01-.864-.402 2.884 2.884 0 01-.727-.608 2.792 2.792 0 01-.768-1.743v-.013zm-2.324 1.381c.138.299.334.568.576.791a3.14 3.14 0 001.758.873c.333.058.676.01.98-.138v-.038a7.976 7.976 0 01-.952 0 2.856 2.856 0 01-.916-.244 2.784 2.784 0 01-1.43-1.251l-.016.007zm3.5-.385c.36.342.784.608 1.248.784.236.09.485.142.737.155a.824.824 0 00.703-.251l-.025-.035a2.23 2.23 0 01-1.37 0 3.17 3.17 0 01-1.283-.67l-.01.017zm-3.901 1.853c.394.301.843.522 1.323.649.244.063.496.089.747.076a.838.838 0 00.686-.323l-.028-.031a2.61 2.61 0 01-.661.185 2.325 2.325 0 01-.706-.034 3.152 3.152 0 01-1.344-.529l-.017.007zm7.494-3.427c.112.452.298.882.552 1.272.13.197.286.376.462.532a.726.726 0 00.686.207v-.042a2.004 2.004 0 01-.562-.299 2.432 2.432 0 01-.467-.474 3.364 3.364 0 01-.65-1.196h-.021zm1.364-1.752c.105.33.253.645.442.935.184.294.393.572.624.831.235.257.497.487.782.688a1.148 1.148 0 001.004.24v-.041a2.132 2.132 0 01-.901-.344 4.794 4.794 0 01-.782-.639 4.467 4.467 0 01-1.148-1.677l-.021.007z" fill="#414141"/><path d="M41.55 105.238c.092.574.261 1.132.503 1.66a3.8 3.8 0 001.029 1.447l.185-.262a3.642 3.642 0 01-1.053-1.261 6.57 6.57 0 01-.634-1.587l-.03.003zm-.23 14.097a2 2 0 01.16-1.076c.17-.325.384-.626.635-.894l-.086-.079a1.716 1.716 0 00-.377.423 2.76 2.76 0 00-.264.509 1.96 1.96 0 00-.079 1.12l.01-.003zm-.522-.255a2.54 2.54 0 01.302-1.031c.08-.16.182-.307.305-.436.124-.126.27-.228.429-.303v-.037a.612.612 0 00-.521.247 1.964 1.964 0 00-.302.485 2.85 2.85 0 00-.213 1.089v-.014zm-2.159-.807a1.378 1.378 0 01.483-1.076 2.2 2.2 0 01.343-.209v-.042a.6.6 0 00-.398.172 1.185 1.185 0 00-.26.344 1.376 1.376 0 00-.165.814l-.003-.003zm-5.382-1.997c.3-.28.677-.462 1.083-.522a1.83 1.83 0 01.6 0c.198.038.39.104.569.196l.024-.035a1 1 0 00-.576-.264 1.833 1.833 0 00-.63.031 2.01 2.01 0 00-1.077.587l.007.007zm-.881-1.453a2.05 2.05 0 011.203-.045c.195.048.38.129.548.24.167.114.317.251.446.406l.034-.021a.996.996 0 00-.421-.474 1.836 1.836 0 00-.59-.223 2.045 2.045 0 00-1.224.11l.004.007zm6.87 4.144a2.472 2.472 0 01.685-1.76l-.106-.096a2.581 2.581 0 00-.624 1.859l.045-.003zm-2.74-1.014a1.376 1.376 0 01.484-1.075c.108-.08.223-.152.343-.213v-.038a.615.615 0 00-.398.168 1.195 1.195 0 00-.26.344 1.376 1.376 0 00-.165.814h-.004zm.306.605a2.47 2.47 0 01.685-1.763l-.103-.096a2.549 2.549 0 00-.623 1.859h.04zm1.162-11.935a3.808 3.808 0 002.907 2.227l.034-.316a3.643 3.643 0 01-2.938-1.911h-.003zm1.738 2.227a7.46 7.46 0 01-2.225-.687 4.792 4.792 0 01-.97-.643 2.76 2.76 0 01-.727-.921c.144.379.356.728.624 1.031.275.302.597.557.953.756a6.78 6.78 0 002.31.735l.035-.271zm-1.951.557a1.23 1.23 0 00-.343 0h-.36c-.24 0-.48-.018-.723-.031a4.79 4.79 0 01-1.42-.169 3.244 3.244 0 01-1.223-.718 3.142 3.142 0 01-.82-1.186c.126.486.377.931.727 1.289.348.366.772.651 1.241.835.477.155.977.228 1.478.217.243 0 .49.024.737.024h.374c.128-.017.258-.017.387 0l-.055-.261zm-2.256.759a2.002 2.002 0 01-.737-.144l-.71-.234-.685-.237-.343-.12c-.123-.028-.226-.107-.363-.09.096.103.223.117.343.179l.343.144c.23.097.455.2.685.289l.686.275c.227.105.47.171.72.196l.061-.258zm-1.563.553a1.95 1.95 0 01-.685.017 4.982 4.982 0 01-.686-.123 4.839 4.839 0 01-.686-.217 2.335 2.335 0 01-.634-.344c.166.185.363.339.583.454.219.12.448.22.686.299.234.084.476.147.723.186.254.05.517.016.75-.097l-.05-.175zm19.541-2.47a.743.743 0 00-.22.244 1.435 1.435 0 00-.16.639.348.348 0 00.143.309l.127-.052a1.15 1.15 0 01.127-1.123l-.017-.017zm-2.057-1.031a1.84 1.84 0 00.048.866c.079.288.222.554.418.78l.13-.124a1.87 1.87 0 01-.46-.687 2.019 2.019 0 01-.136-.835zm-1.44.914c-.189-.32-.377-.633-.545-.959a3.525 3.525 0 01-.388-1.031c.032.371.12.735.265 1.079.13.344.284.687.428 1.031l.24-.12zm-2.239-3.035a3.586 3.586 0 00.076 1.605c.13.535.357 1.042.668 1.495l.25-.199a4.284 4.284 0 01-.757-1.344 3.472 3.472 0 01-.22-1.553l-.017-.004zm-1.343.162a2.663 2.663 0 00.126 1.605c.198.529.55.987 1.012 1.312l.175-.288a2.702 2.702 0 01-1.307-2.626l-.006-.003zm-.981 1.704l.607 1.179.254-.172-.86-1.007zm-6.315-2.495c.22.945.45 1.921 1.029 2.749.288.417.67.759 1.114 1 .457.258.988.351 1.505.265l-.065-.313a2.03 2.03 0 01-1.334-.168 3.04 3.04 0 01-1.093-.88c-.6-.749-.885-1.711-1.156-2.653zm4.114 14.849a2.143 2.143 0 010-1.031c.037-.166.1-.325.189-.471l.14-.202c.055-.062.117-.114.179-.179v-.034a.677.677 0 00-.405.343 1.725 1.725 0 00-.165.512c-.057.346-.03.7.083 1.031l-.02.031zm-8.492-2.233c.209-.276.482-.496.796-.64.151-.072.313-.121.48-.144h.247c.085.004.17.014.254.028v-.038a.68.68 0 00-.528-.093 1.57 1.57 0 00-.504.186c-.31.168-.572.412-.765.707l.02-.006zm12.435 1.189c-.006-.275.07-.546.219-.777.072-.119.164-.225.27-.313a2.09 2.09 0 01.344-.209v-.042a.597.597 0 00-.395.172 1.187 1.187 0 00-.26.344 1.376 1.376 0 00-.165.814l-.013.011zm-1.135.591a1.912 1.912 0 01-.21-.921 1.382 1.382 0 01.31-.863l-.025-.031a.663.663 0 00-.305.399 1.526 1.526 0 00-.055.495c.011.327.107.645.278.924l.007-.003zm-1.896-.433c.04-.269.16-.519.343-.719.09-.098.197-.18.315-.244a2.17 2.17 0 01.374-.144v-.041a.615.615 0 00-.422.093 1.25 1.25 0 00-.319.285 1.37 1.37 0 00-.311.77h.02zm-8.341-.53c.021-.311.13-.61.312-.862a1.35 1.35 0 01.32-.32c.124-.085.259-.154.4-.206v-.041a.688.688 0 00-.46.161 1.457 1.457 0 00-.318.365c-.171.27-.262.583-.26.903h.006zm1.625.289c.046-.271.171-.522.36-.721.091-.098.198-.179.316-.241a2.5 2.5 0 01.373-.148v-.038a.626.626 0 00-.421.09 1.417 1.417 0 00-.63 1.058h.002z" fill="#414141"/><path d="M37.75 118.255a2.09 2.09 0 01.227-.687c.057-.107.127-.206.21-.295.081-.085.178-.155.284-.207v-.037a.425.425 0 00-.343.171 1.36 1.36 0 00-.199.344 1.97 1.97 0 00-.171.735l-.007-.024zm12.84-9.498a1.638 1.638 0 01-.275-.165c-.086-.082-.182-.106-.26-.254-.08-.148-.182-.141-.282-.165-.1-.017-.2-.028-.301-.035-.408 0-.816.018-1.214-.02a29.736 29.736 0 00-2.4-.076c-.802.001-1.603.052-2.4.151a29.54 29.54 0 00-1.185.203c-.395.076-.8.12-1.111.578l.13.608c.354-.168.73-.283 1.118-.344.38-.075.764-.148 1.152-.209.77-.129 1.545-.216 2.324-.262.781-.043 1.563-.05 2.345-.02.39.02.785.024 1.175.075l.292.035c.1-.001.199.03.281.089.176.092.368.149.566.168l.044-.357zM26.352 97.596c2.712-1.031 5.108-2.794 7.885-3.585 1.38-.407 2.795-.69 4.227-.842a14.138 14.138 0 014.258.21c2.797.667 5.601 1.433 8.388 2.217 2.787.783 5.547 1.66 8.297 2.577-1.372-.481-2.719-1.007-4.08-1.505-1.361-.499-2.722-1.014-4.083-1.523l-4.08-1.577a82.783 82.783 0 00-2.056-.76l-1.029-.364c-.343-.12-.685-.24-1.076-.36a11.288 11.288 0 00-4.704-.423c-.761.121-1.514.294-2.252.519a23.33 23.33 0 00-2.14.732 19.053 19.053 0 00-3.945 2.23 66.53 66.53 0 00-1.786 1.258 28.8 28.8 0 01-1.824 1.196z" fill="#414141"/><path d="M65.989 99.434c-.957-1.687-1.714-3.502-3.041-4.99a6.41 6.41 0 00-2.458-1.612c-.905-.38-1.834-.687-2.743-1.03a55.084 55.084 0 00-5.618-1.626 184.1 184.1 0 00-5.684-1.31c-1.913-.408-3.806-.766-5.753-1.03a7.006 7.006 0 00-1.522-.041 4.75 4.75 0 00-1.484.419c-.881.444-1.729.952-2.537 1.519a43.04 43.04 0 00-8.66 7.814 80.737 80.737 0 014.601-3.57 66.211 66.211 0 012.4-1.595c.809-.519 1.618-1 2.437-1.467.412-.23.826-.454 1.241-.667.382-.205.774-.39 1.176-.553.317-.126.653-.196.994-.206a5.2 5.2 0 011.135.072l5.663.907 2.866.44 1.43.234 1.436.216c1.903.31 3.83.608 5.653 1.096.946.286 1.889.52 2.79.822.902.302 1.787.687 2.435 1.374a13.235 13.235 0 011.751 2.292c.528.798.984 1.66 1.492 2.492zm-6.599 16.031a24.356 24.356 0 00-7.313.093l.059.316a24.153 24.153 0 017.243-.32l.01-.089zm-7.683.144c-1.642.231-3.28.461-4.93.595a26.604 26.604 0 01-4.936 0 25.13 25.13 0 01-4.82-1.031 12.278 12.278 0 01-2.263-.983 4.245 4.245 0 01-1.762-1.667l-.038.018a4.196 4.196 0 001.714 1.793 12.88 12.88 0 002.263 1.083c1.571.574 3.206.956 4.868 1.137 1.664.153 3.338.153 5.002 0 1.659-.134 3.304-.371 4.947-.604l-.045-.341zm-21.933-3.965a42.489 42.489 0 017.298-2.708 39.696 39.696 0 017.655-1.354c2.571-.193 5.235-.138 7.645.845a18.23 18.23 0 013.397 1.877 37.331 37.331 0 013.086 2.384c-1.934-1.718-4.001-3.384-6.421-4.415a12.66 12.66 0 00-3.809-.904 24.839 24.839 0 00-3.915 0c-2.601.21-5.175.682-7.682 1.409a38.463 38.463 0 00-7.254 2.866z" fill="#414141"/><path d="M31.782 111.685c2.277-.749 4.533-1.516 6.83-2.045a36.554 36.554 0 016.986-.917 20.36 20.36 0 016.856.9 29.691 29.691 0 016.387 3.052 20.15 20.15 0 00-6.109-3.836 17.462 17.462 0 00-3.535-.969 20.352 20.352 0 00-3.657-.226c-2.421.095-4.82.497-7.141 1.195a34.21 34.21 0 00-6.617 2.846zm8.331 5.443c-.686-.254-1.371-.471-2.04-.708a25.429 25.429 0 01-1.971-.769 14.073 14.073 0 01-1.855-.97 10.391 10.391 0 01-1.673-1.319 4.94 4.94 0 001.372 1.739 7.803 7.803 0 001.895 1.165c.676.292 1.38.513 2.102.659a9.703 9.703 0 002.17.203zm8.851-.213a12.498 12.498 0 00-1.895-.017c-.628.028-1.248.089-1.862.131-.614.041-1.227.096-1.844.13-.617.035-1.231.041-1.872.052.59.255 1.218.415 1.858.474a10.5 10.5 0 001.91 0c.63-.055 1.256-.149 1.875-.282.62-.123 1.231-.286 1.83-.488z" fill="#414141"/><path d="M43.884 111.468a2.192 2.192 0 01.61-1.563 2.123 2.123 0 011.553-.657 2.178 2.178 0 012.18 2.22 2.09 2.09 0 01-.685 1.499 2.178 2.178 0 01-1.485.556 2.284 2.284 0 01-1.467-.57 2.06 2.06 0 01-.706-1.485zm3.404.028a.792.792 0 00-.973-.717.791.791 0 00.188 1.559.814.814 0 00.788-.842h-.003zm-1.241-1.516a1.394 1.394 0 00-1.001.451 1.696 1.696 0 00-.247.343 1.53 1.53 0 012.462-.034 1.802 1.802 0 00-.216-.323 1.33 1.33 0 00-.994-.45l-.004.013z" fill="#414141"/><path d="M41.272 108.678h1.155a4.327 4.327 0 00-.723 4.749 5.084 5.084 0 001.8 2.062 5.58 5.58 0 001.607.687 5.7 5.7 0 00.737.079v.086h-.103v.055a7.303 7.303 0 01-.624-.11 5.635 5.635 0 01-3.88-2.299 4.652 4.652 0 01-.83-2.814 4.701 4.701 0 01.86-2.495zm6.592 7.251a4.85 4.85 0 002.235-2.729c.074-.217.134-.438.178-.663.04-.227.067-.457.08-.687a5.021 5.021 0 00-.104-1.375 6.123 6.123 0 00-.997-2.168l.685.017.113.158h.326c.255.276.476.582.658.911.245.427.419.891.515 1.374.05.245.077.493.079.743a4.876 4.876 0 01-.08.735 5.755 5.755 0 01-.184.715 5.18 5.18 0 01-.306.67c-.24.427-.546.814-.905 1.148-.35.333-.742.618-1.169.845-.32.172-.657.312-1.004.419l-.309.127-.274.08-.212.072a.058.058 0 00-.042 0v-.069h-.024v-.089c.072 0 .144-.038.216-.055.18-.048.355-.107.525-.179zm44.498-1.56a18.157 18.157 0 012.862-2.67 19.74 19.74 0 013.329-2.062 17.32 17.32 0 013.688-1.313 19.306 19.306 0 013.891-.457c2.617.013 5.218.403 7.724 1.158a53.668 53.668 0 017.333 2.677v.048c-2.465-.828-4.892-1.77-7.388-2.471a32.746 32.746 0 00-3.788-.852 23.054 23.054 0 00-3.863-.323 19.065 19.065 0 00-3.847.419c-1.26.291-2.484.723-3.647 1.289a19.455 19.455 0 00-3.305 2.027c-1.028.793-2 1.655-2.91 2.581l-.08-.051zm21.72 2.666a14.935 14.935 0 003.545-1.463 9.923 9.923 0 001.563-1.114 7.23 7.23 0 001.282-1.429l.035.02a8.089 8.089 0 01-2.798 2.66 10.7 10.7 0 01-3.61 1.402l-.017-.076zm-2.427.217c.12 0 .237-.021.343-.024.106-.003.23-.021.343-.038.233 0 .456-.058.685-.082l.021.079a1.53 1.53 0 01-.343.147c-.112.03-.227.052-.343.066a2.2 2.2 0 01-.363 0 1.321 1.321 0 01-.343-.093v-.055zm-18.885-5.179a92.595 92.595 0 014.669-4.598c.394-.378.819-.725 1.237-1.079.409-.365.835-.709 1.279-1.031a14.228 14.228 0 012.91-1.553l.113.302a13.728 13.728 0 00-2.886 1.454c-.446.308-.875.64-1.286.993-.421.344-.85.687-1.254 1.031a92.05 92.05 0 00-4.769 4.485l-.014-.004zm11.004-8.567a17.274 17.274 0 013.531-.704 17.567 17.567 0 013.603.037 15.94 15.94 0 013.507.808c1.134.4 2.211.949 3.202 1.632l-.096.145a15.807 15.807 0 00-6.658-2.186 18.481 18.481 0 00-3.52-.027c-1.171.1-2.331.302-3.466.604l-.103-.309zm14.755 2.478l1.076.842-.051.075-1.173-.707.148-.21z" fill="#414141"/><path d="M95.735 113.3c.078.259.178.511.298.753.06.12.13.235.21.343a.864.864 0 00.294.275.839.839 0 01-.374-.199 2.135 2.135 0 01-.308-.303 4.845 4.845 0 01-.511-.687l.39-.182zm-.587-.302a49.808 49.808 0 013.49-2.695l.179.265a49.722 49.722 0 00-3.583 2.533l-.085-.103zm3.487 3.127l2.883.343 2.887.303 2.89.302c.959.1 1.926.186 2.889.258v.076c-.966-.035-1.936-.083-2.903-.141a60.148 60.148 0 01-2.9-.237 91.985 91.985 0 01-2.884-.375 68.007 68.007 0 01-2.869-.467l.007-.062zm9.582 5.543a16.724 16.724 0 003.932-.279 11.104 11.104 0 001.885-.536 6.127 6.127 0 001.673-.948l.202.247a6.308 6.308 0 01-1.792.931 11.58 11.58 0 01-1.941.468c-1.31.199-2.639.24-3.959.124v-.007zm9.667-2.773l1.56-.976.069.099-1.444 1.138-.185-.261zm-7.964-13.454a4.268 4.268 0 01-1.978 2.749l-.147-.271a4.115 4.115 0 002.115-2.495l.01.017zm.402-.55c.092.539.092 1.09 0 1.629a2.982 2.982 0 01-.244.794.886.886 0 01-.614.546v-.038c.192-.165.352-.364.474-.587.124-.233.217-.481.274-.739a4.06 4.06 0 00.099-1.601l.011-.004zm1.172 1.296a2.48 2.48 0 01-.106 1.202 1.887 1.887 0 01-.312.516.685.685 0 01-.538.302v-.038c.157-.13.288-.24.425-.374a1.81 1.81 0 00.308-.478c.183-.354.259-.754.22-1.151l.003.021zm6.051 1.512a3.27 3.27 0 01-.837 1.106 2.34 2.34 0 01-.61.368.802.802 0 01-.706 0v-.038c.216-.015.429-.053.637-.113.211-.072.41-.175.59-.306a2.75 2.75 0 00.909-1.01l.017-.007zm-3.182-.533c-.01.354-.1.7-.264 1.014-.09.159-.206.303-.342.426a.598.598 0 01-.511.172v-.042c.151-.096.271-.171.404-.264.132-.096.248-.212.343-.344.207-.275.334-.602.367-.945l.003-.017zm-6.373-1.323c.138.325.198.678.175 1.031-.012.18-.055.357-.127.522a.569.569 0 01-.39.368l-.021-.031c.096-.151.175-.271.257-.409.077-.146.129-.304.154-.467a1.879 1.879 0 00-.054-1.011l.006-.003zm-1.086.254c.078.279.086.573.024.856a1.328 1.328 0 01-.172.409.457.457 0 01-.373.24l-.017-.037c.076-.107.16-.208.25-.303a1.13 1.13 0 00.188-.344c.114-.255.145-.54.089-.814l.011-.007zm-4.543.382c.172.233.283.506.323.794a1.32 1.32 0 01-.021.443.45.45 0 01-.267.344l-.031-.028c.036-.127.081-.251.134-.371.04-.127.06-.259.058-.392a1.385 1.385 0 00-.199-.794l.003.004zm18.509 1.481c0 .335-.066.667-.195.976-.119.31-.283.6-.487.862a3.071 3.071 0 01-.737.688 1.616 1.616 0 01-.946.292v-.038c.296-.126.584-.269.863-.43a2.85 2.85 0 00.727-.608 2.79 2.79 0 00.768-1.742h.007zm2.324 1.381a2.502 2.502 0 01-.576.791c-.24.228-.511.421-.805.574-.3.15-.622.251-.953.299-.333.058-.676.01-.981-.138v-.038c.317.019.634.019.95 0 .317-.03.628-.112.919-.244a2.784 2.784 0 001.429-1.251l.017.007zm-3.5-.385c-.36.342-.784.608-1.248.784a2.449 2.449 0 01-.737.155.822.822 0 01-.685-.251l.024-.035a2.23 2.23 0 001.371 0 3.175 3.175 0 001.268-.673l.007.02zm3.901 1.853a3.766 3.766 0 01-1.323.649 2.477 2.477 0 01-.747.076.838.838 0 01-.686-.323l.028-.031c.211.091.433.153.661.185.236.025.474.013.706-.034.483-.07.943-.251 1.344-.529l.017.007zm-7.494-3.427c-.113.451-.3.881-.551 1.272a2.604 2.604 0 01-.467.532.72.72 0 01-.685.207v-.042c.202-.069.391-.17.562-.299.176-.136.333-.295.466-.474a3.46 3.46 0 00.651-1.196h.024zm-1.364-1.752c-.106.33-.255.644-.442.935a6.154 6.154 0 01-.624.831 4.831 4.831 0 01-.782.688 1.149 1.149 0 01-1.004.24v-.041c.323-.044.631-.162.901-.344.283-.185.545-.399.782-.639a4.47 4.47 0 001.148-1.677l.021.007z" fill="#414141"/><path d="M111.34 105.238a6.463 6.463 0 01-.504 1.66 3.802 3.802 0 01-1.029 1.447l-.185-.262a3.648 3.648 0 001.053-1.261 6.581 6.581 0 00.634-1.587l.031.003zm.229 14.097a2.027 2.027 0 00-.161-1.076 4.061 4.061 0 00-.634-.894l.086-.079c.148.119.275.262.377.423.105.16.194.33.264.509.135.357.162.747.079 1.12l-.011-.003zm.535-.255a2.524 2.524 0 00-.301-1.031 1.794 1.794 0 00-.306-.436 1.467 1.467 0 00-.428-.303v-.037a.623.623 0 01.521.247c.124.145.224.309.298.485.144.345.218.715.216 1.089v-.014zm2.146-.807a1.378 1.378 0 00-.483-1.076 2.229 2.229 0 00-.343-.209v-.042a.603.603 0 01.398.172c.107.098.195.214.26.344.138.248.195.532.165.814l.003-.003zm5.396-1.997a2.055 2.055 0 00-1.083-.522 1.83 1.83 0 00-.6 0 2.12 2.12 0 00-.569.196l-.024-.035a.997.997 0 01.576-.264 1.86 1.86 0 01.631.03c.408.081.781.287 1.069.588v.007zm.867-1.453a2.047 2.047 0 00-1.21-.045 1.81 1.81 0 00-.552.24 2.241 2.241 0 00-.442.406l-.034-.021a.993.993 0 01.422-.474 1.83 1.83 0 01.589-.223c.41-.09.837-.051 1.224.11l.003.007zm-6.87 4.144a2.458 2.458 0 00-.685-1.76l.106-.096a2.58 2.58 0 01.624 1.859l-.045-.003zm2.74-1.014a1.376 1.376 0 00-.484-1.075 2.334 2.334 0 00-.343-.213v-.038c.149.006.29.066.398.168.105.1.193.216.261.344.137.248.193.532.161.814h.007zm-.306.605a2.464 2.464 0 00-.685-1.763l.106-.096a2.538 2.538 0 01.624 1.859h-.045zm-1.165-11.935a3.802 3.802 0 01-2.904 2.227l-.034-.316a3.647 3.647 0 002.938-1.911zm-1.735 2.227a7.458 7.458 0 002.225-.687c.348-.174.674-.39.97-.643.305-.251.553-.565.727-.921a3.356 3.356 0 01-.624 1.031 3.789 3.789 0 01-.953.756 6.78 6.78 0 01-2.31.735l-.035-.271zm1.951.557c.114-.016.229-.016.343 0h.342c.244 0 .484-.018.727-.031a4.8 4.8 0 001.416-.169c.456-.145.875-.39 1.224-.718.362-.326.643-.732.823-1.186a2.874 2.874 0 01-.7 1.289 3.396 3.396 0 01-1.237.835 4.466 4.466 0 01-1.478.217c-.243 0-.49.024-.737.024h-.373a1.482 1.482 0 00-.388 0l.038-.261zm2.256.759c.252-.001.502-.05.737-.144l.709-.234.686-.237.343-.12a.99.99 0 01.363-.09c-.096.103-.223.117-.343.179l-.343.144c-.229.097-.456.2-.685.289l-.686.275a2.253 2.253 0 01-.72.196l-.061-.258zm1.577.553c.225.046.457.052.685.017.231-.025.46-.066.686-.123.233-.055.463-.128.685-.217.228-.081.442-.197.635-.344-.167.186-.365.34-.587.454a3.97 3.97 0 01-.685.299 4.048 4.048 0 01-.734.193c-.254.05-.517.016-.751-.097l.066-.182zm-19.565-2.47a.79.79 0 01.22.244c.102.197.157.416.16.639a.348.348 0 01-.143.309l-.127-.052a1.151 1.151 0 00-.127-1.123l.017-.017zm2.081-1.031c.053.288.036.585-.048.866-.08.288-.224.555-.422.78l-.127-.124c.203-.191.359-.426.456-.687.106-.266.154-.55.141-.835zm1.426.914c.185-.32.377-.633.545-.959.182-.321.313-.669.387-1.031-.031.371-.12.735-.264 1.079-.13.344-.284.687-.428 1.031l-.24-.12zm2.239-3.035c.096.534.07 1.083-.076 1.605a4.535 4.535 0 01-.668 1.495l-.251-.199c.332-.398.589-.854.758-1.344a3.456 3.456 0 00.219-1.553l.018-.004zm1.343.162c.125.535.08 1.096-.126 1.605a2.814 2.814 0 01-1.029 1.312l-.175-.288a2.687 2.687 0 001.303-2.626l.027-.003zm.981 1.704l-.607 1.179-.254-.172.861-1.007zm6.315-2.495c-.22.945-.45 1.921-1.029 2.749a3.25 3.25 0 01-1.114 1 2.295 2.295 0 01-1.505.265l.065-.313a2.03 2.03 0 001.334-.168 3.037 3.037 0 001.093-.88c.6-.749.885-1.711 1.156-2.653zm-4.114 14.849a2.14 2.14 0 000-1.031 1.578 1.578 0 00-.189-.471l-.144-.202c-.051-.062-.113-.114-.178-.179l.021-.034a.677.677 0 01.404.343c.081.161.137.334.165.512.058.346.029.7-.083 1.031l.004.031zm8.491-2.233a2.083 2.083 0 00-.795-.64 1.605 1.605 0 00-.48-.144h-.25a2.078 2.078 0 00-.25.028v-.038a.709.709 0 01.531-.093c.177.033.348.095.504.185.309.169.572.413.764.708l-.024-.006zm-12.434 1.189a1.378 1.378 0 00-.219-.777 1.232 1.232 0 00-.257-.313 2.068 2.068 0 00-.343-.209v-.042a.596.596 0 01.394.172c.107.098.196.214.261.344.137.248.195.532.164.814v.011zm1.135.591a1.9 1.9 0 00.209-.921 1.395 1.395 0 00-.308-.863l.024-.031a.69.69 0 01.305.399c.045.161.064.328.055.495a1.9 1.9 0 01-.278.924l-.007-.003zm1.896-.433a1.355 1.355 0 00-.343-.719 1.227 1.227 0 00-.315-.244 2.172 2.172 0 00-.374-.144v-.041a.616.616 0 01.422.093c.121.076.229.172.318.285.181.218.29.487.312.77h-.02zm8.341-.53a1.657 1.657 0 00-.312-.862 1.365 1.365 0 00-.319-.32 1.855 1.855 0 00-.401-.206v-.041a.687.687 0 01.459.161c.126.103.234.226.319.365.171.27.262.583.26.903h-.006zm-1.625.289a1.38 1.38 0 00-.343-.721 1.178 1.178 0 00-.316-.241 2.496 2.496 0 00-.373-.148v-.038a.624.624 0 01.421.09 1.404 1.404 0 01.631 1.058h-.02z" fill="#414141"/><path d="M115.138 118.255a2.065 2.065 0 00-.226-.687 1.289 1.289 0 00-.213-.295.94.94 0 00-.281-.207v-.037a.427.427 0 01.343.171c.083.105.15.22.199.344.103.232.16.482.168.735l.01-.024zm-12.838-9.498c.095-.045.186-.101.27-.165.09-.082.186-.106.264-.254.079-.148.182-.141.282-.165.099-.017.2-.028.301-.035.408 0 .816.018 1.214-.02a29.74 29.74 0 012.4-.076c.802.001 1.603.052 2.399.151.398.059.792.128 1.186.203.395.076.799.12 1.111.578l-.13.608a4.094 4.094 0 00-1.118-.344 31.539 31.539 0 00-1.152-.209 21.825 21.825 0 00-2.324-.262 25.126 25.126 0 00-2.345-.02c-.391.02-.785.024-1.176.075l-.291.035a.472.472 0 00-.281.089 1.538 1.538 0 01-.566.168l-.044-.357zm24.237-11.161c-2.712-1.031-5.112-2.794-7.885-3.585a23.869 23.869 0 00-4.227-.842 14.14 14.14 0 00-4.258.21c-2.797.667-5.605 1.433-8.388 2.216-2.784.784-5.547 1.66-8.297 2.578 1.372-.481 2.719-1.007 4.08-1.505 1.36-.499 2.722-1.014 4.083-1.523l4.079-1.577a84.032 84.032 0 012.057-.76l1.029-.364c.343-.12.685-.24 1.076-.36a11.277 11.277 0 014.7-.423c.763.12 1.517.294 2.256.519.73.213 1.443.453 2.139.732a19.144 19.144 0 013.946 2.23 67.16 67.16 0 011.786 1.258c.59.426 1.196.81 1.824 1.195z" fill="#414141"/><path d="M86.9 99.434c.957-1.687 1.715-3.502 3.041-4.99a6.41 6.41 0 012.458-1.612c.905-.38 1.834-.687 2.743-1.03a55.021 55.021 0 015.615-1.626c1.888-.458 3.784-.895 5.687-1.31 1.91-.377 3.806-.766 5.753-1.03a7.005 7.005 0 011.522-.041c.514.058 1.016.2 1.484.419a20.49 20.49 0 012.537 1.519 43.051 43.051 0 018.66 7.814 81.963 81.963 0 00-4.601-3.57 66.135 66.135 0 00-2.4-1.595 54.65 54.65 0 00-2.437-1.467 35.79 35.79 0 00-1.244-.667 11.83 11.83 0 00-1.173-.553 2.939 2.939 0 00-.994-.206 5.224 5.224 0 00-1.138.072l-5.66.907-2.866.44-1.43.234-1.436.216c-1.903.31-3.83.608-5.653 1.096-.946.286-1.889.52-2.79.822-.902.302-1.787.687-2.434 1.374a13.23 13.23 0 00-1.752 2.292c-.528.798-.97 1.66-1.492 2.492zm6.6 16.031a24.357 24.357 0 017.312.093l-.058.316a24.156 24.156 0 00-7.244-.32l-.01-.089zm7.682.144c1.642.231 3.281.461 4.93.595 1.642.153 3.294.153 4.936 0a25.115 25.115 0 004.82-1.031c.786-.251 1.544-.58 2.263-.983a4.245 4.245 0 001.762-1.667l.038.018a4.201 4.201 0 01-1.714 1.793 12.88 12.88 0 01-2.263 1.083 20.725 20.725 0 01-4.868 1.137 27.312 27.312 0 01-5.002 0c-1.659-.134-3.304-.371-4.946-.604l.044-.341zm21.933-3.965a42.48 42.48 0 00-7.298-2.708 39.71 39.71 0 00-7.655-1.354c-2.571-.193-5.235-.138-7.645.845a17.963 17.963 0 00-3.397 1.877 37.33 37.33 0 00-3.086 2.384c1.934-1.718 4.001-3.384 6.421-4.415 1.216-.497 2.5-.802 3.809-.904a24.84 24.84 0 013.915 0 40.043 40.043 0 0114.936 4.278v-.003z" fill="#414141"/><path d="M121.107 111.685c-2.277-.749-4.533-1.516-6.829-2.045a36.504 36.504 0 00-6.973-.917 20.37 20.37 0 00-6.884.9 29.694 29.694 0 00-6.387 3.052 20.12 20.12 0 016.109-3.836 17.463 17.463 0 013.535-.969 20.352 20.352 0 013.658-.226 28.63 28.63 0 017.168 1.195 34.255 34.255 0 016.603 2.846zm-8.334 5.443c.685-.254 1.371-.471 2.057-.708a22.785 22.785 0 001.971-.77c.641-.276 1.261-.6 1.854-.969a10.344 10.344 0 001.673-1.319 4.926 4.926 0 01-1.371 1.739 7.795 7.795 0 01-1.896 1.165c-.677.292-1.382.513-2.105.659a9.582 9.582 0 01-2.183.203zm-8.848-.213c.63-.054 1.264-.059 1.895-.017.628.028 1.245.089 1.862.131.617.041 1.227.096 1.844.13.617.035 1.231.041 1.872.052a6.104 6.104 0 01-1.858.474c-.636.058-1.277.058-1.913 0a15.571 15.571 0 01-1.872-.282 14.305 14.305 0 01-1.83-.488z" fill="#414141"/><path d="M104.658 111.468a2.19 2.19 0 01.626-1.568 2.176 2.176 0 011.555-.652 2.13 2.13 0 011.553.657c.401.42.62.982.61 1.563a2.064 2.064 0 01-.686 1.485c-.407.358-.926.56-1.467.57a2.18 2.18 0 01-1.992-1.232 2.096 2.096 0 01-.199-.823zm1.714.87a.845.845 0 10-.252-1.63.845.845 0 00-.533.788.822.822 0 00.484.771.817.817 0 00.312.071h-.011zm.467-2.371a1.333 1.333 0 00-.998.453c-.083.1-.156.208-.216.323a1.54 1.54 0 011.239-.604 1.534 1.534 0 011.222.639 1.857 1.857 0 00-.246-.344 1.401 1.401 0 00-1.001-.467zm-5.503.811c.096-.484.27-.948.515-1.375.182-.329.403-.635.658-.911h.322c.041-.051.079-.106.117-.158l.685-.017a6.124 6.124 0 00-.997 2.169 4.991 4.991 0 00-.103 1.374c.011.231.037.46.079.687.044.225.104.447.178.664a4.853 4.853 0 002.235 2.728c.172.077.35.141.531.193.072 0 .144.041.216.055v.089h-.027v.069h-.041a1.2 1.2 0 01-.213-.059l-.274-.079-.308-.127a5.702 5.702 0 01-1.005-.419 5.204 5.204 0 01-1.169-.846 4.66 4.66 0 01-.905-1.147 5.048 5.048 0 01-.305-.67 4.782 4.782 0 01-.185-.715 4.915 4.915 0 01-.079-.736 3.82 3.82 0 01.075-.769z" fill="#414141"/><path d="M109.386 115.489a5.093 5.093 0 001.8-2.062 4.326 4.326 0 00-.724-4.749h1.155c.521.732.821 1.597.864 2.495a4.656 4.656 0 01-.829 2.814 5.633 5.633 0 01-3.881 2.299 7.337 7.337 0 01-.624.11v-.055h-.103v-.086c.247-.01.494-.037.737-.079a5.565 5.565 0 001.605-.687zm29.115 6.045a17.696 17.696 0 002.688-1.883 23.596 23.596 0 004.329-5c.283-.476.54-.967.768-1.471a2.964 2.964 0 00.251-1.718c-.263.148-.5.34-.7.567a3.558 3.558 0 00-.504.642c-.281.457-.565.908-.829 1.375-.539.917-1.046 1.859-1.66 2.749a23.426 23.426 0 01-1.991 2.516 24.95 24.95 0 01-2.352 2.223zM89.619 33.155a16.276 16.276 0 01-6.212.55 39.569 39.569 0 01-6.17-1.134c-2.033-.491-4.056-1.062-6.12-1.454-1.028-.165-2.057-.343-3.113-.498l-3.143-.265c-8.416-.343-16.87 1.832-24.2 5.956a45.267 45.267 0 00-9.979 7.677l-1.1 1.134c-.343.381-.686.804-1.029 1.203l-1.028 1.216c-.172.2-.331.41-.477.629l-.456.643a42.995 42.995 0 00-3.335 5.36c-1.992 3.705-3.645 7.56-5.534 11.313a60.328 60.328 0 01-3.06 5.499c-.282.443-.566.883-.872 1.309-.286.438-.597.86-.929 1.264-.336.4-.738.74-1.19 1.004a1.793 1.793 0 01-1.508.155 1.79 1.79 0 001.52-.131 4.53 4.53 0 001.216-.993c.341-.4.66-.82.957-1.254.312-.42.603-.86.89-1.296a60.644 60.644 0 003.162-5.45c1.933-3.732 3.62-7.581 5.636-11.255A43.823 43.823 0 0140.86 36.708a45.736 45.736 0 0123.98-6l3.12.234c1.028.13 2.057.313 3.085.467 2.057.368 4.08.921 6.123 1.392a39.46 39.46 0 006.201 1.031c2.108.18 4.23-.05 6.25-.677z" fill="#414141"/><path d="M78.087 35.894a40.678 40.678 0 00-14.268-3.818 39.68 39.68 0 00-7.45.14 36.9 36.9 0 00-7.302 1.564 30.418 30.418 0 00-12.701 7.829 32.375 32.375 0 00-4.48 6.048 47.035 47.035 0 00-3.168 6.797c-1.735 4.694-2.88 9.526-4.097 14.306-1.217 4.78-2.492 9.536-4.456 14.014a37.097 37.097 0 01-3.57 6.375c-1.394 1.993-3.105 3.78-4.727 5.642-1.621 1.863-3.154 3.883-4.137 6.186a13.314 13.314 0 00-.998 3.594 11.458 11.458 0 00.24 3.701 11.391 11.391 0 01-.048-3.673 13.081 13.081 0 011.118-3.481c1.049-2.217 2.626-4.124 4.292-5.91 1.666-1.788 3.428-3.568 4.912-5.589a37.695 37.695 0 003.812-6.44c2.143-4.522 3.452-9.35 4.735-14.12 1.282-4.77 2.4-9.58 4.113-14.155a45.706 45.706 0 013.058-6.629 31.935 31.935 0 014.285-5.842 28.376 28.376 0 015.581-4.587 32.972 32.972 0 016.538-3.138 38.308 38.308 0 0114.398-2.014 42.224 42.224 0 0114.32 3.2z" fill="#414141"/><path d="M26.363 64.757a18.585 18.585 0 01-.785 2.721 21.78 21.78 0 01-1.197 2.564 42.587 42.587 0 01-3.085 4.746c-1.118 1.522-2.26 3.038-3.326 4.612a79.548 79.548 0 00-3.01 4.835 67.63 67.63 0 00-4.713 10.364 70.574 70.574 0 00-1.673 5.443c-.117.461-.244.918-.343 1.375a3.966 3.966 0 00-.045 1.436c.078.484.337.921.724 1.22a1.338 1.338 0 001.344.241 1.317 1.317 0 01-1.303-.289 1.838 1.838 0 01-.651-1.189c-.13-.931.205-1.849.462-2.749a71.326 71.326 0 011.78-5.385 71.001 71.001 0 014.775-10.268 63.478 63.478 0 012.962-4.811c1.028-1.574 2.187-3.093 3.267-4.64a41.542 41.542 0 003.006-4.838c.433-.847.806-1.723 1.118-2.622.311-.9.543-1.825.692-2.766zm-5.06 21.123c-.686 1.78-1.742 3.348-2.822 4.901s-2.221 3.072-3.28 4.667a34.495 34.495 0 00-2.795 5.024 21.558 21.558 0 00-1.655 5.498 39.033 39.033 0 012.252-5.203 54.81 54.81 0 012.91-4.845c1.029-1.584 2.133-3.134 3.124-4.773.99-1.64 1.906-3.382 2.266-5.268zm120.482-1.982a61.947 61.947 0 00-2.088-7.581l-.685-1.849-.734-1.845-.778-1.808-.847-1.78a65.284 65.284 0 00-3.874-6.873c-.73-1.1-1.484-2.189-2.224-3.282l-2.4-3.15a71.504 71.504 0 00-5.331-5.843 77.624 77.624 0 00-5.944-5.213c-2.023-1.64-4.056-3.247-5.893-5.062a23.013 23.013 0 01-4.663-6.186 20.166 20.166 0 004.066 6.757 60.587 60.587 0 005.646 5.498c1.941 1.718 3.847 3.47 5.643 5.333a75.607 75.607 0 015.142 5.78l2.379 3.049 2.215 3.171c1.478 2.138 2.787 4.361 4.049 6.622l.922 1.719.874 1.745.843 1.743.816 1.79c1.056 2.364 1.982 4.811 2.866 7.265z" fill="#414141"/><path d="M132.015 66.826c-.415-.839-.881-1.653-1.347-2.471l-.782-1.172c-.267-.385-.548-.756-.826-1.138-.562-.762-1.179-1.464-1.803-2.171-.624-.708-1.286-1.358-1.958-2.024a36.362 36.362 0 00-4.381-3.554 26.258 26.258 0 00-4.923-2.7 178.374 178.374 0 014.32 3.498c1.409 1.185 2.759 2.44 4.103 3.67.662.625 1.32 1.278 1.964 1.93a162.6 162.6 0 011.913 1.977l1.872 2.062c.6.7 1.197 1.409 1.848 2.093zm-5.321.656a37.95 37.95 0 013.106 3.162 38.993 38.993 0 012.671 3.539 14.062 14.062 0 00-5.777-6.701zm-25.532-35.543a39.797 39.797 0 00-9.658-8.052 24.09 24.09 0 00-8.957-3.303 31.05 31.05 0 00-3.185-.312 34.124 34.124 0 00-6.356.436 41.63 41.63 0 00-6.153 1.516c-2.006.646-3.96 1.422-5.883 2.254-1.896.89-3.792 1.777-5.66 2.715a290.612 290.612 0 005.89-2.13c1.954-.726 3.942-1.327 5.937-1.88a47.79 47.79 0 016.047-1.275 34.556 34.556 0 016.127-.344c1.018.036 2.034.125 3.044.268a28.49 28.49 0 012.989.629 26.958 26.958 0 015.67 2.282 52.625 52.625 0 0110.148 7.196zm41.237 53.474c.233 1.34.459 2.677.641 4.017a74.81 74.81 0 01.452 4.031c.11 1.348.196 2.698.251 4.049.027.687.041 1.354.048 2.03v2.063c.085-.687.137-1.354.192-2.03.055-.678.058-1.375.072-2.042a41.372 41.372 0 00-.155-4.082 38.408 38.408 0 00-.555-4.048 34.918 34.918 0 00-.946-3.987zm-19.815-36.615l6.363 7.98c2.115 2.663 4.237 5.326 6.28 8.044a101.443 101.443 0 015.9 8.31c1.783 2.88 3.243 5.992 3.966 9.33a23.8 23.8 0 00-1.395-4.918 34.671 34.671 0 00-2.293-4.584c-1.735-2.949-3.802-5.67-5.828-8.4-2.026-2.728-4.196-5.367-6.366-7.989a358.045 358.045 0 00-6.627-7.773zm19.688 21.206c.538.973 1.073 1.914 1.546 2.894.473.979.891 1.979 1.327 3.003a10.122 10.122 0 00-2.873-5.897z" fill="#414141"/><path d="M100.215 36.083a11.433 11.433 0 00-1.474-3.024 13.017 13.017 0 00-5.073-4.388l-.772-.344-.792-.289-.812-.227a23.184 23.184 0 00-.823-.161c.264.093.528.186.792.271l.771.313.755.344.73.385a16.283 16.283 0 014.957 4.288 16.743 16.743 0 011.741 2.832zm-12.382-9.388a13.999 13.999 0 00-6.812-1.375c1.145.247 2.276.44 3.408.687 1.131.248 2.249.474 3.404.688zm14.933 2.969a7.582 7.582 0 00-2.9-3.47 7.552 7.552 0 00-4.354-1.197 10.5 10.5 0 014.126 1.554 10.534 10.534 0 013.128 3.113zm.147-4.347a2.877 2.877 0 00-3.15-2.12 6.457 6.457 0 013.133 2.12h.017zm.302-4.643a1.147 1.147 0 00-1.184-.975 1.138 1.138 0 00-.53.16c.31.087.612.202.901.344.284.133.556.29.813.47zm1.251-7.251a.35.35 0 00-.061-.364c-.076-.07-1.142-1.457-2.4-1.399 1.097.399 2.026 1.625 2.091 1.718a.362.362 0 00.37.045zm3.422 16.165a13.516 13.516 0 017.884 5.072 9.318 9.318 0 00-3.259-3.603 9.29 9.29 0 00-4.625-1.469zm1.697-1.639c.624.255 1.226.562 1.799.917.565.37 1.099.785 1.598 1.241a3.57 3.57 0 00-3.397-2.155v-.003zm-.374-3.945c.343.348.742.637 1.179.856.427.235.891.396 1.371.477a4.434 4.434 0 00-1.165-.855 4.586 4.586 0 00-1.385-.478zm.836-2.509a.653.653 0 00.343.41c.62.192 1.212.463 1.762.807-.212-.581-1.429-1.11-1.57-1.19a.648.648 0 00-.535-.027zm-.264-2.251a7.611 7.611 0 015.485 3.282 5.097 5.097 0 00-2.165-2.61 5.08 5.08 0 00-3.32-.672zm.888-1.522c.332.185.686.328 1.053.426.362.11.736.173 1.114.19a2.03 2.03 0 00-.998-.602 2.08 2.08 0 00-1.169-.014zm-12.807 19.43a6.397 6.397 0 00-1.948-3.028 6.883 6.883 0 00-1.518-1.01 5.478 5.478 0 00-.857-.344.567.567 0 00-.494.083c-.13.11-.175.343-.041.433a.245.245 0 01.106-.344.426.426 0 01.367.027c.25.117.51.275.758.423.495.303.962.648 1.398 1.031.879.79 1.63 1.71 2.229 2.729zm7.188-.382c.36.924.805 1.813 1.331 2.653a18.418 18.418 0 001.765 2.406 18.178 18.178 0 002.136 2.062c.386.309.781.607 1.186.893.415.268.826.54 1.262.773a24.99 24.99 0 00-.573-.464l-.562-.474c-.374-.32-.741-.642-1.097-.976a36.743 36.743 0 01-2.03-2.103 32.225 32.225 0 01-1.817-2.292 32.535 32.535 0 01-1.601-2.478zm14.32 13.932a7.463 7.463 0 00-3.894-3.193c.651.56 1.313 1.055 1.954 1.588.641.532 1.265 1.075 1.94 1.605zM91.498 35.571c.51.186.98.344 1.422.522.432.189.844.42 1.23.688.397.275.78.57 1.146.883.394.34.817.645 1.265.91a6.766 6.766 0 00-.778-1.374 4.801 4.801 0 00-1.156-1.127 3.708 3.708 0 00-1.528-.612 3.42 3.42 0 00-1.602.11zm15.193-23.072a5.198 5.198 0 00-1.656-1.884 5.523 5.523 0 00-1.107-.611c-.199-.09-.41-.15-.627-.176a.867.867 0 00-.628.145 1.58 1.58 0 011.108.326c.342.213.685.43 1.008.664.659.48 1.294.992 1.902 1.536zm.823-1.461a4.479 4.479 0 00-.638-.9 3.433 3.433 0 00-.877-.712 2.397 2.397 0 00-1.111-.299 1.562 1.562 0 00-1.066.361 2.392 2.392 0 011.028-.027c.33.062.647.178.94.343.596.38 1.172.792 1.724 1.234zM24.378 65.08c-.638 2.749-1.906 5.258-3.428 7.598-1.523 2.34-3.233 4.546-4.927 6.776-1.693 2.23-3.28 4.574-4.494 7.12a21.54 21.54 0 00-1.45 3.966 14.948 14.948 0 00-.442 4.18c.054-2.812.929-5.527 2.187-8a46.402 46.402 0 014.556-6.994c1.662-2.247 3.4-4.467 4.864-6.873a29.62 29.62 0 001.944-3.742 18.507 18.507 0 001.19-4.031zm67.263-45.815c-3.664-1.57-7.665-2.24-11.655-2.385-3.99-.144-7.967.24-11.92.687l-2.962.344c-.497.048-.994.093-1.491.154l-1.481.248c-1.96.396-3.889.93-5.773 1.598a62.975 62.975 0 00-10.761 5.148c-1.714 1.01-3.377 2.127-5.015 3.264a66.712 66.712 0 00-4.752 3.643 70.294 70.294 0 00-8.588 8.326 57.526 57.526 0 00-3.698 4.726c-.556.831-1.132 1.65-1.636 2.512a74.08 74.08 0 00-1.474 2.608 33.774 33.774 0 00-2.262 5.533 24.72 24.72 0 00-.998 5.886 24.635 24.635 0 011.097-5.842 33.522 33.522 0 012.331-5.48 47.435 47.435 0 013.144-5.06 57.111 57.111 0 013.716-4.656c1.303-1.498 2.708-2.907 4.114-4.299 1.405-1.391 2.917-2.697 4.456-3.945a98.925 98.925 0 014.738-3.608 62.7 62.7 0 015.002-3.23 62.385 62.385 0 0110.696-5.155 41.973 41.973 0 015.71-1.605l1.465-.247c.49-.062.984-.107 1.474-.162l3-.398c3.942-.471 7.905-.884 11.878-.787 3.973.096 7.953.673 11.645 2.182zm-74.96 43.77a15.438 15.438 0 01-2.93 6.358 7.797 7.797 0 002.93-6.358zm1.536 41.152a15.163 15.163 0 01-4.5 7.697 9.612 9.612 0 003.194-3.294 9.639 9.639 0 001.306-4.403zm-1.536.914c-.412.996-.899 1.96-1.457 2.883a21.871 21.871 0 01-1.91 2.605 7.822 7.822 0 003.367-5.499v.011zm-2.057.663a5.41 5.41 0 00-.942 1.292 5.318 5.318 0 00-.57 1.495c.379-.379.697-.813.943-1.289a5.34 5.34 0 00.57-1.498zm121.316-5.863a10.655 10.655 0 001.19 5.207 10.629 10.629 0 003.486 4.034 16.25 16.25 0 01-3.113-4.227 16.258 16.258 0 01-1.563-5.014zm-.041 4.351a10.538 10.538 0 001.077 3.395c.269.533.578 1.044.925 1.529.173.246.36.483.559.708.06.061.129.111.206.148a.314.314 0 00.27 0 .148.148 0 00.066-.05.149.149 0 00.027-.077.192.192 0 00-.051-.124.218.218 0 00-.1-.069c-.01-.003-.021-.004-.032-.003a.065.065 0 00-.029.014.058.058 0 00-.018.026.058.058 0 00-.003.032c.024-.099.11-.017.13.035.021.051.021.11-.031.11-.051 0-.202-.079-.274-.186-.147-.234-.295-.505-.439-.753a50.356 50.356 0 01-.826-1.543c-.535-1.027-.984-2.099-1.457-3.192zm.202 5.093c.024.261.71 1.295.847 1.443.154.157.36.254.579.272a.907.907 0 00-.281-.578 5.737 5.737 0 01-1.145-1.137zM77.7 34.021c.3.54.705 1.017 1.189 1.402a6.819 6.819 0 001.618.928 9.444 9.444 0 003.654.636 19.724 19.724 0 003.603-.464 39.4 39.4 0 003.51-.804c-1.203-.021-2.399.044-3.613.144-1.213.1-2.365.258-3.527.271a11.558 11.558 0 01-3.428-.409 8.333 8.333 0 01-1.605-.646 6.451 6.451 0 01-1.402-1.058z" fill="#414141"/><path d="M76.623 36.038c-5.657-.278-11.33-.374-17.021.255a41.69 41.69 0 00-4.244.687 37.222 37.222 0 00-4.179 1.1c-.686.223-1.371.446-2.057.735-.685.289-1.32.533-1.998.873l-.974.495-.483.244-.46.264c-.6.344-1.234.74-1.865 1.141-.63.402-1.206.811-1.758 1.272-.552.46-1.139.883-1.68 1.395l-.785.711c-.264.24-.521.516-.782.773-.26.258-.514.523-.764.788-.25.264-.518.525-.737.804a46.31 46.31 0 00-5.009 6.996 65.362 65.362 0 00-3.819 7.663 81.938 81.938 0 00-2.9 8.018c2.328-5.155 4.8-10.268 7.85-14.976a69.76 69.76 0 012.4-3.437 48.38 48.38 0 012.68-3.206c.474-.515.954-.993 1.437-1.474.244-.24.47-.481.734-.718l.792-.705c.494-.46 1.028-.87 1.597-1.299.57-.43 1.125-.81 1.69-1.2a22.53 22.53 0 011.745-1.089l.46-.271.46-.237.914-.474c.583-.3 1.22-.557 1.883-.839.606-.268 1.275-.488 1.926-.728a46.777 46.777 0 018.09-1.993c5.55-.86 11.2-1.141 16.857-1.568zm58.793 1.564c.341.435.652.895.929 1.374.315.444.607.911.881 1.375a33.001 33.001 0 011.467 2.948c.446 1.01.859 2.034 1.241 3.07.192.518.384 1.03.562 1.56l.686 1.522c-.11-.547-.244-1.086-.377-1.626-.134-.54-.37-1.03-.562-1.567a62.17 62.17 0 00-1.252-3.093 31.682 31.682 0 00-1.491-2.982 20.673 20.673 0 00-.895-1.416 8.815 8.815 0 00-1.189-1.165zm.754 77.777a23.402 23.402 0 01-.538-3.725c-.117-1.251-.203-2.505-.299-3.76-.178-2.508-.377-5.02-.62-7.529-.244-2.508-.562-5.017-1.029-7.505a36.982 36.982 0 00-.881-3.701 11.941 11.941 0 00-1.559-3.437c.55 1.127.939 2.325 1.155 3.56.26 1.224.452 2.461.627 3.702.175 1.24.322 2.488.453 3.735.13 1.248.271 2.498.387 3.749.261 2.502.494 5.007.813 7.509.15 1.254.342 2.505.545 3.749.116.622.24 1.244.387 1.859.131.614.318 1.215.559 1.794zm1.248 2.622c.267-.807.504-1.618.754-2.429l.747-2.423a43.656 43.656 0 011.714-4.763h-.03c-.444.721-.824 1.48-1.135 2.268-.343.784-.6 1.591-.854 2.406a41.484 41.484 0 00-1.196 4.941zm2.567-33.663a2.43 2.43 0 01-2.032.928 3.532 3.532 0 01-2.153-.65 9.762 9.762 0 01-1.756-1.557 45.678 45.678 0 01-1.583-1.783 41.606 41.606 0 01-2.849-3.818 38.405 38.405 0 01-1.262-2.024c-.397-.69-.867-1.337-1.289-2.017.309.739.655 1.46 1.029 2.182.373.721.829 1.374 1.272 2.038a41.802 41.802 0 002.872 3.845 39.89 39.89 0 001.595 1.797c.534.603 1.137 1.14 1.796 1.602.346.227.719.408 1.111.54.398.126.816.181 1.234.16a2.51 2.51 0 002.015-1.243z" fill="#414141"/><path d="M135.237 79.616c-.157-.12-.315-.234-.476-.344l-.463-.343a10.944 10.944 0 01-.956-.633 13.367 13.367 0 01-1.745-1.494 13.947 13.947 0 01-1.471-1.767c-.215-.314-.42-.637-.617-.969l-.343-.467a7.941 7.941 0 00-.343-.481c.11.378.254.742.401 1.11.199.343.412.687.635.993.45.644.953 1.248 1.505 1.807a14.27 14.27 0 001.782 1.53c.319.226.648.443.981.65.373.143.733.295 1.11.408zM129.8 82.08l.724 1.14a28.726 28.726 0 012.252 3.31c.449.766.867 1.56 1.248 2.364.188.406.37.811.541 1.22.172.41.422.794.638 1.193-.092-.444-.219-.877-.343-1.317-.175-.412-.343-.824-.548-1.233a30.309 30.309 0 00-2.726-4.656 47.04 47.04 0 00-.809-1.083c-.274-.357-.637-.64-.977-.938zM62.903 269.954c-.082-.708-.233-1.374-.367-2.062-.308-.615-.538-1.261-.805-1.893l-1.515-3.828c-.515-1.279-2.218-5.994-2.815-7.217-.302-.618-.59-1.24-.919-1.845l-.935-1.835.84 1.879.798 1.897c.528 1.265 2.16 6 2.602 7.296l1.31 3.907c.212.653.47 1.292.661 1.956a20.4 20.4 0 001.145 1.745zm27.137-.192l-.04.055c.078-.688.23-1.375.366-2.062.305-.615.535-1.261.802-1.89l1.516-3.829a65.306 65.306 0 011.666-3.78c.302-.618.59-1.24.919-1.845l.935-1.835-.236.533.27-.533-.84 1.88s-2.574 7.175-2.639 7.343l-1.145 3.093c-.12.323-.25.643-.374.962-.02.073-.044.141-.065.21l-.03.055c-.042.107-.076.21-.11.316-.308.476-.643.935-1.001 1.375a.29.29 0 01.007-.048zM19.146 90.994l-.267 3.285a151.12 151.12 0 01-.172 3.285 123.244 123.244 0 01-.6 6.55 154.608 154.608 0 01-.911 6.512l-.545 3.244-.422 3.272c.26-1.069.497-2.141.737-3.213l.545-3.251c.343-2.169.658-4.344.915-6.529.258-2.186.46-4.371.6-6.564.069-1.096.127-2.196.175-3.292 0-1.1-.017-2.196-.055-3.3zm-3.599 27.419c0-.405-.052-.807-.093-1.209-.04-.402-.171-.791-.27-1.182a22.58 22.58 0 00-1.687-4.533c-.182-.344-.374-.715-.573-1.065-.199-.351-.463-.664-.716-.98.178.365.363.722.531 1.086.168.365.387.688.566 1.055a22.383 22.383 0 011.937 5.66c.078.392.188.777.305 1.168zm92.958-108.196a13.504 13.504 0 00-3.123-3.416 20.836 20.836 0 00-3.994-2.406A36.59 36.59 0 0097.02 2.73l-2.23-.62-1.108-.292-1.176-.282A65.779 65.779 0 0074.031.134a74.28 74.28 0 00-9.198 1.313 65.779 65.779 0 00-8.95 2.564l-2.14.855-1.076.43-1.066.491-2.078.986-2.057 1.09a58.444 58.444 0 00-7.696 5.093 91.302 91.302 0 018.149-4.148l2.098-.904 2.139-.821 1.049-.402 1.077-.365 2.163-.728a81.207 81.207 0 0117.754-3.32l2.252-.113 1.145-.048 1.073-.02c1.574.023 3.055 0 4.532.11l2.277.116 2.27.237c1.473.12 2.937.402 4.49.625l1.07.196 1.124.234 2.225.47c1.468.332 2.914.756 4.33 1.269 2.814 1.014 5.505 2.533 7.518 4.873z" fill="#414141"/><path d="M142.43 108.015c1.186-4.395 2.149-8.849 2.938-13.344a128.51 128.51 0 001.549-13.612 101.04 101.04 0 00-.089-13.745 87.885 87.885 0 00-2.129-13.62 77.281 77.281 0 00-4.546-13.03 64.715 64.715 0 00-7.024-11.873 56.138 56.138 0 00-9.492-9.938c-.881-.756-1.848-1.396-2.743-2.062a29.379 29.379 0 00-2.89-1.87 23.716 23.716 0 00-3.085-1.495 16.054 16.054 0 00-3.298-.893c1.091.292 2.148.698 3.154 1.213a23.635 23.635 0 012.91 1.701c.926.643 1.841 1.296 2.691 2.017.851.722 1.776 1.416 2.568 2.193a60.35 60.35 0 018.838 10.113 68.45 68.45 0 016.53 11.722 78.074 78.074 0 014.32 12.715 89.825 89.825 0 012.191 13.278c.412 4.49.558 9 .438 13.506-.112 4.515-.42 9.027-.925 13.536-.494 4.505-1.18 8.996-1.906 13.488zM39.77 12.956a51.034 51.034 0 00-7.46 4.622 57.754 57.754 0 00-6.568 5.897A65.133 65.133 0 0015.499 37.86a80.133 80.133 0 00-3.662 8.051 74.074 74.074 0 00-2.684 8.416 63.267 63.267 0 00-1.594 8.68 40.301 40.301 0 00-.24 4.41c-.035 1.472.14 2.942.521 4.364a9.683 9.683 0 01-.1-1.086l-.016-.543.02-.543c0-.36.028-.722.058-1.082.031-.361.059-.722.107-1.08.157-1.44.394-2.866.685-4.281a83.753 83.753 0 012.16-8.385c.878-2.75 1.83-5.468 2.955-8.117 1.125-2.65 2.314-5.272 3.672-7.804.343-.633.661-1.275 1.028-1.897l1.07-1.87 1.138-1.828c.37-.615.795-1.196 1.18-1.8a70.406 70.406 0 0111.182-13.083 78.74 78.74 0 016.791-5.426z" fill="#414141"/><path d="M50.406 149.539l2.887 5H47.52l2.886-5zm-.5 22.403v-.51h1v.51h-1zm0-1.528v-1.018h1v1.018h-1zm0-2.036v-1.019h1v1.019h-1zm0-2.037v-1.018h1v1.018h-1zm0-2.037v-1.018h1v1.018h-1zm0-2.036v-1.019h1v1.019h-1zm0-2.037v-1.018h1v1.018h-1zm0-2.037v-1.018h1v1.018h-1zm0-2.036v-1.018h1v1.018h-1zm0-2.037v-1.018h1v1.018h-1zm0-2.036v-1.019h1v1.019h-1zm.5-2.546l5.774 10H44.633l5.773-10zm-1 22.403v-.51h2v.51h-2zm0-1.528v-1.018h2v1.018h-2zm0-2.036v-1.019h2v1.019h-2zm0-2.037v-1.018h2v1.018h-2zm0-2.037v-1.018h2v1.018h-2zm0-2.036v-1.019h2v1.019h-2zm0-2.037v-1.018h2v1.018h-2zm0-2.037v-1.018h2v1.018h-2zm0-2.036v-1.018h2v1.018h-2zm0-2.037v-1.018h2v1.018h-2zm0-2.036v-1.019h2v1.019h-2z" fill="#F31010"/><path d="M43.685 149.539l2.887 5H40.8l2.886-5zm-.5 22.403v-.51h1v.51h-1zm0-1.528v-1.018h1v1.018h-1zm0-2.036v-1.019h1v1.019h-1zm0-2.037v-1.018h1v1.018h-1zm0-2.037v-1.018h1v1.018h-1zm0-2.036v-1.019h1v1.019h-1zm0-2.037v-1.018h1v1.018h-1zm0-2.037v-1.018h1v1.018h-1zm0-2.036v-1.018h1v1.018h-1zm0-2.037v-1.018h1v1.018h-1zm0-2.036v-1.019h1v1.019h-1zm.5-2.546l5.774 10H37.912l5.773-10zm-1 22.403v-.51h2v.51h-2zm0-1.528v-1.018h2v1.018h-2zm0-2.036v-1.019h2v1.019h-2zm0-2.037v-1.018h2v1.018h-2zm0-2.037v-1.018h2v1.018h-2zm0-2.036v-1.019h2v1.019h-2zm0-2.037v-1.018h2v1.018h-2zm0-2.037v-1.018h2v1.018h-2zm0-2.036v-1.018h2v1.018h-2zm0-2.037v-1.018h2v1.018h-2zm0-2.036v-1.019h2v1.019h-2z" fill="#F31010"/><path d="M36.965 149.539l2.886 5h-5.773l2.887-5zm-.5 22.403v-.51h1v.51h-1zm0-1.528v-1.018h1v1.018h-1zm0-2.036v-1.019h1v1.019h-1zm0-2.037v-1.018h1v1.018h-1zm0-2.037v-1.018h1v1.018h-1zm0-2.036v-1.019h1v1.019h-1zm0-2.037v-1.018h1v1.018h-1zm0-2.037v-1.018h1v1.018h-1zm0-2.036v-1.018h1v1.018h-1zm0-2.037v-1.018h1v1.018h-1zm0-2.036v-1.019h1v1.019h-1zm.5-2.546l5.773 10H31.191l5.774-10zm-1 22.403v-.51h2v.51h-2zm0-1.528v-1.018h2v1.018h-2zm0-2.036v-1.019h2v1.019h-2zm0-2.037v-1.018h2v1.018h-2zm0-2.037v-1.018h2v1.018h-2zm0-2.036v-1.019h2v1.019h-2zm0-2.037v-1.018h2v1.018h-2zm0-2.037v-1.018h2v1.018h-2zm0-2.036v-1.018h2v1.018h-2zm0-2.037v-1.018h2v1.018h-2zm0-2.036v-1.019h2v1.019h-2zm82.87-5.219l-.43 5.758-4.771-3.251 5.201-2.507zm-13.027 18.233l.287-.421.826.563-.287.421-.826-.563zm.86-1.262l.573-.842.827.563-.574.842-.826-.563zm1.147-1.683l.573-.842.826.563-.573.842-.826-.563zm1.146-1.684l.574-.841.826.563-.573.842-.827-.564zm1.147-1.683l.573-.841.827.563-.574.841-.826-.563zm1.147-1.683l.573-.841.826.563-.573.841-.826-.563zm1.146-1.683l.574-.842.826.564-.573.841-.827-.563zm1.147-1.683l.573-.842.827.563-.574.842-.826-.563zm1.147-1.683l.573-.842.826.563-.573.842-.826-.563zm1.146-1.683l.574-.842.826.563-.573.842-.827-.563zm1.147-1.683l.573-.842.827.563-.574.842-.826-.563zm1.847-1.823l-.859 11.515-9.543-6.501 10.402-5.014zm-13.44 17.952l.286-.421 1.653 1.126-.286.421-1.653-1.126zm.86-1.263l.573-.841 1.653 1.126-.573.841-1.653-1.126zm1.146-1.683l.574-.841 1.653 1.126-.574.841-1.653-1.126zm1.147-1.683l.573-.842 1.653 1.126-.573.842-1.653-1.126zm1.147-1.683l.573-.842 1.653 1.126-.573.842-1.653-1.126zm1.146-1.683l.574-.842 1.653 1.126-.574.842-1.653-1.126zm1.147-1.683l.573-.842 1.653 1.126-.573.842-1.653-1.126zm1.147-1.684l.573-.841 1.653 1.126-.573.841-1.653-1.126zm1.146-1.683l.574-.841 1.653 1.126-.574.841-1.653-1.126zm1.147-1.683l.573-.841 1.653 1.126-.573.841-1.653-1.126zm1.147-1.683l.573-.842 1.653 1.126-.573.842-1.653-1.126z" fill="#F31010"/><path d="M113.28 143.082l-.429 5.757-4.772-3.25 5.201-2.507zm-13.026 18.233l.286-.421.827.563-.287.421-.826-.563zm.86-1.262l.573-.842.826.563-.573.842-.826-.563zm1.146-1.684l.574-.841.826.563-.573.841-.827-.563zm1.147-1.683l.573-.841.827.563-.574.841-.826-.563zm1.147-1.683l.573-.841.826.563-.573.841-.826-.563zm1.146-1.683l.574-.842.826.563-.573.842-.827-.563zm1.147-1.683l.573-.842.827.563-.574.842-.826-.563zm1.147-1.683l.573-.842.826.563-.573.842-.826-.563zm1.146-1.683l.574-.842.826.563-.573.842-.827-.563zm1.147-1.684l.573-.841.827.563-.574.841-.826-.563zm1.147-1.683l.573-.841.826.563-.573.841-.826-.563zm1.846-1.822l-.859 11.515-9.543-6.501 10.402-5.014zm-13.44 17.951l.287-.42 1.653 1.126-.287.42-1.653-1.126zm.86-1.262l.574-.842 1.653 1.127-.574.841-1.653-1.126zm1.147-1.683l.573-.842 1.653 1.126-.573.842-1.653-1.126zm1.147-1.683l.573-.842 1.653 1.126-.573.842-1.653-1.126zm1.146-1.683l.574-.842 1.653 1.126-.574.842-1.653-1.126zm1.147-1.683l.573-.842 1.653 1.126-.573.842-1.653-1.126zm1.147-1.684l.573-.841 1.653 1.126-.573.841-1.653-1.126zm1.146-1.683l.574-.841 1.653 1.126-.574.841-1.653-1.126zm1.147-1.683l.573-.841 1.653 1.126-.573.841-1.653-1.126zm1.147-1.683l.573-.842 1.653 1.126-.573.842-1.653-1.126zm1.146-1.683l.574-.842 1.653 1.126-.574.842-1.653-1.126z" fill="#F31010"/><path d="M107.726 139.298l-.43 5.757-4.771-3.25 5.201-2.507zm-13.027 18.233l.287-.421.826.563-.286.421-.827-.563zm.86-1.262l.574-.842.826.563-.573.842-.827-.563zm1.147-1.684l.573-.841.827.563-.574.842-.826-.564zm1.147-1.683l.573-.841.826.563-.573.841-.826-.563zm1.146-1.683l.574-.841.826.563-.573.841-.827-.563zm1.147-1.683l.573-.841.827.563-.574.841-.826-.563zm1.147-1.683l.573-.842.826.563-.573.842-.826-.563zm1.146-1.683l.574-.842.826.563-.573.842-.827-.563zm1.147-1.683l.573-.842.827.563-.574.842-.826-.563zm1.147-1.683l.573-.842.826.563-.573.842-.826-.563zm1.146-1.684l.574-.841.826.563-.573.841-.827-.563zm1.847-1.822l-.859 11.515-9.543-6.501 10.402-5.014zm-13.44 17.951l.287-.42 1.653 1.126-.287.421-1.653-1.127zm.86-1.262l.573-.841 1.653 1.126-.573.841-1.653-1.126zm1.147-1.683l.573-.842 1.653 1.126-.573.842-1.653-1.126zm1.146-1.683l.574-.842 1.653 1.126-.574.842-1.653-1.126zm1.147-1.683l.573-.842 1.653 1.126-.573.842-1.653-1.126zm1.147-1.683l.573-.842 1.653 1.126-.573.842-1.653-1.126zm1.146-1.684l.574-.841 1.653 1.126-.574.841-1.653-1.126zm1.147-1.683l.573-.841 1.653 1.126-.573.841-1.653-1.126zm1.147-1.683l.573-.841 1.653 1.126-.573.841-1.653-1.126zm1.146-1.683l.574-.842 1.653 1.127-.574.841-1.653-1.126zm1.147-1.683l.573-.842 1.653 1.126-.573.842-1.653-1.126z" fill="#F31010"/></g><defs><clipPath id="clip0_287_332"><path fill="#fff" transform="matrix(-1 0 0 1 152.899 0)" d="M0 0h152.899v269.954H0z"/></clipPath></defs></svg>