<svg width="153" height="270" fill="none" xmlns="http://www.w3.org/2000/svg"><g clip-path="url(#clip0_287_331)"><path d="M76.678 168.247c.218-.006.435-.035.648-.086.292-.132.55-.33.754-.578l-.323-.285c-.144.187-.328.34-.538.447a2.622 2.622 0 01-1.152.024.857.857 0 01-.49-.272l-.319.286c.189.211.442.354.72.405.226.043.456.063.686.059h.014z" fill="#414141"/><path d="M55.046 172.896a21.05 21.05 0 005.266-2.45c1.666-1.007 3.208-2.206 4.881-3.151a17.632 17.632 0 012.61-1.196 8.53 8.53 0 012.68-.608 5.281 5.281 0 012.571.639 8.394 8.394 0 012.215 1.673l.343-.261a6.6 6.6 0 00-2.164-2.103 5.4 5.4 0 00-2.986-.818 7.349 7.349 0 00-2.914.856 25.26 25.26 0 00-2.564 1.45c-1.666 1.031-3.15 2.292-4.765 3.361a19.226 19.226 0 01-5.173 2.608zm43.041 0a21.05 21.05 0 01-5.266-2.45c-1.666-1.007-3.209-2.206-4.882-3.151a17.628 17.628 0 00-2.609-1.196 8.53 8.53 0 00-2.68-.608 5.282 5.282 0 00-2.572.639 8.395 8.395 0 00-2.214 1.673l-.343-.261a6.6 6.6 0 012.163-2.103 5.4 5.4 0 012.986-.818 7.349 7.349 0 012.914.856c.882.433 1.738.917 2.564 1.45 1.666 1.031 3.15 2.292 4.765 3.361a19.226 19.226 0 005.174 2.608zm-36.857 4.567l1.828 1.66c1.2 1.113 2.482 2.179 3.993 2.729 1.532.538 3.14.827 4.762.855 1.526.055 7.98.055 9.506 0a15.156 15.156 0 004.762-.855c1.512-.55 2.794-1.616 3.994-2.729l1.827-1.66c.61-.577 1.371-.91 2.081-1.333-.686.443-1.447.804-2.026 1.392l-1.748 1.742c-1.149 1.172-2.4 2.323-3.97 2.986a14.63 14.63 0 01-1.156.498c-.39.155-.788.306-1.19.43-.802.247-1.63.404-2.467.467-.827.088-1.658.133-2.49.134h-4.74a23.786 23.786 0 01-2.49-.134 11.272 11.272 0 01-2.468-.467 14.666 14.666 0 01-1.19-.43c-.39-.158-.78-.312-1.154-.498-1.57-.663-2.822-1.814-3.97-2.986l-1.748-1.742c-.58-.588-1.337-.949-2.027-1.392.703.423 1.471.756 2.081 1.333zm-3.39-4.192c.165-.085.35-.124.535-.114.361.074.714.189 1.049.344.185.103.377.179.572.292.196.113.412.223.586.296a3.23 3.23 0 001.214.261c.422-.004.84-.079 1.238-.22l.603-.2.59-.237a12.83 12.83 0 012.44-.787 19.318 19.318 0 012.558-.343c.863-.051 1.73-.025 2.588.079.808.09 1.626.066 2.427-.072.415-.055.84-.117 1.276-.155a35.058 35.058 0 012.101 0c.435.038.86.1 1.275.155a8.66 8.66 0 002.427.072 14.45 14.45 0 012.589-.079c.859.057 1.713.172 2.557.343.838.18 1.656.444 2.44.787l.573.234.604.199c.397.142.816.216 1.237.22a3.21 3.21 0 001.214-.261c.175-.072.394-.196.586-.295.192-.1.388-.189.573-.293a4.78 4.78 0 011.049-.343c.185-.011.37.029.534.113.282.144.577.259.881.344-.27.345-.642.596-1.062.718-.41.134-.831.23-1.258.285-.425.062-.84.117-1.272.141a5.632 5.632 0 01-1.303-.086 16.968 16.968 0 01-2.458-.728 12.845 12.845 0 00-2.437-.584c-.415-.035-.833-.042-1.248-.069a24.533 24.533 0 00-1.241-.059 15.78 15.78 0 00-2.475.186 9.614 9.614 0 01-2.647 0 13.678 13.678 0 00-1.981-.124h-.45a13.677 13.677 0 00-1.98.124 9.615 9.615 0 01-2.647 0 15.745 15.745 0 00-3.686-.117c-.411.035-.833.035-1.248.069a12.93 12.93 0 00-2.437.584c-.8.305-1.621.548-2.458.729a5.75 5.75 0 01-1.303.086 14.552 14.552 0 01-1.271-.141 6.955 6.955 0 01-1.259-.286 2.093 2.093 0 01-1.062-.718c.3-.088.59-.205.867-.35z" fill="#414141"/><path d="M68.91 173.195l1.103.169c.737.134 1.485.175 2.222.25.737.076 1.487.045 2.228.069h4.186c.74-.024 1.484-.017 2.228-.069.744-.051 1.485-.116 2.222-.25l1.103-.169 1.1-.203c-.72.207-1.441.399-2.166.578-.72.203-1.46.316-2.197.464-.737.147-1.488.202-2.228.309a19.897 19.897 0 01-4.31 0c-.74-.107-1.487-.175-2.228-.309-.74-.134-1.478-.261-2.197-.464-.72-.203-1.447-.371-2.167-.578l1.1.203zm17.716-23.413a1.721 1.721 0 00-.507-1.343 2.374 2.374 0 00-1.275-.584 4.663 4.663 0 00-2.637.391 5.588 5.588 0 00-2.04 1.66 6.016 6.016 0 00-1.09 2.351 13 13 0 011.978-1.609 7.213 7.213 0 011.848-.862 4.72 4.72 0 01.85-.144c.136-.009.272-.009.408 0h.196l.192.02.37.069c0-.041 0-.076.048-.076a.5.5 0 01.144.062l1.515.065zm-8.049-4.309a3.918 3.918 0 01-3.13.471 3.97 3.97 0 01-.99-.45l-.1.134c.255.379.586.7.973.941.379.162.786.242 1.197.238.41.002.817-.078 1.196-.238.38-.247.71-.562.974-.931l-.12-.165zm-6.452-8.065c.055.783-.367 2.168-.651 2.873l.462.996c.2-.783.35-3.089.189-3.869zm12.341 49.636a23.695 23.695 0 00-.87-.687c-.295-.224-.62-.392-.93-.591h-.02c-.5-.241-.987-.512-1.515-.688a12.35 12.35 0 00-1.612-.539c-1.1-.282-2.23-.433-3.366-.45a14.306 14.306 0 00-3.377.343 11.56 11.56 0 00-1.625.502c-.521.194-1.031.416-1.529.667h-.024c-.315.192-.634.374-.942.57-.309.196-.6.437-.885.687.343-.106.686-.226 1.029-.343.343-.117.685-.213 1.045-.316h-.02c.528-.131 1.056-.268 1.584-.371.527-.104 1.028-.2 1.563-.279a21.645 21.645 0 016.311.083c.528.089 1.028.175 1.556.312.528.138 1.05.268 1.577.413h-.024c.343.113.686.233 1.029.343.343.11.692.227 1.045.344zM69.53 103.7c.339.407.634.85.88 1.319.255.468.48.949.687 1.437.352.839.66 1.695.922 2.567h-.6a25.906 25.906 0 00-.686-2.423 12.904 12.904 0 00-.569-1.454 7.272 7.272 0 00-.76-1.343l.126-.103zM.003 268.237c3.295-1.965 6.514-4.075 9.72-6.158a72.125 72.125 0 009.272-6.948 66.249 66.249 0 008.09-8.437 55.202 55.202 0 003.456-4.79 42.606 42.606 0 002.863-5.227 52.652 52.652 0 002.057-5.598l.418-1.433c.144-.474.285-.952.388-1.44.215-.969.466-1.945.647-2.907a74.854 74.854 0 001.283-11.805c0-1.975.054-3.955.04-5.924l-.219-5.893c-.267-3.925-.531-7.846-.87-11.753-.038 3.931 0 7.856.03 11.773l-.058 5.88-.253 5.842c-.515 7.759-1.903 15.512-5.02 22.509a40.863 40.863 0 01-2.704 5.031c-1.046 1.615-2.119 3.175-3.305 4.677a72.28 72.28 0 01-7.727 8.467c-1.371 1.323-2.825 2.564-4.302 3.78-1.478 1.217-2.996 2.351-4.556 3.481l-9.25 6.873zm62.9 1.76c-.082-.708-.233-1.375-.367-2.062-.308-.615-.538-1.261-.805-1.894l-1.515-3.828c-.515-1.278-2.218-5.993-2.815-7.217-.302-.618-.59-1.24-.919-1.845l-.935-1.835.84 1.88.798 1.897c.528 1.264 2.16 6 2.602 7.295l1.31 3.908c.212.652.47 1.292.661 1.955a20.56 20.56 0 001.145 1.746zM11.083 110.37a4.386 4.386 0 00-1.217-1.375 3.66 3.66 0 00-1.776-.646 3.267 3.267 0 00-3.304 1.808 7.173 7.173 0 00-.61 3.78c.098 1.231.308 2.45.627 3.643.593 2.371 1.467 4.618 1.93 6.962.463 2.344.548 4.763.655 7.175.106 2.413.188 4.859.733 7.282l.21.904.253.876c.082.299.189.619.295.907l.315.853c.134.323.25.577.38.862.131.285.258.56.395.839.275.559.581 1.103.915 1.629a23.257 23.257 0 004.834 5.611 21.809 21.809 0 006.418 3.605l.253-.581a30.496 30.496 0 01-5.828-4.01 27.27 27.27 0 01-4.49-5.364 24.723 24.723 0 01-2.921-6.378 35.4 35.4 0 01-1.142-7.055c-.188-2.406-.322-4.811-.644-7.244-.323-2.433-.95-4.791-1.457-7.117a36.407 36.407 0 01-.607-3.488 10.285 10.285 0 01-.086-1.719 4.767 4.767 0 01.343-1.601c.198-.486.532-.904.96-1.206a3.055 3.055 0 011.56-.461 3.717 3.717 0 012.993 1.533l.013-.024z" fill="#414141"/><path d="M16.877 139.394a10.517 10.517 0 00-.442-.271l-.419-.296-.435-.258-.411-.292a6.984 6.984 0 01-2.349-3.22l-.144-.484-.106-.492-.144-.491a9.128 9.128 0 00-.106-.512 8.482 8.482 0 00-.059.526v.532l.11.519.155.505a7.01 7.01 0 00.983 1.866 7.203 7.203 0 001.475 1.506l.431.306c.151.089.299.185.453.271l.504.168c.161.045.332.083.504.117zm-.333 5.492l-.452-.509a6.215 6.215 0 01-1.964-2.567 6.567 6.567 0 01-.213-.619c-.062-.209-.199-.402-.302-.611a4.774 4.774 0 000 .687 6.4 6.4 0 00.226.649 6.215 6.215 0 001.543 2.241c.165.158.343.306.518.447.206.113.421.207.644.282zm119.043-5.492c.172-.034.343-.072.514-.117l.504-.168c.151-.086.299-.182.453-.271l.415-.306a7.287 7.287 0 001.47-1.506c.42-.568.752-1.197.984-1.866l.154-.505.134-.519v-.532c0-.179-.034-.344-.058-.526a9.744 9.744 0 00-.106.512l-.141.491-.11.492-.144.484a6.714 6.714 0 01-.939 1.78 6.994 6.994 0 01-1.409 1.44l-.411.292-.432.258-.422.296c-.161.096-.308.175-.456.271zm7.532-21.158l.089 1.491c.072.488.134.98.188 1.471a37.516 37.516 0 01.186 5.918c-.024.495-.055.989-.096 1.481v1.495c.123-.485.219-.976.315-1.468.041-.498.072-.993.099-1.491.044-.997.051-1.993.021-2.99a37.07 37.07 0 00-.209-2.979c-.055-.498-.12-.99-.189-1.485a21.128 21.128 0 00-.404-1.443zm-7.199 26.65c.224-.065.442-.15.651-.255.178-.141.343-.288.521-.446.331-.313.628-.658.888-1.031.261-.379.48-.785.655-1.21a7.78 7.78 0 00.223-.65 4.922 4.922 0 000-.687c-.103.21-.189.416-.299.612-.109.196-.133.416-.216.618a6.205 6.205 0 01-1.467 2.141c-.16.14-.327.272-.5.396l-.456.512zm-120.373-26.43c0-.406-.052-.808-.096-1.21-.045-.402-.168-.79-.268-1.182a22.485 22.485 0 00-1.686-4.533c-.182-.343-.374-.714-.573-1.065-.199-.35-.463-.663-.716-.979.178.364.363.721.531 1.086.168.364.387.687.566 1.055a22.352 22.352 0 011.937 5.659c.078.392.188.777.305 1.169zm.607 7.893c.082 1.241.192 2.478.342 3.712.151 1.234.309 2.457.525 3.68a54.844 54.844 0 001.837 7.176c.744 2.364 1.519 4.732 2.225 7.123.706 2.392 1.197 4.863 1.817 7.255.62 2.392 1.23 4.811 1.92 7.172.347 1.186.71 2.366 1.09 3.539.374 1.179.792 2.33 1.19 3.523a59.423 59.423 0 002.608 6.872 34.887 34.887 0 003.713 6.231l.034.044.028.045a36.122 36.122 0 004.141 5.498c1.543 1.76 3.174 3.406 4.8 5.176a137.405 137.405 0 009.914 9.941c.428.396.88.77 1.326 1.155.446.385.871.753 1.337 1.117a20.168 20.168 0 002.79 2.02 39.485 39.485 0 006.309 2.952 47.98 47.98 0 006.743 1.918c.572.117 1.148.227 1.714.316.566.089 1.159.189 1.742.241.712.065 3.582.065 4.295 0a23.152 23.152 0 001.742-.241 41.709 41.709 0 001.714-.316 47.967 47.967 0 006.743-1.914 39.481 39.481 0 006.307-2.952 20.065 20.065 0 002.794-2.021 36.08 36.08 0 001.334-1.117c.45-.388.898-.759 1.327-1.154a137.6 137.6 0 009.917-9.942c1.608-1.77 3.243-3.416 4.783-5.175a36.014 36.014 0 004.141-5.499l.027-.044.035-.045a34.899 34.899 0 003.712-6.23 59.348 59.348 0 002.609-6.873c.398-1.192.819-2.344 1.193-3.522.374-1.179.741-2.354 1.087-3.54.685-2.375 1.316-4.77 1.923-7.172s1.107-4.835 1.817-7.254c.71-2.419 1.495-4.763 2.245-7.127a54.237 54.237 0 001.848-7.176 55.69 55.69 0 00.525-3.68c.133-1.234.257-2.471.343-3.712 0 1.244 0 2.488-.072 3.732a48.558 48.558 0 01-.343 3.726 54.57 54.57 0 01-1.481 7.35c-.655 2.406-1.337 4.787-1.944 7.189s-1.028 4.811-1.601 7.261a136.205 136.205 0 01-3.966 14.434 61.51 61.51 0 01-2.643 7.068 34.314 34.314 0 01-3.864 6.53 38.108 38.108 0 01-4.337 5.697c-.792.887-1.604 1.756-2.42 2.612l-1.234 1.271c-.415.416-.802.825-1.207 1.265a164.88 164.88 0 01-4.971 5.069 98.81 98.81 0 01-5.272 4.766c-.449.389-.909.753-1.371 1.124-.463.371-.933.763-1.406 1.11a20.656 20.656 0 01-2.996 2.003 36.932 36.932 0 01-6.589 2.749 47.748 47.748 0 01-6.915 1.581 39.627 39.627 0 01-11.364 0 47.742 47.742 0 01-6.914-1.581 37.06 37.06 0 01-6.586-2.749 20.56 20.56 0 01-3-2.003c-.473-.344-.953-.742-1.405-1.11-.453-.368-.919-.735-1.372-1.124a103.442 103.442 0 01-5.269-4.766 150.07 150.07 0 01-4.97-5.069c-.408-.44-.796-.849-1.21-1.265l-1.235-1.271a97.216 97.216 0 01-2.416-2.612 38.1 38.1 0 01-4.34-5.697 34.448 34.448 0 01-3.864-6.53 60.67 60.67 0 01-2.64-7.068 135.35 135.35 0 01-3.97-14.434c-.555-2.436-.987-4.886-1.6-7.261-.614-2.374-1.286-4.787-1.944-7.189a54.508 54.508 0 01-1.481-7.35 67.883 67.883 0 01-.343-3.726c-.082-1.244-.058-2.488-.051-3.732z" fill="#414141"/><path d="M152.899 268.237c-3.294-1.965-6.513-4.075-9.715-6.158a71.901 71.901 0 01-9.277-6.948 66.518 66.518 0 01-8.09-8.437 55.677 55.677 0 01-3.456-4.79 43.624 43.624 0 01-2.862-5.227 53.273 53.273 0 01-2.057-5.598l-.418-1.433c-.141-.474-.285-.952-.384-1.44-.216-.969-.467-1.945-.652-2.907a75.353 75.353 0 01-1.282-11.805c0-1.975-.055-3.955-.038-5.924l.22-5.893c.267-3.925.528-7.846.867-11.753.041 3.931 0 7.856-.031 11.773l.062 5.88.25 5.842c.515 7.759 1.903 15.512 5.019 22.509a41.813 41.813 0 002.705 5.031c1.049 1.615 2.119 3.175 3.305 4.677a72.235 72.235 0 007.727 8.467 77.22 77.22 0 004.306 3.78 92.83 92.83 0 004.545 3.481l9.256 6.873zM141.82 110.37a4.292 4.292 0 011.217-1.375 3.646 3.646 0 011.772-.646 3.489 3.489 0 011.92.368 3.467 3.467 0 011.391 1.443 7.144 7.144 0 01.611 3.78c-.1 1.236-.311 2.46-.631 3.657-.597 2.371-1.467 4.618-1.93 6.962-.463 2.344-.552 4.763-.658 7.175-.107 2.413-.185 4.859-.734 7.282l-.206.904-.257.876c-.079.299-.188.619-.295.907l-.312.853c-.137.323-.253.577-.38.862-.127.285-.261.56-.398.839a16.455 16.455 0 01-.915 1.628 23.247 23.247 0 01-4.83 5.612 21.87 21.87 0 01-6.418 3.605l-.257-.581a30.386 30.386 0 005.828-4.01 27.198 27.198 0 004.491-5.382 24.577 24.577 0 002.924-6.378 35.912 35.912 0 001.142-7.055c.185-2.405.322-4.811.644-7.244s.95-4.79 1.454-7.117c.253-1.165.469-2.323.61-3.488.073-.569.102-1.144.086-1.718a4.861 4.861 0 00-.343-1.601 2.751 2.751 0 00-.96-1.206 3.036 3.036 0 00-1.557-.461 3.719 3.719 0 00-2.996 1.533l-.013-.024zm-77.881 35.54c.301-1 .703-1.966 1.2-2.884a13.793 13.793 0 011.775-2.543l-.044.08c.034-.045.068-.093.106-.138-.487.9-.921 1.829-1.3 2.78a22.735 22.735 0 00-.932 2.89c-.126.484-.22.975-.28 1.471a7.036 7.036 0 000 1.471c.046.481.188.949.417 1.374.233.406.595.722 1.029.897v-.024c.11.066.28.148.442.227.25.11.531.217.686.289.154.072.28.11.428.154a.971.971 0 00.439.076.408.408 0 01-.171.041 4.082 4.082 0 01-.717 0 4.055 4.055 0 01-.466-.048 4.979 4.979 0 01-.933-.22 3.86 3.86 0 01-1.58-1.165 3.932 3.932 0 01-.5-1.556 7.353 7.353 0 01.4-3.172z" fill="#414141"/><path d="M75.025 152.023a8.072 8.072 0 00-1.443-2.134 6.919 6.919 0 00-2.057-1.57 3.39 3.39 0 00-2.602-.244 2.603 2.603 0 00-1.131.735 1.515 1.515 0 00-.391 1.354l.411-.103a1.043 1.043 0 01.858-.478c.264-.032.53-.032.795 0 .194.045.384.103.569.176.202.075.432.158.685.271.511.234 1.08.519 1.76.883.678.364 1.37.718 2.358 1.193l.188-.083zm12.9-.522a13.234 13.234 0 01-4.765 1.058 12.336 12.336 0 004.3-1.852c.62-.361 1.652-1.464 1.881-2.196a6.616 6.616 0 00.429-2.155v-.168.072-.072.158c.157.751.179 1.523.065 2.282a3.851 3.851 0 01-.405 1.189 3.755 3.755 0 01-1.505 1.684zm-15.752-25.238c.069-2.553.165-5.106.106-7.656-.082-2.722-.343-5.436-.562-8.151l.319-.024c.092.007.185.007.278 0 .116 2.721.28 5.447.26 8.179-.034 2.56-.23 5.106-.39 7.652 0 .176-.018.344-.025.519v-.244c0 .079 0 .162-.017.244.014-.171.024-.347.031-.519zm-11.645-11.852a18.235 18.235 0 00-2.863-2.684 19.805 19.805 0 00-3.329-2.062 17.383 17.383 0 00-3.688-1.312 19.154 19.154 0 00-3.891-.457 27.17 27.17 0 00-7.724 1.158 53.753 53.753 0 00-7.336 2.677l.02.048c2.465-.828 4.889-1.77 7.388-2.471a32.514 32.514 0 013.788-.852 23.052 23.052 0 013.864-.323 18.95 18.95 0 013.843.419c1.261.29 2.486.723 3.65 1.289a19.328 19.328 0 013.305 2.027c1.028.793 2 1.655 2.91 2.581l.063-.038zm-21.725 2.667a14.949 14.949 0 01-3.54-1.464 9.784 9.784 0 01-1.564-1.114 7.256 7.256 0 01-1.282-1.429l-.035.021a8.077 8.077 0 002.798 2.659 10.694 10.694 0 003.606 1.402l.017-.075zm2.427.216c-.116 0-.233-.02-.342-.024a2.85 2.85 0 01-.343-.037c-.233 0-.456-.059-.686-.083l-.02.079c.107.064.222.114.342.148.113.03.228.052.343.065.122.011.245.011.367 0 .118-.015.233-.046.343-.093l-.004-.055zm18.886-5.178a92.64 92.64 0 00-4.666-4.598c-.394-.378-.819-.725-1.237-1.079-.409-.366-.835-.71-1.279-1.031a14.17 14.17 0 00-2.91-1.554l-.113.303c1.015.369 1.984.857 2.886 1.453.446.309.875.64 1.286.994.421.343.85.687 1.254 1.03a92.963 92.963 0 014.765 4.485l.014-.003zm-11.001-8.568a17.423 17.423 0 00-3.517-.704 17.565 17.565 0 00-3.603.038 15.985 15.985 0 00-3.507.807c-1.135.4-2.211.949-3.202 1.633l.096.144a15.8 15.8 0 016.657-2.186 18.57 18.57 0 013.521-.027c1.17.1 2.33.303 3.466.605l.09-.31zm-14.755 2.478l-1.076.842.052.076 1.169-.708-.145-.21z" fill="#414141"/><path d="M57.154 113.342a4.825 4.825 0 01-.298.753c-.06.12-.13.235-.21.344a.883.883 0 01-.294.275.852.852 0 00.374-.2c.113-.09.216-.191.308-.302.19-.215.36-.445.511-.687l-.39-.183zm.586-.302a50.892 50.892 0 00-3.49-2.694l-.178.264a50.038 50.038 0 013.583 2.533l.085-.103zm-12.142 4.076l2.89-.303.562-.058v.258l-.538.058a62.46 62.46 0 01-2.897.237c-.967.062-1.937.107-2.904.141v-.076c.957-.072 1.92-.147 2.887-.257zm-.926 4.594a16.725 16.725 0 01-3.932-.278 11.12 11.12 0 01-1.885-.536 6.112 6.112 0 01-1.673-.949l-.203.248c.545.404 1.15.719 1.793.931.633.211 1.282.368 1.94.467a16.61 16.61 0 003.96.124v-.007zm-9.667-2.773l-1.56-.976-.068.1 1.443 1.137.185-.261zm7.964-13.454a4.287 4.287 0 001.974 2.749l.151-.271a4.116 4.116 0 01-2.115-2.495l-.01.017zm-.402-.55a4.824 4.824 0 00-.017 1.629c.044.275.126.542.244.794a.89.89 0 00.613.546v-.037a2.13 2.13 0 01-.476-.588 3.021 3.021 0 01-.271-.739 4.063 4.063 0 01-.1-1.601l.007-.004zm-1.172 1.296c-.064.403-.028.817.106 1.203.07.195.172.377.302.539a.681.681 0 00.538.303v-.038a6.747 6.747 0 01-.425-.375 1.782 1.782 0 01-.308-.477 2.07 2.07 0 01-.22-1.152l.007-.003zm-6.051 1.512c.195.425.481.803.837 1.107.183.153.39.277.61.367a.801.801 0 00.706 0v-.038a3.242 3.242 0 01-.64-.113 2.209 2.209 0 01-.587-.306 2.742 2.742 0 01-.909-1.01l-.017-.007zm3.182-.533c.01.354.1.701.264 1.014.09.16.206.303.343.426a.589.589 0 00.51.172v-.041c-.15-.096-.27-.172-.404-.265a1.514 1.514 0 01-.343-.343 1.866 1.866 0 01-.367-.945l-.003-.018zm6.386-1.323a2.286 2.286 0 00-.175 1.031c.012.18.055.357.127.523a.571.571 0 00.391.367l.02-.031c-.095-.151-.174-.271-.256-.409a1.429 1.429 0 01-.155-.467 1.878 1.878 0 01.048-1.014zm1.073.255a1.802 1.802 0 00-.027.855c.037.145.096.283.175.409a.458.458 0 00.373.241l.018-.038a3.072 3.072 0 00-.25-.303 1.214 1.214 0 01-.193-.343 1.38 1.38 0 01-.085-.815l-.01-.006zm4.543.381a1.746 1.746 0 00-.323.794 1.29 1.29 0 00.021.443.455.455 0 00.267.344l.031-.028a3.557 3.557 0 00-.133-.371 1.213 1.213 0 01-.059-.391 1.377 1.377 0 01.2-.794l-.004.003zm-18.509 1.481c-.002.33.062.658.189.962.118.31.282.601.486.863.206.267.454.499.734.687.278.195.61.297.95.292v-.037a7.648 7.648 0 01-.864-.403 2.864 2.864 0 01-.727-.608 2.79 2.79 0 01-.768-1.742v-.014zm-2.324 1.382c.138.299.334.567.576.79.24.229.51.423.805.574.3.151.622.252.953.299.333.058.676.01.98-.138v-.037a7.976 7.976 0 01-.952 0 2.882 2.882 0 01-.916-.244 2.789 2.789 0 01-1.43-1.251l-.016.007zm3.5-.385c.36.341.784.607 1.248.783.236.09.485.143.737.155a.836.836 0 00.381-.041.833.833 0 00.322-.21l-.025-.034a2.245 2.245 0 01-1.37 0 3.182 3.182 0 01-1.283-.67l-.01.017zm-3.901 1.852c.394.302.843.522 1.323.65.244.063.496.088.747.075a.825.825 0 00.686-.323l-.028-.031a2.624 2.624 0 01-.661.186 2.325 2.325 0 01-.706-.035 3.14 3.14 0 01-1.344-.529l-.017.007zm7.494-3.426c.112.451.298.881.552 1.271.13.197.286.376.462.533a.735.735 0 00.686.206v-.041a2.004 2.004 0 01-.562-.299 2.46 2.46 0 01-.467-.474 3.364 3.364 0 01-.65-1.196h-.021zm1.364-1.753c.105.331.253.645.442.935.184.294.393.573.624.832.235.256.497.486.782.687a1.148 1.148 0 001.004.24v-.041a2.13 2.13 0 01-.901-.343 4.8 4.8 0 01-.782-.64 4.467 4.467 0 01-1.148-1.677l-.021.007z" fill="#414141"/><path d="M41.55 105.281c.092.573.261 1.131.503 1.659a3.8 3.8 0 001.029 1.447l.185-.261a3.651 3.651 0 01-1.053-1.261 6.56 6.56 0 01-.634-1.588l-.03.004zm-.23 14.096a2 2 0 01.16-1.076 4.06 4.06 0 01.635-.893l-.086-.079a1.73 1.73 0 00-.377.422c-.105.16-.194.331-.264.509a1.96 1.96 0 00-.079 1.12l.01-.003zm-.522-.254c.026-.362.129-.714.302-1.031.08-.16.182-.308.305-.437.124-.125.27-.228.429-.302v-.038a.622.622 0 00-.521.247 1.98 1.98 0 00-.302.485 2.857 2.857 0 00-.213 1.089v-.013zm-2.159-.808a1.378 1.378 0 01.483-1.076 2.2 2.2 0 01.343-.209v-.041a.595.595 0 00-.398.171 1.185 1.185 0 00-.26.344 1.376 1.376 0 00-.165.814l-.003-.003zm-5.382-1.997a2.037 2.037 0 011.683-.522c.198.038.39.104.569.196l.024-.034a1 1 0 00-.576-.265 1.858 1.858 0 00-.63.031c-.412.08-.788.285-1.077.588l.007.006zm-.881-1.453a2.05 2.05 0 011.203-.045c.195.048.38.129.548.241.167.113.317.25.446.405l.034-.02a.999.999 0 00-.421-.475 1.836 1.836 0 00-.59-.223 2.052 2.052 0 00-1.224.11l.004.007zm6.87 4.144a2.472 2.472 0 01.685-1.759l-.106-.097a2.584 2.584 0 00-.624 1.86l.045-.004zm-2.74-1.014a1.376 1.376 0 01.484-1.075c.108-.08.223-.151.343-.213v-.038a.615.615 0 00-.398.168 1.208 1.208 0 00-.26.344 1.376 1.376 0 00-.165.814h-.004zm.306.605a2.477 2.477 0 01.685-1.763l-.103-.096a2.549 2.549 0 00-.623 1.859h.04zm1.162-11.935a3.813 3.813 0 002.907 2.227l.034-.316a3.643 3.643 0 01-2.938-1.911h-.003zm1.738 2.227a7.46 7.46 0 01-2.225-.687 4.792 4.792 0 01-.97-.643 2.76 2.76 0 01-.727-.921c.144.379.356.728.624 1.031.275.302.597.558.953.756a6.8 6.8 0 002.31.736l.035-.272zm-1.951.557a1.23 1.23 0 00-.343 0h-.36c-.24 0-.48-.017-.723-.031a4.822 4.822 0 01-1.42-.168 3.26 3.26 0 01-1.223-.719 3.146 3.146 0 01-.82-1.185c.126.486.377.93.727 1.288.348.367.772.652 1.241.836.477.154.977.227 1.478.216.243 0 .49.024.737.024h.374c.128-.017.258-.017.387 0l-.055-.261zm-2.256.759a2.002 2.002 0 01-.737-.144l-.71-.234-.685-.237-.343-.12c-.123-.027-.226-.107-.363-.089.096.103.223.116.343.178l.343.145c.23.096.455.199.685.288l.686.275c.227.105.47.172.72.196l.061-.258zm-1.563.554a2 2 0 01-.685.017 5.14 5.14 0 01-.686-.124 4.713 4.713 0 01-.686-.217 2.36 2.36 0 01-.634-.343c.166.185.363.338.583.453.219.121.448.221.686.299.234.085.476.147.723.186.254.05.517.017.75-.096l-.05-.175zm19.541-2.471a.743.743 0 00-.22.244 1.435 1.435 0 00-.16.639.344.344 0 00.143.309l.127-.051a1.155 1.155 0 01.127-1.124l-.017-.017zm-2.057-1.031a1.84 1.84 0 00.048.866c.079.288.222.555.418.78l.13-.124a1.862 1.862 0 01-.46-.687 2.016 2.016 0 01-.136-.835zm-1.44.914c-.189-.32-.377-.632-.545-.959a3.525 3.525 0 01-.388-1.031c.032.372.12.736.265 1.079.13.344.284.688.428 1.031l.24-.12zm-2.239-3.034a3.582 3.582 0 00.076 1.604c.13.535.357 1.042.668 1.495l.25-.199a4.273 4.273 0 01-.757-1.344 3.472 3.472 0 01-.22-1.553l-.017-.003zm-1.343.161a2.663 2.663 0 00.126 1.605c.198.53.55.987 1.012 1.313l.175-.289a2.704 2.704 0 01-1.306-2.625l-.007-.004zm-.981 1.705l.607 1.178.254-.171-.86-1.007zm-6.315-2.495c.22.945.45 1.921 1.029 2.749.288.416.67.759 1.114 1a2.3 2.3 0 001.505.265l-.065-.313a2.03 2.03 0 01-1.334-.169 3.038 3.038 0 01-1.093-.879c-.6-.749-.885-1.712-1.156-2.653zm4.114 14.849a2.143 2.143 0 010-1.031c.037-.166.1-.325.189-.471l.14-.203c.055-.062.117-.113.179-.178v-.035a.693.693 0 00-.405.344 1.725 1.725 0 00-.165.512c-.057.345-.03.699.083 1.031l-.02.031zm-8.492-2.234a2.09 2.09 0 01.796-.639c.151-.073.313-.122.48-.145h.247a2.4 2.4 0 01.254.028v-.038a.69.69 0 00-.529-.093 1.595 1.595 0 00-.503.186 2.13 2.13 0 00-.765.708l.02-.007zm12.435 1.189c-.006-.275.07-.546.219-.777.072-.119.164-.224.27-.313.108-.08.223-.15.344-.209v-.041a.591.591 0 00-.395.171 1.2 1.2 0 00-.26.344 1.379 1.379 0 00-.165.815l-.013.01zm-1.135.591a1.912 1.912 0 01-.21-.921 1.421 1.421 0 01.308-.863l-.023-.03a.658.658 0 00-.305.398 1.526 1.526 0 00-.055.495c.011.327.107.646.278.924l.007-.003zm-1.896-.433c.04-.268.16-.519.343-.718.09-.099.197-.181.315-.244.12-.06.245-.108.374-.144v-.042a.615.615 0 00-.422.093 1.27 1.27 0 00-.319.285 1.37 1.37 0 00-.311.77h.02zm-8.341-.529c.021-.311.13-.61.312-.863.088-.124.196-.232.32-.319.124-.085.259-.154.4-.207v-.041a.683.683 0 00-.46.162 1.47 1.47 0 00-.318.364c-.171.27-.262.584-.26.904h.006zm1.625.289c.046-.272.171-.523.36-.722a1.2 1.2 0 01.316-.241c.12-.059.245-.109.373-.147v-.038a.625.625 0 00-.421.089 1.425 1.425 0 00-.631 1.059h.003z" fill="#414141"/><path d="M37.75 118.298a2.06 2.06 0 01.227-.687 1.37 1.37 0 01.21-.296.996.996 0 01.284-.206v-.038a.438.438 0 00-.192.045.436.436 0 00-.151.127c-.083.104-.15.22-.199.344a1.965 1.965 0 00-.171.735l-.007-.024zm12.84-9.499a1.638 1.638 0 01-.275-.165c-.086-.082-.182-.106-.26-.254-.08-.148-.182-.141-.282-.165-.1-.016-.2-.028-.301-.034-.408 0-.816.017-1.214-.021a29.733 29.733 0 00-2.4-.075c-.802 0-1.603.051-2.4.151-.397.058-.791.127-1.185.203-.395.075-.8.12-1.111.577l.13.608a4.13 4.13 0 011.118-.344c.38-.075.764-.147 1.152-.209.77-.128 1.545-.216 2.324-.261a24.785 24.785 0 012.345-.021c.39.021.785.024 1.175.076l.292.034c.1 0 .199.031.281.089.176.092.368.149.566.169l.044-.358zM26.352 97.638c2.712-1.031 5.108-2.794 7.885-3.584 1.38-.408 2.795-.69 4.227-.842a14.138 14.138 0 014.258.21c2.797.666 5.601 1.432 8.388 2.216 2.787.783 5.547 1.66 8.297 2.577-1.372-.48-2.719-1.007-4.08-1.505-1.361-.498-2.722-1.014-4.083-1.522l-4.08-1.578a82.783 82.783 0 00-2.056-.76l-1.029-.363c-.343-.12-.685-.241-1.076-.361a11.288 11.288 0 00-4.704-.423 16.89 16.89 0 00-2.252.519c-.73.213-1.443.454-2.14.732a19.053 19.053 0 00-3.945 2.23 66.53 66.53 0 00-1.786 1.258c-.59.426-1.196.811-1.824 1.196z" fill="#414141"/><path d="M65.989 99.476c-.957-1.687-1.714-3.501-3.041-4.99a6.41 6.41 0 00-2.458-1.611c-.905-.382-1.834-.687-2.743-1.031a55.11 55.11 0 00-5.618-1.625c-1.886-.468-3.771-.9-5.684-1.31-1.913-.409-3.806-.766-5.753-1.03a7.006 7.006 0 00-1.522-.042c-.514.058-1.015.2-1.484.42a20.47 20.47 0 00-2.537 1.518 43.037 43.037 0 00-8.66 7.815 80.692 80.692 0 014.601-3.57 66.08 66.08 0 012.4-1.595c.809-.52 1.618-1 2.437-1.468.412-.23.826-.453 1.241-.666.382-.206.774-.39 1.176-.554a2.97 2.97 0 01.994-.206c.38-.017.76.007 1.135.072l5.663.908 2.866.44 1.43.233 1.436.217c1.903.309 3.83.608 5.653 1.096.946.285 1.889.519 2.79.821.902.303 1.787.688 2.435 1.375a13.235 13.235 0 011.751 2.292c.528.797.984 1.66 1.492 2.491zm-6.599 16.031a24.422 24.422 0 00-7.313.093l.059.316a24.153 24.153 0 017.243-.319l.01-.09zm-7.683.145c-1.642.23-3.28.46-4.93.594a26.604 26.604 0 01-4.936 0 25.13 25.13 0 01-4.82-1.031c-.785-.25-1.544-.58-2.263-.983a4.25 4.25 0 01-1.762-1.666l-.038.017a4.193 4.193 0 001.714 1.794c.718.433 1.476.796 2.263 1.082 1.571.574 3.206.956 4.868 1.138 1.664.153 3.338.153 5.002 0 1.659-.134 3.304-.371 4.947-.605l-.045-.34zm-21.933-3.966a42.572 42.572 0 017.298-2.708 39.772 39.772 0 017.655-1.354c2.571-.192 5.235-.137 7.645.846a18.169 18.169 0 013.397 1.876 37.562 37.562 0 013.086 2.385c-1.934-1.718-4.001-3.385-6.421-4.416a12.66 12.66 0 00-3.809-.904 24.839 24.839 0 00-3.915 0 38.94 38.94 0 00-7.682 1.409 38.53 38.53 0 00-7.254 2.866z" fill="#414141"/><path d="M31.782 111.727c2.277-.749 4.533-1.515 6.83-2.044a36.476 36.476 0 016.986-.918 20.38 20.38 0 016.856.9 29.786 29.786 0 016.387 3.052 20.146 20.146 0 00-6.109-3.835 17.398 17.398 0 00-3.535-.969 20.445 20.445 0 00-3.657-.227c-2.421.095-4.82.497-7.141 1.196a34.268 34.268 0 00-6.617 2.845zm8.331 5.444c-.686-.255-1.371-.471-2.04-.708a25.039 25.039 0 01-1.971-.77c-.641-.276-1.261-.6-1.855-.969a10.453 10.453 0 01-1.673-1.32c.32.677.789 1.271 1.372 1.739.573.478 1.211.87 1.895 1.165.676.292 1.38.513 2.102.66a9.703 9.703 0 002.17.203zm8.851-.214a12.63 12.63 0 00-1.895-.017c-.628.028-1.248.09-1.862.131-.614.041-1.227.096-1.844.13-.617.035-1.231.042-1.872.052.59.255 1.218.415 1.858.474.635.059 1.274.059 1.91 0 .63-.055 1.256-.149 1.875-.282.62-.122 1.231-.285 1.83-.488z" fill="#414141"/><path d="M43.884 111.511a2.19 2.19 0 01.61-1.564 2.123 2.123 0 011.553-.656 2.177 2.177 0 012.18 2.22 2.098 2.098 0 01-.685 1.498 2.179 2.179 0 01-1.485.557 2.29 2.29 0 01-1.467-.571 2.056 2.056 0 01-.706-1.484zm3.404.027a.789.789 0 10-1.218.713c.129.085.28.13.433.129a.817.817 0 00.788-.842h-.003zm-1.241-1.515a1.393 1.393 0 00-1.001.45 1.702 1.702 0 00-.247.344 1.532 1.532 0 011.913-.484c.216.105.403.259.549.449a1.838 1.838 0 00-.216-.323 1.327 1.327 0 00-.995-.45l-.003.014z" fill="#414141"/><path d="M41.272 108.72h1.155a4.33 4.33 0 00-.723 4.75 5.082 5.082 0 001.8 2.061 5.54 5.54 0 001.607.688c.244.042.49.068.737.079v.086h-.103v.055a8.18 8.18 0 01-.624-.11 5.622 5.622 0 01-3.88-2.299 4.655 4.655 0 01-.83-2.815 4.701 4.701 0 01.86-2.495zm6.592 7.251a4.85 4.85 0 002.235-2.728c.074-.217.134-.439.178-.663.04-.228.067-.457.08-.688a5.01 5.01 0 00-.104-1.374 6.12 6.12 0 00-.997-2.169l.685.017.113.158h.326c.255.276.476.582.658.911.245.427.419.892.515 1.375.05.244.077.493.079.742a4.849 4.849 0 01-.08.735 5.755 5.755 0 01-.184.715 5.06 5.06 0 01-.306.67c-.24.427-.546.815-.905 1.148-.35.334-.742.618-1.169.845-.32.172-.657.312-1.004.42l-.309.127-.274.079-.212.072a.058.058 0 00-.042 0v-.069h-.024v-.089c.072 0 .144-.038.216-.055.18-.047.355-.107.525-.179zm44.498-1.56a18.204 18.204 0 012.862-2.67 19.74 19.74 0 013.329-2.062 17.374 17.374 0 013.688-1.313 19.306 19.306 0 013.891-.457c2.617.013 5.218.403 7.724 1.159a53.404 53.404 0 017.333 2.677v.048c-2.465-.829-4.892-1.77-7.388-2.471a32.54 32.54 0 00-3.788-.852 23.054 23.054 0 00-3.863-.323 18.994 18.994 0 00-3.847.419 17.21 17.21 0 00-3.647 1.288 19.396 19.396 0 00-3.305 2.028c-1.028.793-2 1.655-2.91 2.581l-.08-.052zm21.72 2.667a14.98 14.98 0 003.545-1.464 9.795 9.795 0 001.563-1.114 7.23 7.23 0 001.282-1.429l.035.021a8.086 8.086 0 01-2.798 2.659 10.679 10.679 0 01-3.61 1.402l-.017-.075zm-2.427.216c.12 0 .237-.02.343-.024.106-.003.23-.02.343-.037.233 0 .456-.059.685-.083l.021.079a1.533 1.533 0 01-.343.148c-.112.03-.227.052-.343.065a2 2 0 01-.363 0 1.283 1.283 0 01-.343-.093v-.055zm-18.885-5.178a91.75 91.75 0 014.669-4.598c.394-.378.819-.725 1.237-1.079.409-.366.835-.71 1.279-1.031a14.183 14.183 0 012.91-1.554l.113.303a13.772 13.772 0 00-2.886 1.453c-.446.309-.875.64-1.286.994-.421.343-.85.687-1.254 1.03a92.05 92.05 0 00-4.769 4.485l-.014-.003zm11.004-8.568a17.41 17.41 0 017.134-.666c1.195.136 2.372.407 3.507.807 1.134.4 2.211.949 3.202 1.633l-.096.144a15.807 15.807 0 00-6.658-2.186c-1.17-.12-2.349-.13-3.52-.027a20.15 20.15 0 00-3.466.605l-.103-.31zm14.755 2.478l1.076.842-.051.076-1.173-.708.148-.21z" fill="#414141"/><path d="M95.735 113.342c.078.259.178.511.298.753.06.12.13.235.21.344a.884.884 0 00.294.275.85.85 0 01-.374-.2 2.128 2.128 0 01-.308-.302 4.962 4.962 0 01-.511-.687l.39-.183zm-.587-.302a49.794 49.794 0 013.49-2.694l.179.264a50.038 50.038 0 00-3.583 2.533l-.085-.103zm3.487 3.127l2.883.344 2.887.302 2.89.303c.959.099 1.926.185 2.889.257v.076c-.966-.034-1.936-.082-2.903-.141a57.698 57.698 0 01-2.9-.237 89.103 89.103 0 01-2.884-.375 66.425 66.425 0 01-2.869-.467l.007-.062zm9.582 5.543a16.724 16.724 0 003.932-.278 11.196 11.196 0 001.885-.536 6.104 6.104 0 001.673-.949l.202.248a6.333 6.333 0 01-1.792.931c-.633.211-1.282.368-1.941.467a16.6 16.6 0 01-3.959.124v-.007zm9.667-2.773l1.56-.976.069.1-1.444 1.137-.185-.261zm-7.964-13.454a4.268 4.268 0 01-1.978 2.749l-.147-.271a4.115 4.115 0 002.115-2.495l.01.017zm.402-.55c.092.539.092 1.09 0 1.629a2.982 2.982 0 01-.244.794.886.886 0 01-.614.546v-.037c.192-.166.352-.365.474-.588.124-.233.217-.481.274-.739a4.06 4.06 0 00.099-1.601l.011-.004zm1.172 1.296c.064.404.028.817-.106 1.203a1.881 1.881 0 01-.312.515.698.698 0 01-.233.216.697.697 0 01-.305.087v-.038c.157-.131.288-.241.425-.375.127-.141.231-.303.308-.477.183-.355.259-.755.22-1.152l.003.021zm6.051 1.512a3.273 3.273 0 01-.837 1.107 2.31 2.31 0 01-.61.367.803.803 0 01-.706 0v-.038c.216-.015.429-.053.637-.113.211-.071.41-.174.59-.306.383-.255.695-.602.909-1.01l.017-.007zm-3.182-.533c-.01.354-.1.701-.264 1.014-.09.16-.206.303-.342.426a.588.588 0 01-.511.172v-.041c.151-.096.271-.172.404-.265.132-.095.248-.211.343-.343.207-.275.334-.602.367-.945l.003-.018zm-6.373-1.323c.138.326.198.679.175 1.031-.012.18-.055.357-.127.523a.565.565 0 01-.39.367l-.021-.031c.096-.151.175-.271.257-.409.077-.146.129-.304.154-.467a1.875 1.875 0 00-.054-1.01l.006-.004zm-1.086.255c.078.278.086.572.024.855a1.328 1.328 0 01-.172.409.45.45 0 01-.373.241l-.017-.038a3 3 0 01.25-.303c.082-.102.146-.218.188-.343.114-.256.145-.54.089-.815l.011-.006zm-4.543.381c.172.234.283.507.323.794.018.148.011.298-.021.443a.45.45 0 01-.267.344l-.031-.028c.036-.126.081-.25.134-.371.04-.126.06-.259.058-.391a1.383 1.383 0 00-.199-.794l.003.003zm18.509 1.481c0 .335-.066.667-.195.976-.119.31-.283.601-.487.863-.206.268-.455.5-.737.687a1.602 1.602 0 01-.946.292v-.038c.296-.125.584-.269.863-.429.275-.161.52-.367.727-.609a2.79 2.79 0 00.768-1.742h.007zm2.324 1.382a2.498 2.498 0 01-.576.79c-.24.229-.511.422-.805.574-.3.151-.622.252-.953.299-.333.058-.676.01-.981-.138v-.037c.317.019.634.019.95 0a2.91 2.91 0 00.919-.244 2.789 2.789 0 001.429-1.251l.017.007zm-3.5-.385c-.36.341-.784.607-1.248.783-.236.09-.485.142-.737.155a.826.826 0 01-.685-.251l.024-.034c.445.143.925.143 1.371 0a3.177 3.177 0 001.268-.674l.007.021zm3.901 1.852a3.768 3.768 0 01-1.323.65 2.476 2.476 0 01-.747.075.824.824 0 01-.686-.323l.028-.031c.211.091.433.154.661.186.236.024.474.013.706-.035.483-.07.943-.251 1.344-.529l.017.007zm-7.494-3.426c-.113.451-.3.88-.551 1.271a2.636 2.636 0 01-.467.533.718.718 0 01-.685.206v-.041c.202-.069.391-.17.562-.299.176-.136.333-.296.466-.474a3.47 3.47 0 00.651-1.196h.024zm-1.364-1.753c-.106.33-.255.644-.442.935a6.163 6.163 0 01-.624.832 4.874 4.874 0 01-.782.687 1.149 1.149 0 01-1.004.24v-.041c.323-.044.631-.161.901-.343.283-.185.545-.4.782-.64a4.47 4.47 0 001.148-1.677l.021.007z" fill="#414141"/><path d="M111.34 105.281a6.467 6.467 0 01-.504 1.659 3.802 3.802 0 01-1.029 1.447l-.185-.261a3.657 3.657 0 001.053-1.261 6.572 6.572 0 00.634-1.588l.031.004zm.229 14.096a2.027 2.027 0 00-.161-1.076 4.055 4.055 0 00-.634-.893l.086-.079c.148.119.275.262.377.422.105.16.194.331.264.509.135.358.162.747.079 1.12l-.011-.003zm.535-.254a2.52 2.52 0 00-.301-1.031 1.82 1.82 0 00-.306-.437 1.464 1.464 0 00-.428-.302v-.038a.624.624 0 01.521.247c.124.146.224.309.298.485.144.345.218.715.216 1.089v-.013zm2.146-.808a1.378 1.378 0 00-.483-1.076 2.229 2.229 0 00-.343-.209v-.041a.597.597 0 01.398.171c.107.098.195.214.26.344.138.248.195.532.165.814l.003-.003zm5.396-1.997a2.055 2.055 0 00-1.083-.522 1.83 1.83 0 00-.6 0 2.12 2.12 0 00-.569.196l-.024-.034a.998.998 0 01.576-.265 1.86 1.86 0 01.631.031 2.02 2.02 0 011.069.588v.006zm.867-1.453a2.047 2.047 0 00-1.21-.045c-.196.049-.382.13-.552.241a2.236 2.236 0 00-.442.405l-.034-.02a.995.995 0 01.422-.475 1.83 1.83 0 01.589-.223c.41-.089.837-.051 1.224.11l.003.007zm-6.87 4.144a2.458 2.458 0 00-.685-1.759l.106-.097c.444.513.669 1.182.624 1.86l-.045-.004zm2.74-1.014a1.376 1.376 0 00-.484-1.075 2.334 2.334 0 00-.343-.213v-.038c.149.006.29.066.398.168.105.1.193.216.261.344.137.248.193.533.161.814h.007zm-.306.605a2.47 2.47 0 00-.685-1.763l.106-.096a2.538 2.538 0 01.624 1.859h-.045zm-1.165-11.935a3.788 3.788 0 01-2.904 2.227l-.034-.316a3.647 3.647 0 002.938-1.911zm-1.735 2.227a7.458 7.458 0 002.225-.687c.348-.174.674-.39.97-.643.305-.251.553-.565.727-.921a3.356 3.356 0 01-.624 1.031 3.767 3.767 0 01-.953.756 6.803 6.803 0 01-2.31.736l-.035-.272zm1.951.557c.114-.016.229-.016.343 0h.342c.244 0 .484-.017.727-.031.478.015.955-.042 1.416-.168a3.208 3.208 0 001.224-.719c.362-.326.643-.732.823-1.185a2.866 2.866 0 01-.7 1.288 3.411 3.411 0 01-1.237.836 4.492 4.492 0 01-1.478.216c-.243 0-.49.024-.737.024h-.373a1.482 1.482 0 00-.388 0l.038-.261zm2.256.759c.252-.001.502-.05.737-.144l.709-.234.686-.237.343-.12a.97.97 0 01.363-.089c-.096.103-.223.116-.343.178l-.343.145c-.229.096-.456.199-.685.288l-.686.275a2.253 2.253 0 01-.72.196l-.061-.258zm1.577.554c.225.045.457.051.685.017.231-.026.46-.067.686-.124.233-.055.463-.127.685-.217.228-.081.442-.197.635-.343a2.057 2.057 0 01-.587.453 3.97 3.97 0 01-.685.299 3.967 3.967 0 01-.734.193 1.188 1.188 0 01-.751-.096l.066-.182zm-19.565-2.471a.79.79 0 01.22.244c.102.197.157.416.16.639a.344.344 0 01-.143.309l-.127-.051a1.156 1.156 0 00-.127-1.124l.017-.017zm2.081-1.031c.053.288.036.585-.048.866-.08.288-.224.555-.422.78l-.127-.124c.203-.191.359-.426.456-.687.106-.265.154-.55.141-.835zm1.426.914c.185-.32.377-.632.545-.959.182-.321.313-.669.387-1.031-.031.372-.12.736-.264 1.079-.13.344-.284.688-.428 1.031l-.24-.12zm2.239-3.034c.096.533.07 1.082-.076 1.604a4.535 4.535 0 01-.668 1.495l-.251-.199c.332-.398.589-.853.758-1.344a3.456 3.456 0 00.219-1.553l.018-.003zm1.343.161c.125.535.08 1.096-.126 1.605-.203.532-.561.99-1.029 1.313l-.175-.289a2.684 2.684 0 001.303-2.625l.027-.004zm.981 1.705l-.607 1.178-.254-.171.861-1.007zm6.315-2.495c-.22.945-.45 1.921-1.029 2.749a3.25 3.25 0 01-1.114 1 2.3 2.3 0 01-1.505.265l.065-.313a2.03 2.03 0 001.334-.169 3.034 3.034 0 001.093-.879c.6-.749.885-1.712 1.156-2.653zm-4.114 14.849a2.14 2.14 0 000-1.031 1.578 1.578 0 00-.189-.471l-.144-.203c-.051-.062-.113-.113-.178-.178l.021-.035a.694.694 0 01.404.344c.081.161.137.334.165.512.058.345.029.699-.083 1.031l.004.031zm8.491-2.234a2.07 2.07 0 00-.795-.639 1.606 1.606 0 00-.48-.145h-.25a2.303 2.303 0 00-.25.028v-.038a.709.709 0 01.531-.093c.177.033.348.096.504.186.309.169.572.412.764.708l-.024-.007zm-12.434 1.189a1.378 1.378 0 00-.219-.777 1.25 1.25 0 00-.257-.313 2.137 2.137 0 00-.343-.209v-.041a.59.59 0 01.394.171 1.2 1.2 0 01.261.344c.137.248.195.533.164.815v.01zm1.135.591a1.9 1.9 0 00.209-.921 1.384 1.384 0 00-.308-.863l.024-.03a.685.685 0 01.305.398c.045.161.064.328.055.495a1.897 1.897 0 01-.278.924l-.007-.003zm1.896-.433a1.352 1.352 0 00-.343-.718 1.185 1.185 0 00-.315-.244 2.094 2.094 0 00-.374-.144v-.042a.616.616 0 01.422.093c.121.076.229.173.318.285.181.218.29.487.312.77h-.02zm8.341-.529a1.664 1.664 0 00-.312-.863 1.342 1.342 0 00-.319-.319 1.904 1.904 0 00-.401-.207v-.041a.683.683 0 01.459.162c.126.103.234.226.319.364.171.27.262.584.26.904h-.006zm-1.625.289a1.379 1.379 0 00-.343-.722 1.2 1.2 0 00-.316-.241 2.389 2.389 0 00-.373-.147v-.038a.623.623 0 01.421.089 1.424 1.424 0 01.631 1.059h-.02z" fill="#414141"/><path d="M115.138 118.298a2.058 2.058 0 00-.226-.687 1.295 1.295 0 00-.213-.296.936.936 0 00-.281-.206v-.038a.44.44 0 01.192.045.44.44 0 01.151.127c.083.104.15.22.199.344.103.231.16.481.168.735l.01-.024zm-12.838-9.499c.095-.045.186-.1.27-.165.09-.082.186-.106.264-.254.079-.148.182-.141.282-.165.099-.016.2-.028.301-.034.408 0 .816.017 1.214-.021a29.736 29.736 0 012.4-.075c.802 0 1.603.051 2.399.151.398.058.792.127 1.186.203.395.075.799.12 1.111.577l-.13.608a4.13 4.13 0 00-1.118-.344 33.836 33.836 0 00-1.152-.209 21.823 21.823 0 00-2.324-.261 24.787 24.787 0 00-2.345-.021c-.391.021-.785.024-1.176.076l-.291.034a.486.486 0 00-.281.089 1.559 1.559 0 01-.566.169l-.044-.358zm24.237-11.161c-2.712-1.031-5.112-2.794-7.885-3.584a23.86 23.86 0 00-4.227-.842 14.143 14.143 0 00-4.258.21c-2.797.666-5.605 1.432-8.388 2.216a181.99 181.99 0 00-8.297 2.577c1.372-.481 2.719-1.007 4.08-1.505 1.36-.498 2.722-1.014 4.083-1.522l4.079-1.578a84.447 84.447 0 012.057-.76l1.029-.363c.343-.12.685-.241 1.076-.361 1.52-.47 3.121-.615 4.7-.423.763.12 1.517.294 2.256.519.73.213 1.443.454 2.139.732a19.143 19.143 0 013.946 2.23c.607.41 1.196.832 1.786 1.258.59.426 1.196.81 1.824 1.196z" fill="#414141"/><path d="M86.9 99.476c.957-1.687 1.715-3.501 3.041-4.99a6.41 6.41 0 012.458-1.611c.905-.382 1.834-.687 2.743-1.031a55.046 55.046 0 015.615-1.625c1.888-.459 3.784-.895 5.687-1.31 1.91-.378 3.806-.766 5.753-1.03a7.005 7.005 0 011.522-.042 4.74 4.74 0 011.484.42c.881.444 1.729.951 2.537 1.518a43.048 43.048 0 018.66 7.815 81.917 81.917 0 00-4.601-3.57 66.004 66.004 0 00-2.4-1.595c-.809-.52-1.618-1-2.437-1.468-.411-.23-.826-.453-1.244-.666a11.72 11.72 0 00-1.173-.554 2.937 2.937 0 00-.994-.206 5.212 5.212 0 00-1.138.072l-5.66.908-2.866.44-1.43.233-1.436.217c-1.903.309-3.83.608-5.653 1.096-.946.285-1.889.519-2.79.821-.902.303-1.787.688-2.434 1.375a13.23 13.23 0 00-1.752 2.292c-.528.797-.97 1.66-1.492 2.491zm6.6 16.031a24.423 24.423 0 017.312.093l-.058.316a24.156 24.156 0 00-7.244-.319l-.01-.09zm7.682.145c1.642.23 3.281.46 4.93.594 1.642.153 3.294.153 4.936 0a25.115 25.115 0 004.82-1.031 12.18 12.18 0 002.263-.983 4.249 4.249 0 001.762-1.666l.038.017a4.198 4.198 0 01-1.714 1.794c-.718.433-1.476.796-2.263 1.082a20.777 20.777 0 01-4.868 1.138 27.312 27.312 0 01-5.002 0c-1.659-.134-3.304-.371-4.946-.605l.044-.34zm21.933-3.966a42.563 42.563 0 00-7.298-2.708 39.787 39.787 0 00-7.655-1.354c-2.571-.192-5.235-.137-7.645.846a18.015 18.015 0 00-3.397 1.876 37.56 37.56 0 00-3.086 2.385c1.934-1.718 4.001-3.385 6.421-4.416 1.216-.497 2.5-.802 3.809-.904a24.84 24.84 0 013.915 0 40.025 40.025 0 0114.936 4.279v-.004z" fill="#414141"/><path d="M121.107 111.727c-2.277-.749-4.533-1.515-6.829-2.044a36.505 36.505 0 00-6.973-.918 20.394 20.394 0 00-6.884.9 29.789 29.789 0 00-6.387 3.052 20.098 20.098 0 016.109-3.835 17.399 17.399 0 013.535-.969 20.445 20.445 0 013.658-.227c2.43.093 4.839.495 7.168 1.196a34.251 34.251 0 016.603 2.845zm-8.334 5.444c.685-.255 1.371-.471 2.057-.708a22.785 22.785 0 001.971-.77c.641-.276 1.261-.6 1.854-.969a10.405 10.405 0 001.673-1.32 4.918 4.918 0 01-1.371 1.739 7.734 7.734 0 01-1.896 1.165 10.56 10.56 0 01-2.105.66c-.717.15-1.45.218-2.183.203zm-8.848-.214c.63-.053 1.264-.059 1.895-.017.628.028 1.245.09 1.862.131.617.041 1.227.096 1.844.13.617.035 1.231.042 1.872.052a6.104 6.104 0 01-1.858.474 10.36 10.36 0 01-1.913 0 15.181 15.181 0 01-1.872-.282 14.305 14.305 0 01-1.83-.488z" fill="#414141"/><path d="M104.658 111.511c-.005-.29.048-.578.155-.848a2.2 2.2 0 011.183-1.204c.267-.111.553-.169.843-.168a2.112 2.112 0 011.553.656c.401.42.62.982.61 1.564a2.06 2.06 0 01-.686 1.484 2.29 2.29 0 01-1.467.571 2.181 2.181 0 01-1.992-1.233 2.091 2.091 0 01-.199-.822zm1.714.869a.845.845 0 10-.785-.842.83.83 0 00.223.587.828.828 0 00.573.255h-.011zm.467-2.371a1.328 1.328 0 00-.998.454 1.802 1.802 0 00-.216.323 1.532 1.532 0 011.239-.604 1.521 1.521 0 011.222.638 1.891 1.891 0 00-.246-.344 1.407 1.407 0 00-1.001-.467zm-5.503.811c.096-.483.27-.947.515-1.374.182-.33.403-.635.658-.911h.322c.041-.052.079-.107.117-.158l.685-.017a6.128 6.128 0 00-.997 2.168 4.999 4.999 0 00-.103 1.375c.011.23.037.46.079.687.044.225.104.446.178.663a4.852 4.852 0 002.235 2.729c.172.076.35.141.531.192.072 0 .144.041.216.055v.089h-.027v.069h-.041a1.197 1.197 0 01-.213-.058l-.274-.079-.308-.127a5.706 5.706 0 01-1.005-.42 5.23 5.23 0 01-1.169-.845 4.683 4.683 0 01-.905-1.148 5.048 5.048 0 01-.305-.67 4.751 4.751 0 01-.185-.715 4.888 4.888 0 01-.079-.735 3.822 3.822 0 01.075-.77z" fill="#414141"/><path d="M109.386 115.531a5.09 5.09 0 001.8-2.061 4.33 4.33 0 00-.724-4.75h1.155a4.69 4.69 0 01.864 2.495 4.66 4.66 0 01-.829 2.815 5.63 5.63 0 01-3.881 2.299 8.224 8.224 0 01-.624.11v-.055h-.103v-.086c.247-.011.494-.038.737-.079a5.595 5.595 0 001.605-.688zm29.115 6.045a17.696 17.696 0 002.688-1.883 23.571 23.571 0 004.329-5c.283-.476.54-.967.768-1.471a2.964 2.964 0 00.251-1.718c-.263.149-.5.34-.7.567-.192.194-.361.41-.504.643-.281.457-.565.907-.829 1.374-.539.918-1.046 1.859-1.66 2.749a23.328 23.328 0 01-1.991 2.516 24.95 24.95 0 01-2.352 2.223zM89.619 33.197a16.276 16.276 0 01-6.212.55 39.557 39.557 0 01-6.17-1.134c-2.033-.491-4.056-1.062-6.12-1.453-1.028-.165-2.057-.344-3.113-.499l-3.143-.264c-8.416-.344-16.87 1.831-24.2 5.955a45.264 45.264 0 00-9.979 7.677l-1.1 1.134c-.343.382-.686.804-1.029 1.203l-1.028 1.217a6.326 6.326 0 00-.477.628l-.456.643a42.995 42.995 0 00-3.335 5.36c-1.992 3.705-3.645 7.561-5.534 11.314a60.342 60.342 0 01-3.06 5.498c-.282.443-.566.883-.872 1.31a14.5 14.5 0 01-.929 1.264c-.336.4-.738.74-1.19 1.003a1.792 1.792 0 01-1.508.155 1.788 1.788 0 001.52-.13 4.53 4.53 0 001.216-.994c.341-.4.66-.82.957-1.254.312-.42.603-.86.89-1.296a60.672 60.672 0 003.162-5.45c1.933-3.732 3.62-7.58 5.636-11.254A43.823 43.823 0 0140.86 36.75a45.737 45.737 0 0123.98-6l3.12.234c1.028.131 2.057.313 3.085.468 2.057.367 4.08.92 6.123 1.391a39.46 39.46 0 006.201 1.031c2.108.18 4.23-.05 6.25-.677z" fill="#414141"/><path d="M78.087 35.936a40.68 40.68 0 00-14.268-3.818 39.696 39.696 0 00-7.45.141 36.74 36.74 0 00-7.302 1.564 30.417 30.417 0 00-12.701 7.828 32.375 32.375 0 00-4.48 6.048 47.035 47.035 0 00-3.168 6.798c-1.735 4.694-2.88 9.525-4.097 14.306-1.217 4.78-2.492 9.536-4.456 14.013a37.097 37.097 0 01-3.57 6.375c-1.394 1.993-3.105 3.78-4.727 5.643-1.621 1.862-3.154 3.883-4.137 6.185a13.33 13.33 0 00-.998 3.595 11.46 11.46 0 00.24 3.701 11.398 11.398 0 01-.048-3.674 13.081 13.081 0 011.118-3.481c1.049-2.216 2.626-4.123 4.292-5.91s3.428-3.567 4.912-5.588a37.692 37.692 0 003.812-6.44c2.143-4.522 3.452-9.35 4.735-14.12 1.282-4.77 2.4-9.581 4.113-14.155a45.706 45.706 0 013.058-6.63 31.935 31.935 0 014.285-5.841 28.373 28.373 0 015.581-4.588 32.971 32.971 0 016.538-3.137 38.308 38.308 0 0114.398-2.014 42.227 42.227 0 0114.32 3.2z" fill="#414141"/><path d="M26.363 64.8a18.588 18.588 0 01-.785 2.72c-.343.88-.743 1.737-1.197 2.564a42.58 42.58 0 01-3.085 4.746c-1.118 1.522-2.26 3.038-3.326 4.612a79.548 79.548 0 00-3.01 4.835 67.63 67.63 0 00-4.713 10.364 70.499 70.499 0 00-1.673 5.444c-.117.46-.244.917-.343 1.374a3.97 3.97 0 00-.045 1.437c.078.484.337.92.724 1.22a1.336 1.336 0 001.344.24 1.306 1.306 0 01-1.303-.289 1.838 1.838 0 01-.651-1.189c-.13-.931.205-1.848.462-2.749a71.351 71.351 0 011.78-5.385 71.006 71.006 0 014.775-10.268 63.457 63.457 0 012.962-4.81c1.028-1.575 2.187-3.094 3.267-4.64a41.544 41.544 0 003.006-4.839c.433-.847.806-1.723 1.118-2.622.311-.9.543-1.825.692-2.766zm-5.06 21.123c-.686 1.78-1.742 3.347-2.822 4.9-1.08 1.554-2.221 3.073-3.28 4.667a34.507 34.507 0 00-2.795 5.024 21.582 21.582 0 00-1.655 5.498 39.076 39.076 0 012.252-5.202 54.705 54.705 0 012.91-4.846c1.029-1.584 2.133-3.134 3.124-4.773.99-1.64 1.906-3.381 2.266-5.268zm120.482-1.983a61.952 61.952 0 00-2.088-7.58l-.685-1.85-.734-1.845-.778-1.808-.847-1.78a65.284 65.284 0 00-3.874-6.872c-.73-1.1-1.484-2.19-2.224-3.282l-2.4-3.152a71.52 71.52 0 00-5.331-5.842 77.603 77.603 0 00-5.944-5.213c-2.023-1.639-4.056-3.247-5.893-5.062a23.013 23.013 0 01-4.663-6.185 20.164 20.164 0 004.066 6.756 60.588 60.588 0 005.646 5.498c1.941 1.718 3.847 3.471 5.643 5.334a75.609 75.609 0 015.142 5.78l2.379 3.048 2.215 3.172c1.478 2.137 2.787 4.36 4.049 6.622l.922 1.718.874 1.746.843 1.742.816 1.79c1.056 2.365 1.982 4.811 2.866 7.265z" fill="#414141"/><path d="M132.015 66.868c-.415-.839-.881-1.653-1.347-2.471l-.782-1.172c-.267-.385-.548-.756-.826-1.137-.562-.763-1.179-1.464-1.803-2.172-.624-.708-1.286-1.357-1.958-2.024a36.362 36.362 0 00-4.381-3.553 26.263 26.263 0 00-4.923-2.701 178.374 178.374 0 014.32 3.498c1.409 1.185 2.759 2.44 4.103 3.67.662.625 1.32 1.278 1.964 1.931.645.653 1.283 1.316 1.913 1.976l1.872 2.062c.6.701 1.197 1.409 1.848 2.093zm-5.321.656a37.949 37.949 0 013.106 3.162 38.994 38.994 0 012.671 3.54 14.062 14.062 0 00-5.777-6.702zM101.162 31.98a39.8 39.8 0 00-9.658-8.05 24.091 24.091 0 00-8.957-3.303 31.022 31.022 0 00-3.185-.313 34.133 34.133 0 00-6.356.437 41.643 41.643 0 00-6.153 1.515c-2.006.646-3.96 1.423-5.883 2.254-1.896.89-3.792 1.777-5.66 2.715a291.22 291.22 0 005.89-2.13c1.954-.726 3.942-1.327 5.937-1.88a47.79 47.79 0 016.047-1.275 34.565 34.565 0 016.127-.344c1.018.036 2.034.126 3.044.268 1.007.156 2.004.366 2.989.63a26.963 26.963 0 015.67 2.281 52.634 52.634 0 0110.148 7.196zm41.237 53.476c.233 1.34.459 2.677.641 4.017a74.82 74.82 0 01.452 4.03c.11 1.348.196 2.698.251 4.049.027.687.041 1.354.048 2.031v2.062c.085-.687.137-1.354.192-2.031.055-.677.058-1.375.072-2.041a41.373 41.373 0 00-.155-4.083 38.406 38.406 0 00-.555-4.048 34.918 34.918 0 00-.946-3.986zM122.584 48.84l6.363 7.98c2.115 2.663 4.237 5.326 6.28 8.044a101.425 101.425 0 015.9 8.31c1.783 2.88 3.243 5.993 3.966 9.33a23.802 23.802 0 00-1.395-4.918 34.664 34.664 0 00-2.293-4.584c-1.735-2.949-3.802-5.67-5.828-8.399-2.026-2.728-4.196-5.368-6.366-7.99a358.284 358.284 0 00-6.627-7.773zm19.688 21.206c.538.973 1.073 1.915 1.546 2.894.473.98.891 1.98 1.327 3.004a10.122 10.122 0 00-2.873-5.898z" fill="#414141"/><path d="M100.215 36.125a11.433 11.433 0 00-1.474-3.024 13.017 13.017 0 00-5.073-4.388l-.772-.344-.792-.288-.812-.227a23.184 23.184 0 00-.823-.162c.264.093.528.186.792.272l.771.313.755.343.73.385a16.28 16.28 0 014.957 4.289 16.742 16.742 0 011.741 2.831zm-12.382-9.388a14 14 0 00-6.812-1.375c1.145.248 2.276.44 3.408.688 1.131.247 2.249.474 3.404.687zm14.933 2.969a7.582 7.582 0 00-2.9-3.47 7.552 7.552 0 00-4.354-1.197 10.502 10.502 0 017.254 4.667zm.147-4.347a2.868 2.868 0 00-3.15-2.12 6.457 6.457 0 013.133 2.12h.017zm.302-4.643a1.147 1.147 0 00-.64-.866 1.142 1.142 0 00-1.074.052c.31.087.612.202.901.343.284.134.556.291.813.471zm1.251-7.251a.35.35 0 00-.061-.364c-.076-.069-1.142-1.457-2.4-1.399 1.097.399 2.026 1.626 2.091 1.719a.362.362 0 00.37.044zm3.422 16.165a13.515 13.515 0 017.884 5.073 9.318 9.318 0 00-3.259-3.603 9.29 9.29 0 00-4.625-1.47zm1.697-1.639c.624.255 1.226.562 1.799.918.565.37 1.099.785 1.598 1.24a3.568 3.568 0 00-3.397-2.155v-.003zm-.374-3.945c.343.349.742.638 1.179.856.427.235.891.396 1.371.477a4.436 4.436 0 00-1.165-.855 4.589 4.589 0 00-1.385-.478zm.836-2.508a.653.653 0 00.343.409c.62.192 1.212.463 1.762.807-.212-.58-1.429-1.11-1.57-1.189a.647.647 0 00-.535-.027zm-.264-2.251a7.61 7.61 0 015.485 3.282 5.097 5.097 0 00-2.165-2.611 5.08 5.08 0 00-3.32-.671zm.888-1.523c.332.186.686.329 1.053.427.362.109.736.172 1.114.189a2.03 2.03 0 00-.998-.602 2.08 2.08 0 00-1.169-.014zm-12.807 19.43a6.397 6.397 0 00-1.948-3.028 6.88 6.88 0 00-1.518-1.01 5.479 5.479 0 00-.857-.343.568.568 0 00-.494.082c-.13.11-.175.344-.041.433a.246.246 0 01.106-.344.423.423 0 01.367.028c.25.117.51.275.758.422.495.303.962.648 1.398 1.032.879.788 1.63 1.709 2.229 2.728zm7.188-.381c.36.924.805 1.812 1.331 2.652a18.413 18.413 0 001.765 2.406 18.177 18.177 0 002.136 2.062c.386.31.781.607 1.186.893.415.268.826.54 1.262.773a24.99 24.99 0 00-.573-.463l-.562-.475c-.374-.32-.741-.642-1.097-.976a36.743 36.743 0 01-2.03-2.103 32.2 32.2 0 01-1.817-2.292 32.537 32.537 0 01-1.601-2.477zm14.32 13.931a7.463 7.463 0 00-3.894-3.193c.651.56 1.313 1.055 1.954 1.588.641.533 1.265 1.076 1.94 1.605zM91.498 35.613c.51.186.98.344 1.422.523a7.12 7.12 0 011.23.687c.397.275.78.57 1.146.883.394.34.817.645 1.265.91a6.766 6.766 0 00-.778-1.374 4.805 4.805 0 00-1.156-1.127 3.707 3.707 0 00-1.528-.612 3.42 3.42 0 00-1.602.11zm15.193-23.072a5.197 5.197 0 00-1.656-1.883 5.518 5.518 0 00-1.107-.612c-.199-.09-.41-.15-.627-.175a.867.867 0 00-.628.144 1.58 1.58 0 011.108.327c.342.213.685.43 1.008.663.659.48 1.294.992 1.902 1.536zm.823-1.461a4.482 4.482 0 00-.638-.9 3.434 3.434 0 00-.877-.711 2.397 2.397 0 00-1.111-.3 1.562 1.562 0 00-1.066.362 2.392 2.392 0 011.028-.028c.33.062.647.178.94.344.596.38 1.172.792 1.724 1.233zM24.378 65.122c-.638 2.75-1.906 5.258-3.428 7.598-1.523 2.34-3.233 4.547-4.927 6.777-1.693 2.23-3.28 4.574-4.494 7.12a21.54 21.54 0 00-1.45 3.966 14.948 14.948 0 00-.442 4.179c.054-2.811.929-5.526 2.187-8a46.406 46.406 0 014.556-6.994c1.662-2.247 3.4-4.467 4.864-6.873a29.551 29.551 0 001.944-3.742 18.507 18.507 0 001.19-4.03zm67.263-45.815c-3.664-1.57-7.665-2.24-11.655-2.385-3.99-.144-7.967.24-11.92.688l-2.962.343c-.497.048-.994.093-1.491.155l-1.481.247c-1.96.396-3.889.93-5.773 1.598a62.975 62.975 0 00-10.761 5.148c-1.714 1.01-3.377 2.127-5.015 3.265a66.71 66.71 0 00-4.752 3.642 70.287 70.287 0 00-8.588 8.327 57.493 57.493 0 00-3.698 4.725c-.556.832-1.132 1.65-1.636 2.512a74.26 74.26 0 00-1.474 2.608 33.779 33.779 0 00-2.262 5.533 24.72 24.72 0 00-.998 5.887 24.634 24.634 0 011.097-5.842 33.526 33.526 0 012.331-5.482 47.444 47.444 0 013.144-5.058 57.094 57.094 0 013.716-4.656c1.303-1.499 2.708-2.908 4.114-4.3 1.405-1.391 2.917-2.697 4.456-3.944a99.057 99.057 0 014.738-3.609 62.698 62.698 0 015.002-3.23 62.385 62.385 0 0110.696-5.155 41.959 41.959 0 015.71-1.604l1.465-.248c.49-.062.984-.106 1.474-.161l3-.399c3.942-.47 7.905-.883 11.878-.787 3.973.096 7.953.674 11.645 2.182zm-74.96 43.77a15.437 15.437 0 01-2.93 6.358 7.797 7.797 0 002.93-6.358zm1.536 41.152a15.162 15.162 0 01-4.5 7.698 9.635 9.635 0 004.501-7.698zm-1.536.914a21.28 21.28 0 01-1.457 2.883 21.79 21.79 0 01-1.91 2.605 7.818 7.818 0 003.367-5.498v.01zm-2.057.663a5.43 5.43 0 00-.942 1.292 5.318 5.318 0 00-.57 1.495c.379-.379.697-.813.943-1.289.264-.467.456-.972.57-1.498zm121.316-5.862c-.052 1.808.358 3.6 1.19 5.206a10.629 10.629 0 003.486 4.034 16.25 16.25 0 01-3.113-4.227 16.259 16.259 0 01-1.563-5.013zm-.041 4.35a10.552 10.552 0 001.077 3.396c.269.532.578 1.043.925 1.529.173.246.36.482.559.708.06.06.129.11.206.147a.3.3 0 00.135.031.3.3 0 00.135-.031.153.153 0 00.066-.049.156.156 0 00.027-.078.187.187 0 00-.051-.123.204.204 0 00-.1-.069.064.064 0 00-.061.01.056.056 0 00-.018.027.058.058 0 00-.003.032c.024-.1.11-.018.13.034.021.051.021.11-.031.11-.051 0-.202-.079-.274-.186-.147-.233-.295-.505-.439-.752a50.356 50.356 0 01-.826-1.543c-.535-1.028-.984-2.1-1.457-3.193zm.202 5.093c.024.261.71 1.296.847 1.443.154.158.36.254.579.272a.904.904 0 00-.281-.577 5.716 5.716 0 01-1.145-1.138zM77.7 34.063c.3.541.705 1.017 1.189 1.402a6.823 6.823 0 001.618.928 9.444 9.444 0 003.654.636 19.733 19.733 0 003.603-.464 39.4 39.4 0 003.51-.804c-1.203-.02-2.399.045-3.613.144-1.213.1-2.365.258-3.527.272a11.558 11.558 0 01-3.428-.41 8.339 8.339 0 01-1.605-.645 6.451 6.451 0 01-1.402-1.059z" fill="#414141"/><path d="M76.623 36.08c-5.657-.278-11.33-.374-17.021.255-1.42.161-2.838.378-4.244.687a37.221 37.221 0 00-4.179 1.1c-.686.223-1.371.447-2.057.735-.685.289-1.32.533-1.998.873l-.974.495-.483.244-.46.265c-.6.343-1.234.738-1.865 1.14-.63.403-1.206.811-1.758 1.272-.552.46-1.139.883-1.68 1.395l-.785.712c-.264.24-.521.515-.782.773-.26.257-.514.522-.764.787-.25.264-.518.526-.737.804a46.305 46.305 0 00-5.009 6.997 65.354 65.354 0 00-3.819 7.663 81.936 81.936 0 00-2.9 8.017c2.328-5.155 4.8-10.268 7.85-14.976a69.762 69.762 0 012.4-3.436 48.353 48.353 0 012.68-3.207c.474-.515.954-.993 1.437-1.474.244-.24.47-.481.734-.718l.792-.705c.494-.46 1.028-.87 1.597-1.299.57-.43 1.125-.81 1.69-1.199a22.962 22.962 0 011.745-1.09l.46-.27.46-.238.914-.474c.583-.3 1.22-.557 1.883-.839.606-.268 1.275-.488 1.926-.728a46.777 46.777 0 018.09-1.993c5.55-.86 11.2-1.141 16.857-1.567zm58.793 1.564c.341.436.652.895.929 1.375.315.443.607.91.881 1.374a33.003 33.003 0 011.467 2.949c.446 1.01.859 2.033 1.241 3.069.192.519.384 1.03.562 1.56l.686 1.522c-.11-.546-.244-1.086-.377-1.625-.134-.54-.37-1.031-.562-1.567a62.17 62.17 0 00-1.252-3.093 31.67 31.67 0 00-1.491-2.983 20.7 20.7 0 00-.895-1.416 8.82 8.82 0 00-1.189-1.165zm.754 77.777a23.386 23.386 0 01-.538-3.725c-.117-1.25-.203-2.505-.299-3.759a293.3 293.3 0 00-.62-7.529c-.244-2.509-.562-5.018-1.029-7.506a36.976 36.976 0 00-.881-3.7 11.939 11.939 0 00-1.559-3.437c.55 1.126.939 2.325 1.155 3.56.26 1.223.452 2.46.627 3.701.175 1.24.322 2.488.453 3.736.13 1.247.271 2.498.387 3.749.261 2.501.494 5.007.813 7.508.15 1.255.342 2.506.545 3.75.116.622.24 1.244.387 1.859.131.614.318 1.214.559 1.793zm1.248 2.622c.267-.807.504-1.618.754-2.429l.747-2.423a43.731 43.731 0 011.714-4.763h-.03c-.444.721-.824 1.48-1.135 2.268-.343.784-.6 1.591-.854 2.406a41.484 41.484 0 00-1.196 4.941zm2.567-33.663a2.43 2.43 0 01-2.032.928 3.532 3.532 0 01-2.153-.65 9.765 9.765 0 01-1.756-1.556 45.754 45.754 0 01-1.583-1.784 41.578 41.578 0 01-2.849-3.818 38.444 38.444 0 01-1.262-2.024c-.397-.69-.867-1.337-1.289-2.017.309.739.655 1.46 1.029 2.182.373.722.829 1.375 1.272 2.038a41.788 41.788 0 002.872 3.845 39.89 39.89 0 001.595 1.798 10.29 10.29 0 001.796 1.601 4.82 4.82 0 001.111.54c.398.127.816.181 1.234.161a2.51 2.51 0 002.015-1.244z" fill="#414141"/><path d="M135.237 79.658a10.98 10.98 0 00-.476-.343l-.463-.344a10.967 10.967 0 01-.956-.632 13.368 13.368 0 01-1.745-1.495 13.953 13.953 0 01-1.471-1.766c-.215-.314-.42-.637-.617-.97l-.343-.467a7.941 7.941 0 00-.343-.481c.11.378.254.742.401 1.11.199.344.412.687.635.993a13.985 13.985 0 003.287 3.337c.319.227.648.443.981.65.373.144.733.295 1.11.408zm-5.437 2.464l.724 1.141a28.726 28.726 0 012.252 3.31c.449.766.867 1.56 1.248 2.364.188.405.37.81.541 1.22.172.409.422.794.638 1.192-.092-.443-.219-.876-.343-1.316-.175-.412-.343-.825-.548-1.234a30.31 30.31 0 00-2.726-4.656 47.254 47.254 0 00-.809-1.082c-.274-.358-.637-.64-.977-.939zM62.903 269.997c-.082-.708-.233-1.375-.367-2.062-.308-.615-.538-1.261-.805-1.894l-1.515-3.828c-.515-1.278-2.218-5.993-2.815-7.217-.302-.618-.59-1.24-.919-1.845l-.935-1.835.84 1.88.798 1.897c.528 1.264 2.16 6 2.602 7.295l1.31 3.908c.212.652.47 1.292.661 1.955a20.56 20.56 0 001.145 1.746zm27.137-.193l-.04.055c.078-.687.23-1.374.366-2.062.305-.615.535-1.261.802-1.89l1.516-3.828a65.005 65.005 0 011.666-3.78c.302-.619.59-1.241.919-1.846l.935-1.835-.236.533.27-.533-.84 1.88s-2.574 7.175-2.639 7.344l-1.145 3.093c-.12.323-.25.642-.374.962-.02.072-.044.141-.065.21l-.03.054c-.042.107-.076.21-.11.317a15.44 15.44 0 01-1.001 1.374.305.305 0 01.007-.048zM19.146 91.036l-.267 3.286a151.152 151.152 0 01-.172 3.285 123.369 123.369 0 01-.6 6.55 154.838 154.838 0 01-.911 6.512l-.545 3.244-.422 3.271c.26-1.068.497-2.141.737-3.213l.545-3.251c.343-2.168.658-4.343.915-6.529.258-2.185.46-4.371.6-6.564.069-1.096.127-2.195.175-3.292 0-1.1-.017-2.195-.055-3.299zm-3.599 27.42c0-.406-.052-.808-.093-1.21-.04-.402-.171-.79-.27-1.182a22.485 22.485 0 00-1.687-4.533c-.182-.343-.374-.714-.573-1.065-.199-.35-.463-.663-.716-.979.178.364.363.721.531 1.086.168.364.387.687.566 1.055a22.352 22.352 0 011.937 5.659c.078.392.188.777.305 1.169zM108.505 10.26a13.505 13.505 0 00-3.123-3.417 20.836 20.836 0 00-3.994-2.405A36.592 36.592 0 0097.02 2.77l-2.231-.618-1.108-.293-1.176-.281A65.779 65.779 0 0074.031.177c-3.09.245-6.162.683-9.198 1.312a65.779 65.779 0 00-8.95 2.564l-2.14.856-1.076.43-1.066.49-2.078.987-2.057 1.09a58.433 58.433 0 00-7.696 5.092 91.287 91.287 0 018.15-4.148l2.098-.904 2.139-.82 1.049-.403 1.077-.364 2.163-.729A81.207 81.207 0 0174.2 2.31l2.252-.113 1.145-.048 1.073-.02c1.574.024 3.055 0 4.532.11l2.277.116 2.27.237c1.473.12 2.937.402 4.49.626l1.07.196 1.124.233 2.225.471c1.468.332 2.914.755 4.33 1.268 2.814 1.014 5.505 2.533 7.518 4.873z" fill="#414141"/><path d="M142.43 108.057c1.186-4.395 2.149-8.849 2.938-13.344.758-4.506 1.275-9.05 1.549-13.611.282-4.579.253-9.172-.089-13.746a87.884 87.884 0 00-2.129-13.619 77.28 77.28 0 00-4.546-13.03 64.71 64.71 0 00-7.024-11.874 56.138 56.138 0 00-9.492-9.938c-.881-.756-1.848-1.395-2.743-2.062a29.342 29.342 0 00-2.89-1.87 23.69 23.69 0 00-3.085-1.494 16.054 16.054 0 00-3.298-.894c1.091.292 2.148.699 3.154 1.213a23.634 23.634 0 012.91 1.701c.926.643 1.841 1.296 2.691 2.018.851.721 1.776 1.415 2.568 2.192a60.35 60.35 0 018.838 10.114 68.453 68.453 0 016.53 11.721 78.079 78.079 0 014.32 12.715 89.823 89.823 0 012.191 13.279c.412 4.489.558 8.998.438 13.505-.112 4.515-.42 9.028-.925 13.536-.494 4.505-1.18 8.997-1.906 13.488zM39.77 12.998a51.043 51.043 0 00-7.46 4.622 57.753 57.753 0 00-6.568 5.897 65.136 65.136 0 00-10.243 14.385 80.153 80.153 0 00-3.662 8.051 74.082 74.082 0 00-2.684 8.416 63.267 63.267 0 00-1.594 8.68 40.3 40.3 0 00-.24 4.41c-.035 1.472.14 2.942.521 4.364a9.684 9.684 0 01-.1-1.086l-.016-.543.02-.543c0-.36.028-.721.058-1.082.031-.361.059-.722.107-1.08.157-1.44.394-2.865.685-4.281a83.748 83.748 0 012.16-8.385c.878-2.75 1.83-5.467 2.955-8.117 1.125-2.65 2.314-5.271 3.672-7.804.343-.632.661-1.275 1.028-1.897l1.07-1.87 1.138-1.828c.37-.615.795-1.196 1.18-1.8a70.403 70.403 0 0111.182-13.083 78.742 78.742 0 016.791-5.426z" fill="#414141"/><path d="M77.85 119.898l2.887 5h-5.774l2.887-5zm-.5 22.402v-.509h1v.509h-1zm0-1.527v-1.018h1v1.018h-1zm0-2.037v-1.018h1v1.018h-1zm0-2.036v-1.019h1v1.019h-1zm0-2.037v-1.018h1v1.018h-1zm0-2.037v-1.018h1v1.018h-1zm0-2.036v-1.018h1v1.018h-1zm0-2.037v-1.018h1v1.018h-1zm0-2.036v-1.019h1v1.019h-1zm0-2.037v-1.018h1v1.018h-1zm0-2.037v-1.018h1v1.018h-1zm.5-2.545l5.773 10H72.076l5.774-10zm-1 22.402v-.509h2v.509h-2zm0-1.527v-1.018h2v1.018h-2zm0-2.037v-1.018h2v1.018h-2zm0-2.036v-1.019h2v1.019h-2zm0-2.037v-1.018h2v1.018h-2zm0-2.037v-1.018h2v1.018h-2zm0-2.036v-1.018h2v1.018h-2zm0-2.037v-1.018h2v1.018h-2zm0-2.036v-1.019h2v1.019h-2zm0-2.037v-1.018h2v1.018h-2zm0-2.037v-1.018h2v1.018h-2zm-4.816 3.722l-1.494 5.577-4.082-4.082 5.576-1.495zM57.68 139.813l.35-.35.707.708-.35.35-.707-.708zm1.05-1.05l.7-.7.707.707-.7.7-.707-.707zm1.4-1.4l.7-.7.708.707-.7.7-.708-.707zm1.4-1.4l.7-.7.708.707-.7.7-.707-.707zm1.4-1.4l.7-.7.708.707-.7.7-.707-.707zm1.4-1.4l.701-.7.707.707-.7.7-.707-.707zm1.401-1.401l.7-.7.707.707-.7.701-.707-.708zm1.4-1.4l.7-.7.707.707-.7.7-.707-.707zm1.4-1.4l.7-.7.708.707-.7.7-.707-.707zm1.4-1.4l.7-.7.708.707-.7.7-.707-.707zm2.104-1.397l-2.988 11.154-8.165-8.165 11.153-2.989zm-14.71 13.295l.35-.35 1.415 1.414-.35.35-1.415-1.414zm1.05-1.05l.7-.7 1.415 1.414-.7.7-1.414-1.414zm1.4-1.4l.7-.701 1.415 1.415-.7.7-1.414-1.414zm1.401-1.401l.7-.7 1.414 1.415-.7.7-1.414-1.415zm1.4-1.4l.7-.7 1.414 1.414-.7.7-1.414-1.414zm1.4-1.4l.7-.7 1.415 1.414-.7.7-1.415-1.414zm1.4-1.4l.7-.7 1.415 1.414-.7.7-1.414-1.414zm1.4-1.4l.7-.7 1.415 1.414-.7.7-1.414-1.414zm1.4-1.4l.701-.701 1.414 1.415-.7.7-1.414-1.414zm1.401-1.401l.7-.7 1.414 1.414-.7.701-1.414-1.415zm14.993-.482l5.578 1.495-4.083 4.082-1.494-5.577zm13.089 13.796l-.336-.337.707-.707.336.336-.707.708zm-1.008-1.009l-.672-.672.707-.707.672.672-.707.707zm-1.344-1.344l-.672-.672.707-.707.672.672-.707.707zm-1.345-1.344l-.672-.672.707-.707.672.672-.707.707zm-1.344-1.344l-.672-.672.707-.707.672.672-.707.707zm-1.344-1.344l-.672-.672.707-.707.672.672-.707.707zm-1.344-1.344l-.672-.673.707-.707.672.672-.707.708zm-1.344-1.345l-.672-.672.707-.707.672.672-.707.707zm-1.344-1.344l-.673-.672.707-.707.673.672-.707.707zm-1.345-1.344l-.672-.672.707-.707.672.672-.707.707zm-1.326-2.034l11.153 2.989-8.165 8.165-2.988-11.154zm12.734 14.149l-.336-.336 1.415-1.414.335.336-1.414 1.414zm-1.008-1.008l-.672-.672 1.414-1.414.672.672-1.414 1.414zm-1.344-1.344l-.672-.672 1.414-1.415.672.673-1.414 1.414zm-1.344-1.344l-.672-.672 1.414-1.415.672.672-1.414 1.415zm-1.344-1.345l-.672-.672 1.414-1.414.672.672-1.414 1.414zm-1.344-1.344l-.673-.672 1.415-1.414.672.672-1.414 1.414zm-1.345-1.344l-.672-.672 1.414-1.414.672.672-1.414 1.414zm-1.344-1.344l-.672-.672 1.414-1.414.672.672-1.414 1.414zm-1.344-1.344l-.672-.672 1.414-1.415.672.673-1.414 1.414zm-1.344-1.344l-.672-.673 1.414-1.414.672.672-1.414 1.415z" fill="#F31010"/></g><defs><clipPath id="clip0_287_331"><path fill="#fff" transform="matrix(-1 0 0 1 152.899 .042)" d="M0 0h152.899v269.954H0z"/></clipPath></defs></svg>