<svg width="153" height="270" fill="none" xmlns="http://www.w3.org/2000/svg"><g clip-path="url(#clip0_287_330)"><path d="M76.678 168.25c.218-.006.435-.034.648-.086a2.09 2.09 0 00.754-.577l-.323-.285a1.605 1.605 0 01-.538.446 2.57 2.57 0 01-1.152.024.856.856 0 01-.49-.271l-.319.285c.189.211.442.354.72.406.226.043.456.062.686.058h.014z" fill="#414141"/><path d="M55.046 172.9a21.054 21.054 0 005.266-2.451c1.666-1.007 3.208-2.206 4.881-3.151a17.632 17.632 0 012.61-1.196 8.557 8.557 0 012.68-.608 5.281 5.281 0 012.571.639 8.397 8.397 0 012.215 1.674l.343-.261a6.612 6.612 0 00-2.164-2.104 5.4 5.4 0 00-2.986-.817 7.347 7.347 0 00-2.914.855 25.45 25.45 0 00-2.564 1.45c-1.666 1.031-3.15 2.293-4.765 3.361a19.23 19.23 0 01-5.173 2.609zm43.041 0a21.054 21.054 0 01-5.266-2.451c-1.666-1.007-3.209-2.206-4.882-3.151a17.628 17.628 0 00-2.609-1.196 8.557 8.557 0 00-2.68-.608 5.282 5.282 0 00-2.572.639 8.399 8.399 0 00-2.214 1.674l-.343-.261a6.612 6.612 0 012.163-2.104 5.4 5.4 0 012.986-.817c1.02.079 2.013.37 2.914.855a25.45 25.45 0 012.564 1.45c1.666 1.031 3.15 2.293 4.765 3.361a19.23 19.23 0 005.174 2.609zm-36.857 4.567l1.828 1.659c1.2 1.114 2.482 2.179 3.993 2.729 1.532.538 3.14.827 4.762.856 1.526.055 7.98.055 9.506 0a15.186 15.186 0 004.762-.856c1.512-.55 2.794-1.615 3.994-2.729l1.827-1.659c.61-.578 1.371-.911 2.081-1.334-.686.444-1.447.804-2.026 1.392l-1.748 1.742c-1.149 1.172-2.4 2.323-3.97 2.987a15.38 15.38 0 01-1.156.498c-.39.155-.788.306-1.19.429-.802.247-1.63.404-2.467.468-.827.087-1.658.132-2.49.134h-4.74a24.343 24.343 0 01-2.49-.134 11.332 11.332 0 01-2.468-.468 14.658 14.658 0 01-1.19-.429c-.39-.158-.78-.313-1.154-.498-1.57-.664-2.822-1.815-3.97-2.987l-1.748-1.742c-.58-.588-1.337-.948-2.027-1.392.703.423 1.471.756 2.081 1.334zm-3.39-4.193c.165-.085.35-.124.535-.113.361.073.714.189 1.049.343.185.103.377.179.572.292.196.114.412.224.586.296a3.21 3.21 0 001.214.261c.422-.004.84-.078 1.238-.22l.603-.199.59-.237a12.69 12.69 0 012.44-.787 19.156 19.156 0 012.558-.344c.863-.051 1.73-.024 2.588.079a8.621 8.621 0 002.427-.072c.415-.055.84-.117 1.276-.155a36.81 36.81 0 012.101 0c.435.038.86.1 1.275.155a8.622 8.622 0 002.427.072c.859-.103 1.725-.13 2.589-.079.859.057 1.713.172 2.557.344.838.179 1.656.443 2.44.787l.573.233.604.2a3.81 3.81 0 001.237.22 3.23 3.23 0 001.214-.261c.175-.073.394-.196.586-.296.192-.1.388-.189.573-.292.335-.155.687-.27 1.049-.344.185-.01.37.029.534.114a4.8 4.8 0 00.881.343 2.1 2.1 0 01-1.062.719c-.41.133-.831.229-1.258.285-.425.062-.84.117-1.272.141a5.745 5.745 0 01-1.303-.086 16.971 16.971 0 01-2.458-.729 12.922 12.922 0 00-2.437-.584c-.415-.034-.833-.041-1.248-.069a25.756 25.756 0 00-1.241-.058 15.9 15.9 0 00-2.475.185 9.614 9.614 0 01-2.647 0 13.677 13.677 0 00-1.981-.123h-.45a13.676 13.676 0 00-1.98.123 9.615 9.615 0 01-2.647 0 15.869 15.869 0 00-2.445-.175c-.414 0-.83.024-1.24.059-.412.034-.834.034-1.249.068-.829.116-1.645.311-2.437.585-.8.304-1.621.548-2.458.728-.43.079-.867.107-1.303.086a14.177 14.177 0 01-1.271-.141 6.953 6.953 0 01-1.259-.285 2.105 2.105 0 01-1.062-.718c.3-.089.59-.206.867-.351z" fill="#414141"/><path d="M68.91 173.198l1.103.169c.737.134 1.485.175 2.222.251.737.075 1.487.044 2.228.068h4.186c.74-.024 1.484-.017 2.228-.068.744-.052 1.485-.117 2.222-.251l1.103-.169 1.1-.202a61.56 61.56 0 01-2.166.577c-.72.203-1.46.316-2.197.464-.737.148-1.488.203-2.228.309a19.897 19.897 0 01-4.31 0c-.74-.106-1.487-.175-2.228-.309-.74-.134-1.478-.261-2.197-.464-.72-.203-1.447-.371-2.167-.577l1.1.202zm17.716-23.412a1.726 1.726 0 00-.507-1.344 2.382 2.382 0 00-1.275-.584 4.655 4.655 0 00-2.637.392 5.588 5.588 0 00-2.04 1.66 6.005 6.005 0 00-1.09 2.35c.605-.6 1.268-1.139 1.978-1.608a7.216 7.216 0 011.848-.863 4.72 4.72 0 01.85-.144c.136-.009.272-.009.408 0h.196l.192.021.37.068c0-.041 0-.075.048-.075a.45.45 0 01.144.062l1.515.065zm-8.049-4.309a3.91 3.91 0 01-3.13.47 3.935 3.935 0 01-.99-.45l-.1.134c.255.379.586.7.973.942.379.161.786.242 1.197.237.41.003.817-.078 1.196-.237.38-.247.71-.563.974-.931l-.12-.165zm-6.452-8.066c.055.784-.367 2.169-.651 2.873l.462.997c.2-.784.35-3.09.189-3.87zm12.341 49.636a23.695 23.695 0 00-.87-.687c-.295-.223-.62-.392-.93-.591h-.02c-.5-.24-.987-.512-1.515-.687a12.354 12.354 0 00-1.612-.54c-1.1-.282-2.23-.433-3.366-.45a14.255 14.255 0 00-3.377.344c-.553.126-1.096.294-1.625.501-.521.194-1.031.417-1.529.667h-.024c-.315.193-.634.375-.942.571a7.11 7.11 0 00-.885.687c.343-.107.686-.227 1.029-.344.343-.117.685-.213 1.045-.316h-.02c.528-.131 1.056-.268 1.584-.371a33.84 33.84 0 011.563-.278 21.506 21.506 0 013.157-.189c1.056.015 2.11.105 3.154.271.528.089 1.028.175 1.556.313.528.137 1.05.268 1.577.412h-.024c.343.114.686.234 1.029.344.343.11.692.227 1.045.343zM69.53 103.703c.339.408.634.85.88 1.32.255.467.48.948.687 1.436.352.839.66 1.696.922 2.567h-.6a25.993 25.993 0 00-.686-2.423 12.963 12.963 0 00-.569-1.453 7.28 7.28 0 00-.76-1.344l.126-.103zM.003 268.241c3.295-1.966 6.514-4.076 9.72-6.159a72.032 72.032 0 009.272-6.948 66.249 66.249 0 008.09-8.437 54.898 54.898 0 003.456-4.79 42.606 42.606 0 002.863-5.227 52.491 52.491 0 002.057-5.598l.418-1.433c.144-.474.285-.952.388-1.44.215-.969.466-1.945.647-2.907a74.829 74.829 0 001.283-11.804c0-1.976.054-3.955.04-5.925l-.219-5.893c-.267-3.925-.531-7.846-.87-11.753-.038 3.932 0 7.856.03 11.774l-.058 5.879-.253 5.842c-.515 7.76-1.903 15.512-5.02 22.509a40.791 40.791 0 01-2.704 5.031c-1.046 1.615-2.119 3.175-3.305 4.677a72.2 72.2 0 01-7.727 8.467c-1.371 1.324-2.825 2.564-4.302 3.781-1.478 1.216-2.996 2.35-4.556 3.481l-9.25 6.873zm62.9 1.759c-.082-.708-.233-1.375-.367-2.062-.308-.615-.538-1.261-.805-1.893l-1.515-3.829c-.515-1.278-2.218-5.993-2.815-7.216-.302-.619-.59-1.241-.919-1.845l-.935-1.836.84 1.88.798 1.897c.528 1.265 2.16 6 2.602 7.296l1.31 3.907c.212.653.47 1.292.661 1.955A20.56 20.56 0 0062.903 270zm-51.82-159.627a4.382 4.382 0 00-1.217-1.374 3.66 3.66 0 00-1.776-.646 3.266 3.266 0 00-3.305 1.807 7.173 7.173 0 00-.61 3.78c.1 1.231.31 2.45.628 3.643.593 2.371 1.467 4.619 1.93 6.962.463 2.344.548 4.763.655 7.176.106 2.412.188 4.859.733 7.282l.21.903.253.877c.082.299.189.618.295.907l.315.852c.134.323.25.577.38.863.131.285.258.56.395.838.275.559.581 1.103.915 1.629a23.28 23.28 0 004.834 5.612 21.809 21.809 0 006.418 3.605l.253-.581a30.5 30.5 0 01-5.828-4.011 27.27 27.27 0 01-4.49-5.364 24.708 24.708 0 01-2.921-6.378 35.4 35.4 0 01-1.142-7.055c-.188-2.405-.322-4.811-.644-7.244-.323-2.433-.95-4.79-1.457-7.117a36.407 36.407 0 01-.607-3.488 10.273 10.273 0 01-.086-1.718c.021-.55.137-1.092.343-1.602a2.75 2.75 0 01.96-1.206 3.064 3.064 0 011.56-.46 3.714 3.714 0 012.992 1.532l.014-.024z" fill="#414141"/><path d="M16.877 139.398a9.59 9.59 0 00-.442-.272l-.419-.295-.435-.258-.411-.292a7.034 7.034 0 01-1.41-1.44 6.873 6.873 0 01-.939-1.78l-.144-.485-.106-.491-.144-.492a9.318 9.318 0 00-.106-.512 8.568 8.568 0 00-.059.526v.533l.11.519.155.505c.232.668.564 1.297.983 1.866a7.223 7.223 0 001.475 1.505l.431.306c.151.089.299.186.453.271l.504.169c.161.044.332.082.504.117zm-.333 5.491l-.452-.509a6.206 6.206 0 01-1.964-2.567 6.548 6.548 0 01-.213-.618c-.062-.21-.199-.402-.302-.612a4.774 4.774 0 000 .687c.067.23.142.446.226.65a6.244 6.244 0 001.543 2.24c.165.159.343.306.518.447.206.113.421.208.644.282zm119.043-5.491c.172-.035.343-.073.514-.117l.504-.169c.151-.085.299-.182.453-.271l.415-.306a7.307 7.307 0 001.47-1.505c.42-.569.752-1.198.984-1.866l.154-.505.134-.519v-.533c0-.178-.034-.343-.058-.526a9.96 9.96 0 00-.106.512l-.141.492-.11.491-.144.485a6.744 6.744 0 01-.939 1.78 7.044 7.044 0 01-1.409 1.44l-.411.292-.432.258-.422.295c-.161.096-.308.175-.456.272zm7.532-21.159l.089 1.492a39.926 39.926 0 01.398 4.426c.03.986.024 1.976-.024 2.962-.024.495-.055.99-.096 1.481v1.495c.123-.484.219-.976.315-1.467.041-.499.072-.993.099-1.492a40.26 40.26 0 00.021-2.989c-.03-.997-.099-1.99-.209-2.98-.055-.498-.12-.989-.189-1.484a21.155 21.155 0 00-.404-1.444zm-7.199 26.65c.224-.064.442-.15.651-.254.178-.141.343-.289.521-.447a6.61 6.61 0 00.888-1.031c.261-.379.48-.784.655-1.21.085-.213.157-.429.223-.649a4.922 4.922 0 000-.687c-.103.209-.189.415-.299.611-.109.196-.133.416-.216.619a6.215 6.215 0 01-1.467 2.141c-.16.14-.327.272-.5.395l-.456.512zm-120.373-26.43c0-.405-.052-.807-.096-1.209-.045-.402-.168-.791-.268-1.183a22.485 22.485 0 00-1.686-4.532c-.182-.344-.374-.715-.573-1.066-.199-.35-.463-.663-.716-.979.178.364.363.722.531 1.086.168.364.387.687.566 1.055a22.374 22.374 0 011.937 5.66c.078.392.188.776.305 1.168zm.607 7.894a67.74 67.74 0 00.342 3.711c.151 1.234.309 2.457.525 3.681a54.83 54.83 0 001.837 7.175c.744 2.364 1.519 4.732 2.225 7.124.706 2.392 1.197 4.862 1.817 7.254.62 2.392 1.23 4.811 1.92 7.172.347 1.187.71 2.367 1.09 3.54.374 1.178.792 2.33 1.19 3.522a59.438 59.438 0 002.608 6.873 34.879 34.879 0 003.713 6.23l.034.045.028.044a36.18 36.18 0 004.141 5.499c1.543 1.759 3.174 3.405 4.8 5.175a137.622 137.622 0 009.914 9.942c.428.395.88.77 1.326 1.154.446.385.871.753 1.337 1.117a20.092 20.092 0 002.79 2.021 39.485 39.485 0 006.309 2.952 47.841 47.841 0 006.743 1.917c.572.117 1.148.227 1.714.317.566.089 1.159.189 1.742.24.712.065 3.582.065 4.295 0a22.645 22.645 0 001.742-.24c.579-.097 1.155-.2 1.714-.317a47.833 47.833 0 006.743-1.914 39.481 39.481 0 006.307-2.952 20.14 20.14 0 002.794-2.02c.463-.365.885-.729 1.334-1.117.45-.388.898-.76 1.327-1.155a137.383 137.383 0 009.917-9.941c1.608-1.77 3.243-3.416 4.783-5.176a36.006 36.006 0 004.141-5.498l.027-.045.035-.044a34.907 34.907 0 003.712-6.231 59.279 59.279 0 002.609-6.873c.398-1.192.819-2.343 1.193-3.522.374-1.179.741-2.354 1.087-3.54a222.483 222.483 0 001.923-7.171c.607-2.402 1.107-4.836 1.817-7.255.71-2.419 1.495-4.763 2.245-7.127a54.263 54.263 0 001.848-7.175c.216-1.224.391-2.447.525-3.681a97.59 97.59 0 00.343-3.711c0 1.244 0 2.488-.072 3.732a48.486 48.486 0 01-.343 3.725 54.616 54.616 0 01-1.481 7.351c-.655 2.405-1.337 4.787-1.944 7.189s-1.028 4.811-1.601 7.261a136.188 136.188 0 01-3.966 14.433 61.595 61.595 0 01-2.643 7.069 34.307 34.307 0 01-3.864 6.529 38.116 38.116 0 01-4.337 5.698 109.24 109.24 0 01-2.42 2.611l-1.234 1.272a44.05 44.05 0 00-1.207 1.264 163.756 163.756 0 01-4.971 5.069 99.26 99.26 0 01-5.272 4.767c-.449.388-.909.752-1.371 1.123-.463.371-.933.763-1.406 1.11a20.745 20.745 0 01-2.996 2.004 37.006 37.006 0 01-6.589 2.749 47.88 47.88 0 01-6.915 1.581 39.699 39.699 0 01-11.364 0 47.874 47.874 0 01-6.914-1.581 37.06 37.06 0 01-6.586-2.749 20.566 20.566 0 01-3-2.004c-.473-.343-.953-.742-1.405-1.11-.453-.367-.919-.735-1.372-1.123a103.935 103.935 0 01-5.269-4.767 150.07 150.07 0 01-4.97-5.069 48.863 48.863 0 00-1.21-1.264l-1.235-1.272a97.171 97.171 0 01-2.416-2.611 38.11 38.11 0 01-4.34-5.698 34.472 34.472 0 01-3.864-6.529 60.685 60.685 0 01-2.64-7.069 135.333 135.333 0 01-3.97-14.433c-.555-2.437-.987-4.887-1.6-7.261-.614-2.375-1.286-4.787-1.944-7.189a54.554 54.554 0 01-1.481-7.351 67.757 67.757 0 01-.343-3.725c-.082-1.244-.058-2.488-.051-3.732z" fill="#414141"/><path d="M152.899 268.241c-3.294-1.966-6.513-4.076-9.715-6.159a71.81 71.81 0 01-9.277-6.948 66.518 66.518 0 01-8.09-8.437 55.677 55.677 0 01-3.456-4.79 43.624 43.624 0 01-2.862-5.227 53.273 53.273 0 01-2.057-5.598l-.418-1.433c-.141-.474-.285-.952-.384-1.44-.216-.969-.467-1.945-.652-2.907a75.353 75.353 0 01-1.282-11.804c0-1.976-.055-3.955-.038-5.925l.22-5.893c.267-3.925.528-7.846.867-11.753.041 3.932 0 7.856-.031 11.774l.062 5.879.25 5.842c.515 7.76 1.903 15.512 5.019 22.509a41.813 41.813 0 002.705 5.031c1.049 1.615 2.119 3.175 3.305 4.677a72.156 72.156 0 007.727 8.467 77.238 77.238 0 004.306 3.781 94.1 94.1 0 004.545 3.481l9.256 6.873zM141.82 110.373a4.3 4.3 0 011.217-1.374 3.646 3.646 0 011.772-.646 3.488 3.488 0 011.92.367 3.476 3.476 0 011.391 1.444 7.142 7.142 0 01.611 3.78 20.593 20.593 0 01-.631 3.656c-.597 2.371-1.467 4.619-1.93 6.962-.463 2.344-.552 4.763-.658 7.176-.107 2.412-.185 4.859-.734 7.282l-.206.903-.257.877c-.079.299-.188.618-.295.907l-.312.852c-.137.323-.253.577-.38.863-.127.285-.261.56-.398.838-.274.56-.579 1.104-.915 1.629a23.266 23.266 0 01-4.83 5.612 21.893 21.893 0 01-6.418 3.605l-.257-.581a30.346 30.346 0 005.828-4.011 27.163 27.163 0 004.491-5.381 24.607 24.607 0 002.924-6.378 35.924 35.924 0 001.142-7.055c.185-2.406.322-4.811.644-7.244s.95-4.791 1.454-7.117c.253-1.165.469-2.323.61-3.488.073-.57.102-1.144.086-1.718a4.867 4.867 0 00-.343-1.602 2.757 2.757 0 00-.96-1.206 3.034 3.034 0 00-1.557-.46 3.718 3.718 0 00-2.996 1.532l-.013-.024zm-77.881 35.54c.301-.999.703-1.965 1.2-2.883a13.793 13.793 0 011.775-2.543l-.044.079c.034-.045.068-.093.106-.138a26.16 26.16 0 00-1.3 2.781 22.632 22.632 0 00-.932 2.89c-.126.483-.22.974-.28 1.47a7.036 7.036 0 000 1.471c.046.482.188.949.417 1.375.233.406.595.722 1.029.897v-.024c.11.065.28.147.442.226.25.11.531.217.686.289.154.072.28.11.428.155a.984.984 0 00.439.075.409.409 0 01-.171.042c-.239.02-.478.02-.717 0a4.555 4.555 0 01-.466-.048 5.14 5.14 0 01-.933-.22 3.87 3.87 0 01-1.58-1.165 3.937 3.937 0 01-.5-1.557 7.353 7.353 0 01.4-3.172z" fill="#414141"/><path d="M75.025 152.026a8.088 8.088 0 00-1.443-2.134 6.919 6.919 0 00-2.057-1.57 3.409 3.409 0 00-2.602-.244 2.603 2.603 0 00-1.131.735 1.515 1.515 0 00-.391 1.354l.411-.103a1.052 1.052 0 01.858-.477c.264-.033.53-.033.795 0 .194.044.384.102.569.175.202.075.432.158.685.271.511.234 1.08.519 1.76.884.678.364 1.37.718 2.358 1.192l.188-.083zm12.9-.522a13.215 13.215 0 01-4.765 1.059 12.32 12.32 0 004.3-1.853c.62-.36 1.652-1.464 1.881-2.196a6.615 6.615 0 00.429-2.154v-.169.073-.073.158a6.46 6.46 0 01.065 2.282 3.843 3.843 0 01-.405 1.189 3.755 3.755 0 01-1.505 1.684zm-15.752-25.237c.069-2.553.165-5.107.106-7.657-.082-2.721-.343-5.436-.562-8.151l.319-.024c.092.007.185.007.278 0 .116 2.722.28 5.447.26 8.179-.034 2.56-.23 5.107-.39 7.653 0 .175-.018.344-.025.519v-.244c0 .079 0 .161-.017.244.014-.172.024-.347.031-.519zm-11.645-11.852a18.142 18.142 0 00-2.863-2.684 19.74 19.74 0 00-3.329-2.062 17.441 17.441 0 00-3.688-1.313 19.296 19.296 0 00-3.891-.457 27.241 27.241 0 00-7.724 1.158 53.753 53.753 0 00-7.336 2.677l.02.048c2.465-.828 4.889-1.77 7.388-2.471a32.72 32.72 0 013.788-.852 23.052 23.052 0 013.864-.323c1.291.009 2.58.149 3.843.419 1.261.291 2.486.723 3.65 1.289a19.396 19.396 0 013.305 2.028c1.028.792 2 1.655 2.91 2.58l.063-.037zm-21.725 2.666a14.866 14.866 0 01-3.54-1.464 9.842 9.842 0 01-1.564-1.113 7.262 7.262 0 01-1.282-1.43l-.035.021a8.08 8.08 0 002.798 2.66 10.736 10.736 0 003.606 1.402l.017-.076zm2.427.217c-.116 0-.233-.021-.342-.024a3.071 3.071 0 01-.343-.038c-.233 0-.456-.058-.686-.082l-.02.079c.107.063.222.113.342.147.113.03.228.052.343.066.122.01.245.01.367 0 .118-.016.233-.047.343-.093l-.004-.055zm18.886-5.179a93.069 93.069 0 00-4.666-4.598c-.394-.378-.819-.725-1.237-1.079a16.25 16.25 0 00-1.279-1.031 14.166 14.166 0 00-2.91-1.553l-.113.302c1.015.369 1.984.857 2.886 1.454.446.308.875.64 1.286.993.421.344.85.687 1.254 1.031a92.944 92.944 0 014.765 4.484l.014-.003zm-11.001-8.567a17.356 17.356 0 00-3.517-.705 17.565 17.565 0 00-3.603.038 15.93 15.93 0 00-3.507.808c-1.135.4-2.211.949-3.202 1.632l.096.144a15.785 15.785 0 016.657-2.185 18.57 18.57 0 013.521-.028c1.17.101 2.33.303 3.466.605l.09-.309zM34.36 106.03l-1.076.842.052.075 1.169-.708-.145-.209z" fill="#414141"/><path d="M57.154 113.346c-.078.259-.178.51-.298.752-.06.121-.13.236-.21.344a.863.863 0 01-.294.275.85.85 0 00.374-.199 2.14 2.14 0 00.308-.303c.19-.214.36-.444.511-.687l-.39-.182zm.586-.303a51.21 51.21 0 00-3.49-2.694l-.178.265c1.23.79 2.424 1.634 3.583 2.532l.085-.103zm-12.142 4.076l2.89-.302.562-.059v.258l-.538.058a62.4 62.4 0 01-2.897.238c-.967.061-1.937.106-2.904.14v-.075c.957-.072 1.92-.148 2.887-.258zm-.926 4.595a16.726 16.726 0 01-3.932-.279 11.028 11.028 0 01-1.885-.536 6.135 6.135 0 01-1.673-.948l-.203.247c.545.405 1.15.719 1.793.931.633.212 1.282.368 1.94.468 1.311.199 2.64.24 3.96.123v-.006zm-9.667-2.774l-1.56-.976-.068.1 1.443 1.138.185-.262zm7.964-13.453a4.302 4.302 0 001.974 2.749l.151-.272a4.116 4.116 0 01-2.115-2.495l-.01.018zm-.402-.55a4.824 4.824 0 00-.017 1.629c.044.274.126.542.244.793a.893.893 0 00.613.547v-.038a2.13 2.13 0 01-.476-.588 3.014 3.014 0 01-.271-.738 4.068 4.068 0 01-.1-1.602l.007-.003zm-1.172 1.295c-.064.404-.028.817.106 1.203.07.196.172.378.302.54a.681.681 0 00.538.302v-.038a6.435 6.435 0 01-.425-.374 1.787 1.787 0 01-.308-.478 2.065 2.065 0 01-.22-1.151l.007-.004zm-6.051 1.512c.195.426.481.804.837 1.107.183.153.39.277.61.368a.8.8 0 00.706 0v-.038a3.172 3.172 0 01-.64-.114 2.235 2.235 0 01-.587-.305 2.753 2.753 0 01-.909-1.011l-.017-.007zm3.182-.532c.01.353.1.7.264 1.014.09.159.206.303.343.426a.592.592 0 00.51.171v-.041c-.15-.096-.27-.172-.404-.264a1.539 1.539 0 01-.343-.344 1.866 1.866 0 01-.367-.945l-.003-.017zm6.386-1.323a2.281 2.281 0 00-.175 1.031c.012.18.055.356.127.522a.564.564 0 00.391.368l.02-.031c-.095-.151-.174-.272-.256-.409a1.442 1.442 0 01-.155-.468 1.874 1.874 0 01.048-1.013zm1.073.254a1.807 1.807 0 00-.027.856c.037.144.096.282.175.409a.45.45 0 00.373.24l.018-.038a2.948 2.948 0 00-.25-.302 1.205 1.205 0 01-.193-.344c-.11-.256-.14-.54-.085-.814l-.01-.007zm4.543.382a1.738 1.738 0 00-.323.793c-.018.148-.011.298.021.444a.455.455 0 00.267.343l.031-.027a3.557 3.557 0 00-.133-.371 1.22 1.22 0 01-.059-.392 1.377 1.377 0 01.2-.794l-.004.004zm-18.509 1.481c-.002.33.062.657.189.962a3.316 3.316 0 001.22 1.55c.278.194.61.296.95.292v-.038a7.642 7.642 0 01-.864-.402 2.884 2.884 0 01-.727-.608 2.792 2.792 0 01-.768-1.743v-.013zm-2.324 1.381c.138.299.334.568.576.791.24.229.51.422.805.573.3.151.622.252.953.299a1.6 1.6 0 00.98-.137v-.038a7.976 7.976 0 01-.952 0 2.856 2.856 0 01-.916-.244 2.784 2.784 0 01-1.43-1.251l-.016.007zm3.5-.385c.36.341.784.608 1.248.784.236.09.485.142.737.154a.81.81 0 00.703-.251l-.025-.034a2.23 2.23 0 01-1.37 0 3.182 3.182 0 01-1.283-.67l-.01.017zm-3.901 1.852c.394.302.843.523 1.323.65.244.063.496.088.747.076a.838.838 0 00.686-.324l-.028-.03a2.61 2.61 0 01-.661.185 2.325 2.325 0 01-.706-.034 3.152 3.152 0 01-1.344-.529l-.017.006zm7.494-3.426c.112.452.298.882.552 1.272.13.196.286.375.462.532a.726.726 0 00.686.207v-.042a2.004 2.004 0 01-.562-.299 2.432 2.432 0 01-.467-.474 3.364 3.364 0 01-.65-1.196h-.021zm1.364-1.752c.105.33.253.644.442.934.184.295.393.573.624.832.235.256.497.487.782.687a1.15 1.15 0 001.004.241v-.041a2.132 2.132 0 01-.901-.344 4.794 4.794 0 01-.782-.639 4.467 4.467 0 01-1.148-1.677l-.021.007z" fill="#414141"/><path d="M41.55 105.284c.092.573.261 1.132.503 1.66a3.797 3.797 0 001.029 1.446l.185-.261a3.642 3.642 0 01-1.053-1.261 6.57 6.57 0 01-.634-1.587l-.03.003zm-.23 14.096a1.996 1.996 0 01.16-1.075c.17-.326.384-.626.635-.894l-.086-.079a1.716 1.716 0 00-.377.423c-.105.16-.194.33-.264.508a1.963 1.963 0 00-.079 1.121l.01-.004zm-.522-.254a2.54 2.54 0 01.302-1.031c.08-.16.182-.307.305-.436.124-.126.27-.228.429-.303v-.038a.622.622 0 00-.521.248 1.977 1.977 0 00-.302.484 2.858 2.858 0 00-.213 1.09v-.014zm-2.159-.808a1.375 1.375 0 01.483-1.075c.108-.08.223-.15.343-.21v-.041a.6.6 0 00-.398.172 1.181 1.181 0 00-.26.343 1.379 1.379 0 00-.165.815l-.003-.004zm-5.382-1.996c.3-.28.677-.462 1.083-.522a1.83 1.83 0 01.6 0c.198.038.39.104.569.195l.024-.034a1.007 1.007 0 00-.576-.265 1.884 1.884 0 00-.63.031c-.412.08-.788.285-1.077.588l.007.007zm-.881-1.454a2.05 2.05 0 011.203-.044c.195.048.38.129.548.24.167.114.317.25.446.406l.034-.021a.996.996 0 00-.421-.474 1.838 1.838 0 00-.59-.224 2.06 2.06 0 00-1.224.11l.004.007zm6.87 4.145a2.477 2.477 0 01.685-1.76l-.106-.096a2.581 2.581 0 00-.624 1.859l.045-.003zm-2.74-1.014a1.379 1.379 0 01.484-1.076c.108-.08.223-.151.343-.213v-.038a.611.611 0 00-.398.169 1.204 1.204 0 00-.26.343 1.38 1.38 0 00-.165.815h-.004zm.306.605a2.47 2.47 0 01.685-1.763l-.103-.096a2.544 2.544 0 00-.623 1.859h.04zm1.162-11.935a3.81 3.81 0 002.907 2.227l.034-.317a3.641 3.641 0 01-2.938-1.91h-.003zm1.738 2.227a7.433 7.433 0 01-2.225-.688 4.787 4.787 0 01-.97-.642 2.78 2.78 0 01-.727-.921c.144.378.356.727.624 1.031.275.302.597.557.953.756a6.78 6.78 0 002.31.735l.035-.271zm-1.951.556a1.311 1.311 0 00-.343 0h-.36c-.24 0-.48-.017-.723-.031a4.756 4.756 0 01-1.42-.168 3.257 3.257 0 01-1.223-.718 3.142 3.142 0 01-.82-1.186c.126.486.377.931.727 1.289.348.366.772.651 1.241.835.477.154.977.228 1.478.216.243 0 .49.025.737.025h.374c.128-.018.258-.018.387 0l-.055-.262zm-2.256.76a2.024 2.024 0 01-.737-.145l-.71-.233-.685-.237-.343-.121c-.123-.027-.226-.106-.363-.089.096.103.223.117.343.179l.343.144c.23.096.455.199.685.289l.686.275c.227.105.47.171.72.196l.061-.258zm-1.563.553a1.975 1.975 0 01-.685.017 4.982 4.982 0 01-.686-.123 4.839 4.839 0 01-.686-.217 2.335 2.335 0 01-.634-.344c.166.185.363.339.583.454.219.12.448.22.686.299.234.084.476.146.723.186.254.05.517.016.75-.097l-.05-.175zm19.541-2.471a.753.753 0 00-.22.244 1.442 1.442 0 00-.16.639.344.344 0 00.143.31l.127-.052a1.151 1.151 0 01.127-1.124l-.017-.017zm-2.057-1.031a1.85 1.85 0 00.048.866c.079.289.222.555.418.78l.13-.123a1.866 1.866 0 01-.46-.688 2.013 2.013 0 01-.136-.835zm-1.44.914c-.189-.319-.377-.632-.545-.958a3.525 3.525 0 01-.388-1.031c.032.371.12.735.265 1.079.13.343.284.687.428 1.031l.24-.121zm-2.239-3.034a3.586 3.586 0 00.076 1.605c.13.535.357 1.041.668 1.495l.25-.2a4.28 4.28 0 01-.757-1.343 3.474 3.474 0 01-.22-1.553l-.017-.004zm-1.343.162a2.66 2.66 0 00.126 1.604c.198.53.55.987 1.012 1.313l.175-.289a2.704 2.704 0 01-1.306-2.625l-.007-.003zm-.981 1.704l.607 1.179.254-.172-.86-1.007zm-6.315-2.495c.22.945.45 1.921 1.029 2.749.288.417.67.759 1.114 1 .457.258.988.351 1.505.265l-.065-.313a2.03 2.03 0 01-1.334-.168 3.04 3.04 0 01-1.093-.88c-.6-.749-.885-1.711-1.156-2.653zm4.114 14.849a2.143 2.143 0 010-1.031c.037-.166.1-.325.189-.471l.14-.202c.055-.062.117-.114.179-.179v-.034a.677.677 0 00-.405.343 1.725 1.725 0 00-.165.512c-.057.345-.03.7.083 1.031l-.02.031zm-8.492-2.234a2.1 2.1 0 01.796-.639c.151-.073.313-.121.48-.144h.247c.085.004.17.013.254.027v-.037a.674.674 0 00-.529-.093 1.569 1.569 0 00-.503.185 2.13 2.13 0 00-.765.708l.02-.007zm12.435 1.189c-.006-.275.07-.545.219-.776.072-.119.164-.225.27-.313.108-.081.223-.151.344-.21v-.041a.592.592 0 00-.395.172 1.187 1.187 0 00-.26.344 1.376 1.376 0 00-.165.814l-.013.01zm-1.135.592a1.915 1.915 0 01-.21-.921 1.378 1.378 0 01.31-.863l-.025-.031a.66.66 0 00-.305.399 1.526 1.526 0 00-.055.495c.011.327.107.645.278.924l.007-.003zm-1.896-.434c.04-.268.16-.518.343-.718a1.19 1.19 0 01.315-.244c.12-.06.245-.108.374-.144v-.041a.609.609 0 00-.422.092 1.28 1.28 0 00-.319.286 1.37 1.37 0 00-.311.769h.02zm-8.341-.529c.021-.311.13-.61.312-.862a1.35 1.35 0 01.32-.32c.124-.085.259-.154.4-.206v-.041a.688.688 0 00-.46.161 1.457 1.457 0 00-.318.365c-.171.27-.262.583-.26.903h.006zm1.625.289c.046-.271.171-.523.36-.722.091-.097.198-.178.316-.24.12-.06.245-.109.373-.148v-.038a.626.626 0 00-.421.09 1.411 1.411 0 00-.631 1.058h.003z" fill="#414141"/><path d="M37.75 118.301a2.09 2.09 0 01.227-.687c.057-.107.127-.207.21-.296.081-.084.178-.154.284-.206v-.038a.426.426 0 00-.343.172 1.36 1.36 0 00-.199.344 1.97 1.97 0 00-.171.735l-.007-.024zm12.84-9.498a1.638 1.638 0 01-.275-.165c-.086-.083-.182-.107-.26-.254-.08-.148-.182-.141-.282-.165-.1-.017-.2-.028-.301-.035-.408 0-.816.017-1.214-.02a29.284 29.284 0 00-2.4-.076c-.802.001-1.603.051-2.4.151a27.86 27.86 0 00-1.185.203c-.395.076-.8.12-1.111.577l.13.609c.354-.168.73-.283 1.118-.344.38-.076.764-.148 1.152-.21.77-.128 1.545-.215 2.324-.261.781-.043 1.563-.05 2.345-.021.39.021.785.025 1.175.076l.292.034c.1 0 .199.031.281.09.176.092.368.149.566.168l.044-.357zM26.352 97.641c2.712-1.03 5.108-2.794 7.885-3.584a23.86 23.86 0 014.227-.842 14.138 14.138 0 014.258.21c2.797.666 5.601 1.433 8.388 2.216 2.787.784 5.547 1.66 8.297 2.578-1.372-.481-2.719-1.007-4.08-1.506-1.361-.498-2.722-1.013-4.083-1.522l-4.08-1.577a82.38 82.38 0 00-2.056-.76l-1.029-.364c-.343-.12-.685-.24-1.076-.36a11.286 11.286 0 00-4.704-.423c-.761.12-1.514.294-2.252.518-.73.213-1.443.454-2.14.732a19.048 19.048 0 00-3.945 2.23 69.56 69.56 0 00-1.786 1.258 28.8 28.8 0 01-1.824 1.196z" fill="#414141"/><path d="M65.989 99.48c-.957-1.688-1.714-3.502-3.041-4.99a6.41 6.41 0 00-2.458-1.612c-.905-.381-1.834-.687-2.743-1.03a55.11 55.11 0 00-5.618-1.626c-1.886-.468-3.771-.9-5.684-1.31-1.913-.408-3.806-.766-5.753-1.03a7.012 7.012 0 00-1.522-.042c-.514.058-1.015.2-1.484.42a20.47 20.47 0 00-2.537 1.519 43.04 43.04 0 00-8.66 7.814 80.692 80.692 0 014.601-3.57 66.08 66.08 0 012.4-1.595c.809-.519 1.618-1 2.437-1.467.412-.23.826-.454 1.241-.667.382-.205.774-.39 1.176-.553.317-.126.653-.196.994-.206.38-.018.76.006 1.135.072l5.663.907 2.866.44 1.43.234 1.436.216c1.903.31 3.83.608 5.653 1.096.946.285 1.889.52 2.79.822.902.302 1.787.687 2.435 1.374a13.235 13.235 0 011.751 2.292c.528.797.984 1.66 1.492 2.492zm-6.599 16.031a24.356 24.356 0 00-7.313.093l.059.316a24.153 24.153 0 017.243-.32l.01-.089zm-7.683.144c-1.642.23-3.28.461-4.93.595a26.604 26.604 0 01-4.936 0 25.206 25.206 0 01-4.82-1.031 12.278 12.278 0 01-2.263-.983 4.252 4.252 0 01-1.762-1.667l-.038.017a4.193 4.193 0 001.714 1.794 12.95 12.95 0 002.263 1.083c1.571.574 3.206.955 4.868 1.137 1.664.153 3.338.153 5.002 0 1.659-.134 3.304-.371 4.947-.605l-.045-.34zm-21.933-3.965a42.489 42.489 0 017.298-2.708 39.696 39.696 0 017.655-1.354c2.571-.193 5.235-.138 7.645.845a18.284 18.284 0 013.397 1.876 37.562 37.562 0 013.086 2.385c-1.934-1.718-4.001-3.385-6.421-4.416a12.659 12.659 0 00-3.809-.903 24.839 24.839 0 00-3.915 0c-2.601.21-5.175.682-7.682 1.409a38.463 38.463 0 00-7.254 2.866z" fill="#414141"/><path d="M31.782 111.731c2.277-.749 4.533-1.516 6.83-2.045a36.475 36.475 0 016.986-.917 20.36 20.36 0 016.856.9 29.735 29.735 0 016.387 3.051 20.146 20.146 0 00-6.109-3.835 17.462 17.462 0 00-3.535-.969 20.445 20.445 0 00-3.657-.227c-2.421.096-4.82.497-7.141 1.196a34.21 34.21 0 00-6.617 2.846zm8.331 5.443c-.686-.254-1.371-.471-2.04-.708a25.039 25.039 0 01-1.971-.77c-.641-.276-1.261-.6-1.855-.969a10.391 10.391 0 01-1.673-1.319 4.94 4.94 0 001.372 1.739 7.803 7.803 0 001.895 1.165c.676.292 1.38.513 2.102.659a9.703 9.703 0 002.17.203zm8.851-.213a12.37 12.37 0 00-1.895-.017c-.628.027-1.248.089-1.862.13-.614.042-1.227.097-1.844.131s-1.231.041-1.872.051a6.07 6.07 0 001.858.475 10.5 10.5 0 001.91 0 15.62 15.62 0 001.875-.282c.62-.123 1.231-.286 1.83-.488z" fill="#414141"/><path d="M43.884 111.514a2.192 2.192 0 01.61-1.563 2.128 2.128 0 011.553-.657 2.178 2.178 0 012.18 2.22 2.094 2.094 0 01-.685 1.499 2.178 2.178 0 01-1.485.556 2.295 2.295 0 01-1.467-.57 2.06 2.06 0 01-.706-1.485zm3.404.028a.792.792 0 00-.973-.717.791.791 0 00.188 1.559.818.818 0 00.788-.842h-.003zm-1.241-1.516a1.394 1.394 0 00-1.001.45 1.73 1.73 0 00-.247.344 1.523 1.523 0 011.913-.484c.216.105.403.259.549.45a1.802 1.802 0 00-.216-.323 1.343 1.343 0 00-.995-.451l-.003.014z" fill="#414141"/><path d="M41.272 108.724h1.155a4.327 4.327 0 00-.723 4.749 5.09 5.09 0 001.8 2.062 5.58 5.58 0 001.607.687c.244.042.49.068.737.079v.086h-.103v.055a7.303 7.303 0 01-.624-.11 5.637 5.637 0 01-3.88-2.299 4.654 4.654 0 01-.83-2.814 4.701 4.701 0 01.86-2.495zm6.592 7.251a4.85 4.85 0 002.235-2.729c.074-.217.134-.438.178-.663.04-.227.067-.457.08-.687a5.018 5.018 0 00-.104-1.375 6.123 6.123 0 00-.997-2.168l.685.017.113.158h.326c.255.276.476.582.658.911.245.427.419.891.515 1.374.05.244.077.493.079.742a4.876 4.876 0 01-.08.736 5.755 5.755 0 01-.184.715 5.18 5.18 0 01-.306.67 4.72 4.72 0 01-.905 1.147 5.29 5.29 0 01-1.169.846 5.71 5.71 0 01-1.004.419l-.309.127-.274.079-.212.072a.058.058 0 00-.042 0v-.068h-.024v-.09c.072 0 .144-.037.216-.055.18-.047.355-.107.525-.178zm44.498-1.56a18.21 18.21 0 012.862-2.671 19.734 19.734 0 013.329-2.061 17.32 17.32 0 013.688-1.313 19.306 19.306 0 013.891-.457c2.617.013 5.218.403 7.724 1.158a53.536 53.536 0 017.333 2.677v.048c-2.465-.828-4.892-1.77-7.388-2.471a32.746 32.746 0 00-3.788-.852 23.054 23.054 0 00-3.863-.323 19.065 19.065 0 00-3.847.419c-1.26.291-2.484.723-3.647 1.289a19.391 19.391 0 00-3.305 2.027c-1.028.793-2 1.655-2.91 2.581l-.08-.051zm21.72 2.666a14.896 14.896 0 003.545-1.464 9.853 9.853 0 001.563-1.113c.489-.418.92-.898 1.282-1.43l.035.021a8.089 8.089 0 01-2.798 2.66 10.7 10.7 0 01-3.61 1.402l-.017-.076zm-2.427.217c.12 0 .237-.021.343-.024.106-.004.23-.021.343-.038.233 0 .456-.058.685-.082l.021.079a1.53 1.53 0 01-.343.147c-.112.03-.227.052-.343.066a2.2 2.2 0 01-.363 0 1.321 1.321 0 01-.343-.093v-.055zm-18.885-5.179a92.17 92.17 0 014.669-4.598c.394-.378.819-.725 1.237-1.079.409-.365.835-.709 1.279-1.031a14.18 14.18 0 012.91-1.553l.113.302a13.728 13.728 0 00-2.886 1.454c-.446.308-.875.64-1.286.993-.421.344-.85.687-1.254 1.031a92.031 92.031 0 00-4.769 4.484l-.014-.003zm11.004-8.567a17.344 17.344 0 017.134-.667 15.94 15.94 0 013.507.808c1.134.4 2.211.949 3.202 1.632l-.096.144a15.82 15.82 0 00-6.658-2.185 18.564 18.564 0 00-3.52-.028 20.246 20.246 0 00-3.466.605l-.103-.309zm14.755 2.478l1.076.842-.051.075-1.173-.708.148-.209z" fill="#414141"/><path d="M95.735 113.346c.078.259.178.51.298.752.06.121.13.236.21.344a.864.864 0 00.294.275.849.849 0 01-.374-.199 2.135 2.135 0 01-.308-.303 4.903 4.903 0 01-.511-.687l.39-.182zm-.587-.303a50.099 50.099 0 013.49-2.694l.179.265a49.709 49.709 0 00-3.583 2.532l-.085-.103zm3.487 3.128l2.883.343 2.887.303 2.89.302c.959.1 1.926.186 2.889.258v.075c-.966-.034-1.936-.082-2.903-.14a58.902 58.902 0 01-2.9-.238 89.098 89.098 0 01-2.884-.374 69.667 69.667 0 01-2.869-.467l.007-.062zm9.582 5.543a16.724 16.724 0 003.932-.279 11.104 11.104 0 001.885-.536 6.127 6.127 0 001.673-.948l.202.247a6.308 6.308 0 01-1.792.931 11.58 11.58 0 01-1.941.468 16.6 16.6 0 01-3.959.123v-.006zm9.667-2.774l1.56-.976.069.1-1.444 1.138-.185-.262zm-7.964-13.453a4.268 4.268 0 01-1.978 2.749l-.147-.272a4.115 4.115 0 002.115-2.495l.01.018zm.402-.55c.092.539.092 1.09 0 1.629a2.976 2.976 0 01-.244.793.89.89 0 01-.614.547v-.038c.192-.166.352-.365.474-.588.124-.232.217-.481.274-.738a4.064 4.064 0 00.099-1.602l.011-.003zm1.172 1.295c.064.404.028.817-.106 1.203a1.887 1.887 0 01-.312.516.695.695 0 01-.538.302v-.038c.157-.13.288-.24.425-.374a1.81 1.81 0 00.308-.478c.183-.354.259-.754.22-1.151l.003.02zm6.051 1.512a3.263 3.263 0 01-.837 1.107 2.34 2.34 0 01-.61.368.802.802 0 01-.706 0v-.038a3.13 3.13 0 00.637-.114 2.19 2.19 0 00.59-.305c.383-.256.695-.603.909-1.011l.017-.007zm-3.182-.532c-.01.353-.1.7-.264 1.014-.09.159-.206.303-.342.426a.575.575 0 01-.511.171v-.041c.151-.096.271-.172.404-.264.132-.096.248-.212.343-.344.207-.275.334-.602.367-.945l.003-.017zm-6.373-1.323c.138.325.198.678.175 1.031-.012.18-.055.356-.127.522a.56.56 0 01-.39.368l-.021-.031c.096-.151.175-.272.257-.409a1.49 1.49 0 00.154-.468 1.875 1.875 0 00-.054-1.01l.006-.003zm-1.086.254c.078.279.086.573.024.856a1.328 1.328 0 01-.172.409.457.457 0 01-.373.24l-.017-.038c.076-.106.16-.207.25-.302a1.13 1.13 0 00.188-.344c.114-.255.145-.54.089-.814l.011-.007zm-4.543.382c.172.233.283.506.323.793.018.148.011.298-.021.444a.45.45 0 01-.267.343l-.031-.027c.036-.127.081-.251.134-.371.04-.127.06-.259.058-.392a1.383 1.383 0 00-.199-.794l.003.004zm18.509 1.481c0 .335-.066.667-.195.976-.119.31-.283.6-.487.862a3.048 3.048 0 01-.737.687 1.602 1.602 0 01-.946.292v-.037c.296-.126.584-.269.863-.43a2.85 2.85 0 00.727-.608 2.79 2.79 0 00.768-1.742h.007zm2.324 1.381a2.502 2.502 0 01-.576.791c-.24.228-.511.421-.805.573-.3.151-.622.252-.953.299a1.605 1.605 0 01-.981-.137v-.038c.317.019.634.019.95 0 .317-.03.628-.112.919-.244a2.784 2.784 0 001.429-1.251l.017.007zm-3.5-.385c-.36.342-.784.608-1.248.784a2.448 2.448 0 01-.737.154.812.812 0 01-.685-.251l.024-.034a2.23 2.23 0 001.371 0 3.175 3.175 0 001.268-.673l.007.02zm3.901 1.852a3.751 3.751 0 01-1.323.65 2.51 2.51 0 01-.747.076.838.838 0 01-.686-.324l.028-.03c.211.091.433.153.661.185.236.025.474.013.706-.034a3.178 3.178 0 001.344-.529l.017.006zm-7.494-3.426c-.113.451-.3.881-.551 1.272a2.63 2.63 0 01-.467.532.718.718 0 01-.685.207v-.042c.202-.069.391-.17.562-.299.176-.136.333-.295.466-.474a3.46 3.46 0 00.651-1.196h.024zm-1.364-1.752a3.976 3.976 0 01-.442.934 6.101 6.101 0 01-.624.832 4.825 4.825 0 01-.782.687 1.15 1.15 0 01-.473.241 1.162 1.162 0 01-.531 0v-.041c.323-.044.631-.162.901-.344.283-.185.545-.399.782-.639a4.47 4.47 0 001.148-1.677l.021.007z" fill="#414141"/><path d="M111.34 105.284a6.475 6.475 0 01-.504 1.66 3.799 3.799 0 01-1.029 1.446l-.185-.261a3.648 3.648 0 001.053-1.261 6.581 6.581 0 00.634-1.587l.031.003zm.229 14.096a2.025 2.025 0 00-.161-1.075 4.038 4.038 0 00-.634-.894l.086-.079c.148.119.275.262.377.423.105.16.194.33.264.508.135.358.162.748.079 1.121l-.011-.004zm.535-.254a2.524 2.524 0 00-.301-1.031 1.794 1.794 0 00-.306-.436 1.467 1.467 0 00-.428-.303v-.038c.1-.003.2.017.291.06.09.043.169.108.23.188.124.145.224.309.298.484.144.345.218.716.216 1.09v-.014zm2.146-.808a1.375 1.375 0 00-.483-1.075 2.316 2.316 0 00-.343-.21v-.041a.603.603 0 01.398.172c.107.097.195.214.26.343.138.248.195.533.165.815l.003-.004zm5.396-1.996a2.055 2.055 0 00-1.083-.522 1.83 1.83 0 00-.6 0c-.198.038-.39.104-.569.195l-.024-.034c.158-.148.36-.241.576-.265.21-.025.424-.015.631.031a2.02 2.02 0 011.069.588v.007zm.867-1.454a2.047 2.047 0 00-1.21-.044 1.81 1.81 0 00-.552.24 2.241 2.241 0 00-.442.406l-.034-.021a.993.993 0 01.422-.474c.182-.108.381-.184.589-.224a2.06 2.06 0 011.224.11l.003.007zm-6.87 4.145a2.463 2.463 0 00-.685-1.76l.106-.096a2.58 2.58 0 01.624 1.859l-.045-.003zm2.74-1.014a1.38 1.38 0 00-.484-1.076 2.422 2.422 0 00-.343-.213v-.038c.149.006.29.066.398.169.105.099.193.215.261.343.137.248.193.533.161.815h.007zm-.306.605a2.464 2.464 0 00-.685-1.763l.106-.096a2.534 2.534 0 01.624 1.859h-.045zm-1.165-11.935a3.802 3.802 0 01-2.904 2.227l-.034-.317a3.646 3.646 0 002.938-1.91zm-1.735 2.227a7.43 7.43 0 002.225-.688c.348-.174.674-.389.97-.642.305-.252.553-.566.727-.921a3.38 3.38 0 01-.624 1.031 3.789 3.789 0 01-.953.756 6.78 6.78 0 01-2.31.735l-.035-.271zm1.951.556c.114-.015.229-.015.343 0h.342c.244 0 .484-.017.727-.031.478.015.955-.041 1.416-.168.456-.145.875-.39 1.224-.718.362-.326.643-.732.823-1.186a2.874 2.874 0 01-.7 1.289 3.396 3.396 0 01-1.237.835 4.466 4.466 0 01-1.478.216c-.243 0-.49.025-.737.025h-.373a1.4 1.4 0 00-.388 0l.038-.262zm2.256.76c.252-.002.502-.051.737-.145l.709-.233.686-.237.343-.121a.988.988 0 01.363-.089c-.096.103-.223.117-.343.179l-.343.144c-.229.096-.456.199-.685.289l-.686.275c-.227.104-.471.17-.72.195l-.061-.257zm1.577.553c.225.046.457.051.685.017.231-.025.46-.066.686-.123.233-.055.463-.128.685-.217.228-.081.442-.197.635-.344-.167.186-.365.34-.587.454-.218.12-.448.221-.685.299a3.965 3.965 0 01-.734.192 1.188 1.188 0 01-.751-.096l.066-.182zm-19.565-2.471a.79.79 0 01.22.244c.102.198.157.417.16.639a.344.344 0 01-.143.31l-.127-.052a1.153 1.153 0 00-.127-1.124l.017-.017zm2.081-1.031c.053.289.036.586-.048.866-.08.289-.224.555-.422.78l-.127-.123c.203-.191.359-.426.456-.688.106-.265.154-.55.141-.835zm1.426.914c.185-.319.377-.632.545-.958.182-.321.313-.669.387-1.031-.031.371-.12.735-.264 1.079-.13.343-.284.687-.428 1.031l-.24-.121zm2.239-3.034c.096.534.07 1.083-.076 1.605a4.544 4.544 0 01-.668 1.495l-.251-.2a4.27 4.27 0 00.758-1.343 3.457 3.457 0 00.219-1.553l.018-.004zm1.343.162c.125.535.08 1.095-.126 1.604-.203.532-.561.99-1.029 1.313l-.175-.289a2.689 2.689 0 001.303-2.625l.027-.003zm.981 1.704l-.607 1.179-.254-.172.861-1.007zm6.315-2.495c-.22.945-.45 1.921-1.029 2.749a3.25 3.25 0 01-1.114 1 2.295 2.295 0 01-1.505.265l.065-.313a2.03 2.03 0 001.334-.168 3.037 3.037 0 001.093-.88c.6-.749.885-1.711 1.156-2.653zm-4.114 14.849a2.14 2.14 0 000-1.031 1.578 1.578 0 00-.189-.471l-.144-.202c-.051-.062-.113-.114-.178-.179l.021-.034a.677.677 0 01.404.343c.081.161.137.334.165.512.058.345.029.7-.083 1.031l.004.031zm8.491-2.234a2.09 2.09 0 00-.795-.639 1.605 1.605 0 00-.48-.144h-.25a2.077 2.077 0 00-.25.027v-.038a.708.708 0 01.531-.092c.177.032.348.095.504.185.309.169.572.412.764.708l-.024-.007zm-12.434 1.189a1.375 1.375 0 00-.219-.776 1.232 1.232 0 00-.257-.313 2.073 2.073 0 00-.343-.21v-.041a.591.591 0 01.394.172c.107.098.196.214.261.344.137.248.195.532.164.814v.01zm1.135.592c.146-.285.218-.602.209-.921a1.39 1.39 0 00-.308-.863l.024-.031a.69.69 0 01.305.399c.045.161.064.328.055.495a1.9 1.9 0 01-.278.924l-.007-.003zm1.896-.434a1.355 1.355 0 00-.343-.718 1.205 1.205 0 00-.315-.244 2.094 2.094 0 00-.374-.144v-.041a.61.61 0 01.422.092c.121.077.229.173.318.286.181.218.29.487.312.769h-.02zm8.341-.529a1.657 1.657 0 00-.312-.862 1.365 1.365 0 00-.319-.32 1.855 1.855 0 00-.401-.206v-.041a.687.687 0 01.459.161c.126.103.234.226.319.365.171.27.262.583.26.903h-.006zm-1.625.289a1.386 1.386 0 00-.343-.722 1.196 1.196 0 00-.316-.24 2.393 2.393 0 00-.373-.148v-.038a.624.624 0 01.421.09 1.41 1.41 0 01.631 1.058h-.02z" fill="#414141"/><path d="M115.138 118.301a2.065 2.065 0 00-.226-.687 1.295 1.295 0 00-.213-.296.954.954 0 00-.281-.206v-.038a.428.428 0 01.343.172c.083.105.15.22.199.344.103.232.16.482.168.735l.01-.024zm-12.838-9.498c.095-.045.186-.101.27-.165.09-.083.186-.107.264-.254.079-.148.182-.141.282-.165.099-.017.2-.028.301-.035.408 0 .816.017 1.214-.02a29.287 29.287 0 012.4-.076c.802.001 1.603.051 2.399.151.398.059.792.127 1.186.203.395.076.799.12 1.111.577l-.13.609a4.094 4.094 0 00-1.118-.344 31.546 31.546 0 00-1.152-.21 22.085 22.085 0 00-2.324-.261 25.475 25.475 0 00-2.345-.021c-.391.021-.785.025-1.176.076l-.291.034a.48.48 0 00-.281.09 1.538 1.538 0 01-.566.168l-.044-.357zm24.237-11.162c-2.712-1.03-5.112-2.794-7.885-3.584a23.86 23.86 0 00-4.227-.842 14.14 14.14 0 00-4.258.21c-2.797.666-5.605 1.433-8.388 2.216a181.99 181.99 0 00-8.297 2.578c1.372-.482 2.719-1.007 4.08-1.506 1.36-.498 2.722-1.013 4.083-1.522l4.079-1.577a84.451 84.451 0 012.057-.76l1.029-.364c.343-.12.685-.24 1.076-.36a11.294 11.294 0 014.7-.424 16.76 16.76 0 012.256.52c.73.212 1.443.453 2.139.731a19.139 19.139 0 013.946 2.23 66.69 66.69 0 011.786 1.258c.59.426 1.196.811 1.824 1.196z" fill="#414141"/><path d="M86.9 99.48c.957-1.688 1.715-3.502 3.041-4.99a6.41 6.41 0 012.458-1.612c.905-.381 1.834-.687 2.743-1.03a55.046 55.046 0 015.615-1.626c1.888-.458 3.784-.895 5.687-1.31 1.91-.377 3.806-.766 5.753-1.03a7.011 7.011 0 011.522-.042 4.74 4.74 0 011.484.42c.881.444 1.729.952 2.537 1.519a43.051 43.051 0 018.66 7.814 81.917 81.917 0 00-4.601-3.57 66.004 66.004 0 00-2.4-1.595c-.809-.519-1.618-1-2.437-1.467-.411-.23-.826-.454-1.244-.667a11.83 11.83 0 00-1.173-.553 2.937 2.937 0 00-.994-.206 5.212 5.212 0 00-1.138.072l-5.66.907-2.866.44-1.43.234-1.436.216c-1.903.31-3.83.608-5.653 1.096-.946.285-1.889.52-2.79.822-.902.302-1.787.687-2.434 1.374a13.23 13.23 0 00-1.752 2.292c-.528.797-.97 1.66-1.492 2.492zm6.6 16.031a24.357 24.357 0 017.312.093l-.058.316a24.156 24.156 0 00-7.244-.32l-.01-.089zm7.682.144c1.642.23 3.281.461 4.93.595 1.642.153 3.294.153 4.936 0a25.191 25.191 0 004.82-1.031c.786-.251 1.544-.58 2.263-.983a4.25 4.25 0 001.762-1.667l.038.017a4.198 4.198 0 01-1.714 1.794 12.95 12.95 0 01-2.263 1.083 20.775 20.775 0 01-4.868 1.137 27.312 27.312 0 01-5.002 0c-1.659-.134-3.304-.371-4.946-.605l.044-.34zm21.933-3.965a42.48 42.48 0 00-7.298-2.708 39.71 39.71 0 00-7.655-1.354c-2.571-.193-5.235-.138-7.645.845a18.015 18.015 0 00-3.397 1.876 37.56 37.56 0 00-3.086 2.385c1.934-1.718 4.001-3.385 6.421-4.416 1.216-.497 2.5-.801 3.809-.903a24.84 24.84 0 013.915 0 40.024 40.024 0 0114.936 4.278v-.003z" fill="#414141"/><path d="M121.107 111.731c-2.277-.749-4.533-1.516-6.829-2.045a36.504 36.504 0 00-6.973-.917 20.37 20.37 0 00-6.884.9 29.738 29.738 0 00-6.387 3.051 20.117 20.117 0 016.109-3.835 17.463 17.463 0 013.535-.969 20.445 20.445 0 013.658-.227c2.43.093 4.839.495 7.168 1.196a34.255 34.255 0 016.603 2.846zm-8.334 5.443c.685-.254 1.371-.471 2.057-.708a22.785 22.785 0 001.971-.77c.641-.276 1.261-.6 1.854-.969a10.344 10.344 0 001.673-1.319 4.926 4.926 0 01-1.371 1.739 7.795 7.795 0 01-1.896 1.165c-.677.292-1.382.513-2.105.659a9.582 9.582 0 01-2.183.203zm-8.848-.213c.63-.054 1.264-.06 1.895-.017.628.027 1.245.089 1.862.13.617.042 1.227.097 1.844.131s1.231.041 1.872.051a6.077 6.077 0 01-1.858.475c-.636.058-1.277.058-1.913 0a15.571 15.571 0 01-1.872-.282 14.643 14.643 0 01-1.83-.488z" fill="#414141"/><path d="M104.658 111.514a2.19 2.19 0 01.626-1.569 2.188 2.188 0 012.399-.483c.267.112.508.279.709.489.401.42.62.982.61 1.563a2.068 2.068 0 01-.686 1.485 2.295 2.295 0 01-1.467.57 2.18 2.18 0 01-1.992-1.232 2.096 2.096 0 01-.199-.823zm1.714.87a.845.845 0 10-.252-1.63.845.845 0 00-.533.788.826.826 0 00.223.586.812.812 0 00.573.256h-.011zm.467-2.372a1.329 1.329 0 00-.998.454c-.083.1-.156.208-.216.323a1.53 1.53 0 012.461.034 1.884 1.884 0 00-.246-.343 1.401 1.401 0 00-1.001-.468zm-5.503.812c.096-.484.27-.948.515-1.375.182-.329.403-.635.658-.911h.322c.041-.051.079-.106.117-.158l.685-.017a6.128 6.128 0 00-.997 2.168 5.002 5.002 0 00-.103 1.375c.011.231.037.46.079.687.044.225.104.447.178.664a4.853 4.853 0 002.235 2.728c.172.077.35.141.531.193.072 0 .144.041.216.055v.089h-.027v.069h-.041a1.2 1.2 0 01-.213-.059l-.274-.079-.308-.127a5.702 5.702 0 01-1.005-.419 5.235 5.235 0 01-1.169-.846 4.678 4.678 0 01-.905-1.147 5.002 5.002 0 01-.305-.671 4.77 4.77 0 01-.185-.714 4.915 4.915 0 01-.079-.736 3.82 3.82 0 01.075-.769z" fill="#414141"/><path d="M109.386 115.535a5.1 5.1 0 001.8-2.062 4.326 4.326 0 00-.724-4.749h1.155c.521.731.821 1.597.864 2.495a4.658 4.658 0 01-.829 2.814 5.64 5.64 0 01-3.881 2.299 7.337 7.337 0 01-.624.11v-.055h-.103v-.086c.247-.011.494-.037.737-.079a5.565 5.565 0 001.605-.687zm29.115 6.045a17.767 17.767 0 002.688-1.883 23.577 23.577 0 004.329-5.001c.283-.475.54-.966.768-1.47a2.967 2.967 0 00.251-1.719c-.263.149-.5.341-.7.567-.192.194-.361.41-.504.643-.281.457-.565.907-.829 1.375-.539.917-1.046 1.859-1.66 2.749a23.317 23.317 0 01-1.991 2.515 24.961 24.961 0 01-2.352 2.224zM89.619 33.2a16.276 16.276 0 01-6.212.55 39.569 39.569 0 01-6.17-1.133c-2.033-.492-4.056-1.062-6.12-1.454-1.028-.165-2.057-.343-3.113-.498l-3.143-.265c-8.416-.343-16.87 1.832-24.2 5.956a45.267 45.267 0 00-9.979 7.677l-1.1 1.134c-.343.381-.686.804-1.029 1.202l-1.028 1.217c-.172.2-.331.41-.477.629l-.456.642a42.995 42.995 0 00-3.335 5.361c-1.992 3.705-3.645 7.56-5.534 11.313a60.342 60.342 0 01-3.06 5.498c-.282.444-.566.884-.872 1.31-.286.438-.597.86-.929 1.264-.336.4-.738.74-1.19 1.004a1.793 1.793 0 01-1.508.154 1.788 1.788 0 001.52-.13 4.53 4.53 0 001.216-.993c.341-.401.66-.82.957-1.255.312-.419.603-.859.89-1.295a60.644 60.644 0 003.162-5.45c1.933-3.732 3.62-7.581 5.636-11.255A43.823 43.823 0 0140.86 36.754a45.736 45.736 0 0123.98-6l3.12.234c1.028.13 2.057.313 3.085.467 2.057.368 4.08.921 6.123 1.392 2.036.508 4.11.853 6.201 1.03a16.4 16.4 0 006.25-.676z" fill="#414141"/><path d="M78.087 35.94a40.678 40.678 0 00-14.268-3.818 39.68 39.68 0 00-7.45.14 36.83 36.83 0 00-7.302 1.564 30.418 30.418 0 00-12.701 7.829 32.375 32.375 0 00-4.48 6.048 47.035 47.035 0 00-3.168 6.797c-1.735 4.694-2.88 9.526-4.097 14.306-1.217 4.78-2.492 9.536-4.456 14.014a37.097 37.097 0 01-3.57 6.375c-1.394 1.993-3.105 3.78-4.727 5.642-1.621 1.863-3.154 3.883-4.137 6.186a13.314 13.314 0 00-.998 3.594 11.458 11.458 0 00.24 3.701 11.391 11.391 0 01-.048-3.673 13.081 13.081 0 011.118-3.481c1.049-2.217 2.626-4.124 4.292-5.911s3.428-3.567 4.912-5.588a37.695 37.695 0 003.812-6.44c2.143-4.522 3.452-9.35 4.735-14.12 1.282-4.77 2.4-9.58 4.113-14.155a45.706 45.706 0 013.058-6.629 31.935 31.935 0 014.285-5.842 28.376 28.376 0 015.581-4.587 32.972 32.972 0 016.538-3.138 38.308 38.308 0 0114.398-2.014 42.224 42.224 0 0114.32 3.2z" fill="#414141"/><path d="M26.363 64.802a18.592 18.592 0 01-.785 2.722c-.343.88-.743 1.736-1.197 2.564a42.587 42.587 0 01-3.085 4.746c-1.118 1.522-2.26 3.037-3.326 4.611a79.548 79.548 0 00-3.01 4.835 67.627 67.627 0 00-4.713 10.365 70.527 70.527 0 00-1.673 5.443c-.117.46-.244.918-.343 1.375a3.965 3.965 0 00-.045 1.436c.078.484.337.92.724 1.22a1.343 1.343 0 001.344.241 1.317 1.317 0 01-1.303-.289 1.84 1.84 0 01-.651-1.189c-.13-.931.205-1.849.462-2.749a71.274 71.274 0 011.78-5.385 71.002 71.002 0 014.775-10.268 63.457 63.457 0 012.962-4.811c1.028-1.574 2.187-3.093 3.267-4.64a41.544 41.544 0 003.006-4.838 20.65 20.65 0 001.118-2.622c.311-.9.543-1.826.692-2.767zm-5.06 21.124c-.686 1.78-1.742 3.347-2.822 4.9-1.08 1.554-2.221 3.073-3.28 4.668a34.482 34.482 0 00-2.795 5.024 21.558 21.558 0 00-1.655 5.498 39.033 39.033 0 012.252-5.203 54.785 54.785 0 012.91-4.845c1.029-1.585 2.133-3.134 3.124-4.773.99-1.64 1.906-3.382 2.266-5.269zm120.482-1.982a61.947 61.947 0 00-2.088-7.581l-.685-1.849-.734-1.845-.778-1.808-.847-1.78a65.294 65.294 0 00-3.874-6.873c-.73-1.1-1.484-2.189-2.224-3.282l-2.4-3.151a71.504 71.504 0 00-5.331-5.842 77.624 77.624 0 00-5.944-5.213c-2.023-1.64-4.056-3.248-5.893-5.062a23.013 23.013 0 01-4.663-6.186 20.166 20.166 0 004.066 6.756 60.587 60.587 0 005.646 5.499c1.941 1.718 3.847 3.47 5.643 5.333a75.607 75.607 0 015.142 5.78l2.379 3.048 2.215 3.172c1.478 2.138 2.787 4.361 4.049 6.622l.922 1.719.874 1.745.843 1.742.816 1.79c1.056 2.365 1.982 4.812 2.866 7.266z" fill="#414141"/><path d="M132.015 66.871c-.415-.838-.881-1.653-1.347-2.47l-.782-1.172c-.267-.385-.548-.756-.826-1.138-.562-.763-1.179-1.464-1.803-2.172-.624-.708-1.286-1.357-1.958-2.024a36.371 36.371 0 00-4.381-3.553 26.263 26.263 0 00-4.923-2.701 178.374 178.374 0 014.32 3.498c1.409 1.186 2.759 2.44 4.103 3.67.662.626 1.32 1.279 1.964 1.932.645.653 1.283 1.316 1.913 1.976l1.872 2.061c.6.701 1.197 1.41 1.848 2.093zm-5.321.657a37.949 37.949 0 013.106 3.161 39.008 39.008 0 012.671 3.54 14.062 14.062 0 00-5.777-6.701zm-25.532-35.544a39.795 39.795 0 00-9.658-8.051 24.09 24.09 0 00-8.957-3.303 31.05 31.05 0 00-3.185-.312 34.133 34.133 0 00-6.356.436 41.643 41.643 0 00-6.153 1.515c-2.006.647-3.96 1.423-5.883 2.255-1.896.89-3.792 1.776-5.66 2.715a291.22 291.22 0 005.89-2.131c1.954-.725 3.942-1.326 5.937-1.88a47.772 47.772 0 016.047-1.275 34.556 34.556 0 016.127-.343c1.018.035 2.034.125 3.044.268a28.49 28.49 0 012.989.629 26.963 26.963 0 015.67 2.281 52.63 52.63 0 0110.148 7.196zm41.237 53.476c.233 1.34.459 2.676.641 4.016a74.82 74.82 0 01.452 4.031c.11 1.347.196 2.698.251 4.048.027.688.041 1.354.048 2.031v2.062c.085-.687.137-1.354.192-2.03.055-.678.058-1.375.072-2.042a41.374 41.374 0 00-.155-4.082 38.406 38.406 0 00-.555-4.049 34.918 34.918 0 00-.946-3.986zm-19.815-36.616l6.363 7.98c2.115 2.662 4.237 5.326 6.28 8.044a101.459 101.459 0 015.9 8.31c1.783 2.879 3.243 5.992 3.966 9.33a23.802 23.802 0 00-1.395-4.918 34.67 34.67 0 00-2.293-4.585c-1.735-2.948-3.802-5.67-5.828-8.398-2.026-2.729-4.196-5.368-6.366-7.99a358.29 358.29 0 00-6.627-7.773zm19.688 21.206c.538.972 1.073 1.914 1.546 2.893.473.98.891 1.98 1.327 3.004a10.122 10.122 0 00-2.873-5.897z" fill="#414141"/><path d="M100.215 36.129a11.433 11.433 0 00-1.474-3.024 13.017 13.017 0 00-5.073-4.389l-.772-.343-.792-.289-.812-.227a23.184 23.184 0 00-.823-.161c.264.092.528.185.792.271l.771.313.755.343.73.385a16.281 16.281 0 014.957 4.29 16.746 16.746 0 011.741 2.83zM87.833 26.74a13.999 13.999 0 00-6.812-1.374c1.145.247 2.276.44 3.408.687 1.131.247 2.249.474 3.404.687zm14.933 2.97a7.582 7.582 0 00-2.9-3.47 7.553 7.553 0 00-4.354-1.197 10.502 10.502 0 017.254 4.666zm.147-4.348a2.868 2.868 0 00-3.15-2.12 6.457 6.457 0 013.133 2.12h.017zm.302-4.642a1.147 1.147 0 00-.64-.866 1.141 1.141 0 00-1.074.051c.31.087.612.202.901.344.284.133.556.29.813.47zm1.251-7.251a.35.35 0 00-.061-.364c-.076-.07-1.142-1.458-2.4-1.4 1.097.4 2.026 1.626 2.091 1.719a.361.361 0 00.37.045zm3.422 16.165a13.516 13.516 0 017.884 5.072 9.319 9.319 0 00-3.259-3.603 9.291 9.291 0 00-4.625-1.47zm1.697-1.639c.624.255 1.226.562 1.799.917.565.37 1.099.785 1.598 1.24a3.57 3.57 0 00-3.397-2.155v-.002zm-.374-3.945a4.43 4.43 0 001.179.855c.427.235.891.397 1.371.478a4.436 4.436 0 00-1.165-.856 4.586 4.586 0 00-1.385-.477zm.836-2.509a.653.653 0 00.343.409c.62.192 1.212.464 1.762.808-.212-.581-1.429-1.11-1.57-1.19a.648.648 0 00-.535-.027zm-.264-2.251a7.61 7.61 0 015.485 3.282 5.097 5.097 0 00-2.165-2.61 5.08 5.08 0 00-3.32-.672zm.888-1.522c.332.185.686.328 1.053.426.362.11.736.173 1.114.189a2.03 2.03 0 00-.998-.601 2.08 2.08 0 00-1.169-.014zM97.864 37.197a6.397 6.397 0 00-1.948-3.027 6.88 6.88 0 00-1.518-1.01 5.478 5.478 0 00-.857-.344.567.567 0 00-.494.082c-.13.11-.175.344-.041.433a.245.245 0 01.106-.343.423.423 0 01.367.027c.25.117.51.275.758.423.495.303.962.648 1.398 1.03.879.79 1.63 1.71 2.229 2.73zm7.188-.381c.36.924.805 1.812 1.331 2.653a18.418 18.418 0 001.765 2.405 18.178 18.178 0 002.136 2.062c.386.31.781.607 1.186.894.415.268.826.54 1.262.773a25.26 25.26 0 00-.573-.464l-.562-.474c-.374-.32-.741-.643-1.097-.976a36.743 36.743 0 01-2.03-2.103 32.2 32.2 0 01-1.817-2.292 32.537 32.537 0 01-1.601-2.478zm14.32 13.931a7.463 7.463 0 00-3.894-3.192c.651.56 1.313 1.055 1.954 1.588.641.532 1.265 1.075 1.94 1.604zm-27.874-15.13c.51.185.98.343 1.422.522.432.189.844.419 1.23.687.397.275.78.57 1.146.883.394.34.817.646 1.265.911a6.766 6.766 0 00-.778-1.374 4.803 4.803 0 00-1.156-1.128 3.705 3.705 0 00-1.528-.611 3.42 3.42 0 00-1.602.11zm15.193-23.073a5.198 5.198 0 00-1.656-1.883 5.523 5.523 0 00-1.107-.611c-.199-.09-.41-.15-.627-.176a.867.867 0 00-.628.145 1.58 1.58 0 011.108.326c.342.213.685.43 1.008.663.659.48 1.294.993 1.902 1.536zm.823-1.46a4.479 4.479 0 00-.638-.9 3.433 3.433 0 00-.877-.712 2.397 2.397 0 00-1.111-.299 1.562 1.562 0 00-1.066.361 2.392 2.392 0 011.028-.027c.33.062.647.178.94.343.596.38 1.172.792 1.724 1.234zM24.378 65.126c-.638 2.749-1.906 5.257-3.428 7.598-1.523 2.34-3.233 4.546-4.927 6.776-1.693 2.23-3.28 4.574-4.494 7.12a21.54 21.54 0 00-1.45 3.966 14.948 14.948 0 00-.442 4.179c.054-2.811.929-5.526 2.187-8a46.402 46.402 0 014.556-6.993c1.662-2.248 3.4-4.468 4.864-6.873a29.62 29.62 0 001.944-3.742 18.507 18.507 0 001.19-4.031zM91.641 19.31c-3.664-1.57-7.665-2.24-11.655-2.384-3.99-.145-7.967.24-11.92.687l-2.962.344c-.497.048-.994.092-1.491.154l-1.481.248a42.26 42.26 0 00-5.773 1.598 62.975 62.975 0 00-10.761 5.148c-1.714 1.01-3.377 2.127-5.015 3.264a66.712 66.712 0 00-4.752 3.643 70.279 70.279 0 00-8.588 8.326 57.526 57.526 0 00-3.698 4.725c-.556.832-1.132 1.65-1.636 2.512a74.166 74.166 0 00-1.474 2.609 33.779 33.779 0 00-2.262 5.532 24.72 24.72 0 00-.998 5.887 24.635 24.635 0 011.097-5.842 33.526 33.526 0 012.331-5.481 47.444 47.444 0 013.144-5.059 57.094 57.094 0 013.716-4.656c1.303-1.498 2.708-2.907 4.114-4.299 1.405-1.392 2.917-2.697 4.456-3.945a98.99 98.99 0 014.738-3.608 62.7 62.7 0 015.002-3.23 62.385 62.385 0 0110.696-5.155 41.973 41.973 0 015.71-1.605l1.465-.247c.49-.062.984-.107 1.474-.162l3-.399c3.942-.47 7.905-.883 11.878-.787 3.973.097 7.953.674 11.645 2.183zm-74.96 43.77a15.437 15.437 0 01-2.93 6.358 7.797 7.797 0 002.93-6.357zm1.536 41.152a15.162 15.162 0 01-4.5 7.698 9.612 9.612 0 003.194-3.294 9.643 9.643 0 001.306-4.404zm-1.536.915c-.412.996-.899 1.96-1.457 2.883a21.871 21.871 0 01-1.91 2.605 7.833 7.833 0 003.367-5.499v.011zm-2.057.663a5.41 5.41 0 00-.942 1.292c-.264.466-.456.97-.57 1.495.379-.379.697-.814.943-1.289a5.34 5.34 0 00.57-1.498zm121.316-5.863a10.648 10.648 0 001.19 5.206 10.632 10.632 0 003.486 4.035 16.268 16.268 0 01-3.113-4.227 16.266 16.266 0 01-1.563-5.014zm-.041 4.351a10.538 10.538 0 001.077 3.395c.269.533.578 1.044.925 1.529.173.246.36.482.559.708.06.061.129.111.206.148a.314.314 0 00.27 0 .148.148 0 00.066-.05.152.152 0 00.027-.077.187.187 0 00-.051-.124.204.204 0 00-.1-.069.058.058 0 00-.032-.003.065.065 0 00-.029.014.058.058 0 00-.018.026.058.058 0 00-.003.032c.024-.1.11-.017.13.034.021.052.021.11-.031.11-.051 0-.202-.079-.274-.185-.147-.234-.295-.505-.439-.753a50.356 50.356 0 01-.826-1.543c-.535-1.027-.984-2.099-1.457-3.192zm.202 5.092c.024.262.71 1.296.847 1.444.154.157.36.253.579.271a.904.904 0 00-.281-.577 5.716 5.716 0 01-1.145-1.138zM77.7 34.067c.3.54.705 1.017 1.189 1.402a6.82 6.82 0 001.618.928 9.444 9.444 0 003.654.635 19.733 19.733 0 003.603-.463 39.4 39.4 0 003.51-.805c-1.203-.02-2.399.045-3.613.145-1.213.1-2.365.258-3.527.271a11.558 11.558 0 01-3.428-.409 8.339 8.339 0 01-1.605-.646 6.451 6.451 0 01-1.402-1.058z" fill="#414141"/><path d="M76.623 36.084c-5.657-.278-11.33-.375-17.021.254-1.42.162-2.838.378-4.244.688a37.221 37.221 0 00-4.179 1.1c-.686.223-1.371.446-2.057.735-.685.288-1.32.532-1.998.873l-.974.494-.483.244-.46.265c-.6.344-1.234.739-1.865 1.141-.63.402-1.206.811-1.758 1.271-.552.46-1.139.884-1.68 1.396l-.785.711c-.264.24-.521.516-.782.773-.26.258-.514.522-.764.787s-.518.526-.737.804a46.305 46.305 0 00-5.009 6.997 65.354 65.354 0 00-3.819 7.663 81.936 81.936 0 00-2.9 8.017c2.328-5.154 4.8-10.268 7.85-14.976a69.762 69.762 0 012.4-3.436 48.379 48.379 0 012.68-3.206c.474-.516.954-.993 1.437-1.474.244-.241.47-.482.734-.719l.792-.704c.494-.46 1.028-.87 1.597-1.3.57-.429 1.125-.81 1.69-1.199a22.644 22.644 0 011.745-1.089l.46-.271.46-.238.914-.474c.583-.299 1.22-.556 1.883-.838.606-.268 1.275-.488 1.926-.729a46.777 46.777 0 018.09-1.993c5.55-.859 11.2-1.14 16.857-1.567zm58.793 1.564c.341.435.652.894.929 1.374.315.444.607.91.881 1.375a33.003 33.003 0 011.467 2.948c.446 1.01.859 2.034 1.241 3.069.192.519.384 1.03.562 1.56l.686 1.523c-.11-.547-.244-1.086-.377-1.626-.134-.54-.37-1.03-.562-1.567a62.17 62.17 0 00-1.252-3.093 31.67 31.67 0 00-1.491-2.983 20.7 20.7 0 00-.895-1.416 8.82 8.82 0 00-1.189-1.164zm.754 77.777a23.402 23.402 0 01-.538-3.725c-.117-1.251-.203-2.505-.299-3.76-.178-2.508-.377-5.02-.62-7.529-.244-2.509-.562-5.017-1.029-7.505a36.982 36.982 0 00-.881-3.701 11.941 11.941 0 00-1.559-3.437c.55 1.127.939 2.325 1.155 3.56.26 1.224.452 2.461.627 3.701.175 1.241.322 2.489.453 3.736.13 1.247.271 2.498.387 3.749.261 2.502.494 5.007.813 7.509.15 1.254.342 2.505.545 3.749.116.622.24 1.244.387 1.859.131.614.318 1.215.559 1.794zm1.248 2.622c.267-.808.504-1.619.754-2.43l.747-2.422a43.656 43.656 0 011.714-4.763h-.03c-.444.721-.824 1.48-1.135 2.268-.343.783-.6 1.591-.854 2.405a41.5 41.5 0 00-1.196 4.942zm2.567-33.664a2.43 2.43 0 01-2.032.928 3.532 3.532 0 01-2.153-.65 9.765 9.765 0 01-1.756-1.556 45.824 45.824 0 01-1.583-1.783 41.606 41.606 0 01-2.849-3.818 38.488 38.488 0 01-1.262-2.024c-.397-.691-.867-1.337-1.289-2.018.309.74.655 1.46 1.029 2.183.373.721.829 1.374 1.272 2.037a41.815 41.815 0 002.872 3.846 39.942 39.942 0 001.595 1.797c.534.602 1.137 1.14 1.796 1.601a4.82 4.82 0 001.111.54c.398.127.816.182 1.234.161a2.51 2.51 0 002.015-1.244z" fill="#414141"/><path d="M135.237 79.662c-.157-.12-.315-.234-.476-.344l-.463-.344a10.967 10.967 0 01-.956-.632 13.368 13.368 0 01-1.745-1.495 13.953 13.953 0 01-1.471-1.766c-.215-.314-.42-.637-.617-.97l-.343-.467a7.941 7.941 0 00-.343-.48c.11.377.254.742.401 1.11.199.343.412.687.635.992.45.644.953 1.249 1.505 1.808a14.27 14.27 0 001.782 1.53c.319.226.648.443.981.649.373.144.733.295 1.11.409zm-5.437 2.464l.724 1.14a28.726 28.726 0 012.252 3.31c.449.766.867 1.56 1.248 2.364.188.406.37.811.541 1.22.172.41.422.794.638 1.193-.092-.444-.219-.877-.343-1.317-.175-.412-.343-.824-.548-1.233a30.309 30.309 0 00-2.726-4.656 47.04 47.04 0 00-.809-1.083c-.274-.357-.637-.64-.977-.938zM62.903 270c-.082-.708-.233-1.375-.367-2.062-.308-.615-.538-1.261-.805-1.893l-1.515-3.829c-.515-1.278-2.218-5.993-2.815-7.216-.302-.619-.59-1.241-.919-1.845l-.935-1.836.84 1.88.798 1.897c.528 1.265 2.16 6 2.602 7.296l1.31 3.907c.212.653.47 1.292.661 1.955A20.56 20.56 0 0062.903 270zm27.137-.192l-.04.055c.078-.688.23-1.375.366-2.062.305-.615.535-1.262.802-1.89l1.516-3.829a65.306 65.306 0 011.666-3.78c.302-.618.59-1.24.919-1.845l.935-1.835-.236.532.27-.532-.84 1.88s-2.574 7.175-2.639 7.343l-1.145 3.093c-.12.323-.25.643-.374.962-.02.072-.044.141-.065.21l-.03.055a4.94 4.94 0 00-.11.316c-.308.476-.643.935-1.001 1.375a.275.275 0 01.007-.048zM19.146 91.04l-.267 3.285a151.12 151.12 0 01-.172 3.285 121.893 121.893 0 01-.6 6.55 154.838 154.838 0 01-.911 6.512l-.545 3.244-.422 3.272c.26-1.069.497-2.141.737-3.213l.545-3.251c.343-2.169.658-4.344.915-6.529.258-2.186.46-4.372.6-6.564.069-1.096.127-2.196.175-3.292 0-1.1-.017-2.196-.055-3.3zm-3.599 27.419c0-.405-.052-.807-.093-1.209-.04-.402-.171-.791-.27-1.183a22.485 22.485 0 00-1.687-4.532c-.182-.344-.374-.715-.573-1.066-.199-.35-.463-.663-.716-.979.178.364.363.722.531 1.086.168.364.387.687.566 1.055a22.374 22.374 0 011.937 5.66c.078.392.188.776.305 1.168zm92.958-108.197a13.505 13.505 0 00-3.123-3.415 20.836 20.836 0 00-3.994-2.406 36.59 36.59 0 00-4.368-1.666l-2.231-.62-1.108-.291-1.176-.282A65.779 65.779 0 0074.031.18a74.28 74.28 0 00-9.198 1.313 65.779 65.779 0 00-8.95 2.563l-2.14.856-1.076.43-1.066.491-2.078.986-2.057 1.09A58.444 58.444 0 0039.77 13a91.281 91.281 0 018.149-4.147l2.098-.904 2.139-.822 1.049-.402 1.077-.364 2.163-.728a81.207 81.207 0 0117.754-3.32l2.252-.113 1.145-.048 1.073-.021c1.574.024 3.055 0 4.532.11l2.277.117 2.27.237c1.473.12 2.937.402 4.49.625l1.07.196 1.124.234 2.225.47c1.468.332 2.914.756 4.33 1.269 2.814 1.013 5.505 2.532 7.518 4.872z" fill="#414141"/><path d="M142.43 108.061a152.25 152.25 0 002.938-13.344 128.51 128.51 0 001.549-13.612c.282-4.579.253-9.171-.089-13.746a87.885 87.885 0 00-2.129-13.618 77.283 77.283 0 00-4.546-13.032 64.714 64.714 0 00-7.024-11.872 56.138 56.138 0 00-9.492-9.939c-.881-.756-1.848-1.395-2.743-2.061a29.342 29.342 0 00-2.89-1.87 23.716 23.716 0 00-3.085-1.495 16.054 16.054 0 00-3.298-.893c1.091.291 2.148.698 3.154 1.213a23.647 23.647 0 012.91 1.7c.926.643 1.841 1.296 2.691 2.018.851.722 1.776 1.416 2.568 2.192a60.35 60.35 0 018.838 10.114 68.453 68.453 0 016.53 11.722 78.079 78.079 0 014.32 12.715 89.823 89.823 0 012.191 13.278c.412 4.49.558 8.999.438 13.505-.112 4.516-.42 9.028-.925 13.537-.494 4.505-1.18 8.996-1.906 13.488zM39.77 13.001a51.043 51.043 0 00-7.46 4.622 57.753 57.753 0 00-6.568 5.897 65.138 65.138 0 00-10.243 14.385 80.153 80.153 0 00-3.662 8.052 74.082 74.082 0 00-2.684 8.416 63.267 63.267 0 00-1.594 8.68 40.3 40.3 0 00-.24 4.41 15.45 15.45 0 00.521 4.364 9.683 9.683 0 01-.1-1.086l-.016-.543.02-.543c0-.361.028-.722.058-1.083.031-.36.059-.721.107-1.079.157-1.44.394-2.866.685-4.282a83.755 83.755 0 012.16-8.385c.878-2.749 1.83-5.467 2.955-8.117 1.125-2.649 2.314-5.271 3.672-7.804.343-.632.661-1.275 1.028-1.897l1.07-1.869 1.138-1.828c.37-.615.795-1.196 1.18-1.8a70.403 70.403 0 0111.182-13.084 78.76 78.76 0 016.791-5.426z" fill="#414141"/><path d="M82.89 196.071l2.887 5h-5.773l2.886-5zm-.5 22.403v-.51h1v.51h-1zm0-1.528v-1.018h1v1.018h-1zm0-2.037v-1.018h1v1.018h-1zm0-2.036v-1.019h1v1.019h-1zm0-2.037v-1.018h1v1.018h-1zm0-2.036v-1.019h1v1.019h-1zm0-2.037v-1.018h1v1.018h-1zm0-2.037v-1.018h1v1.018h-1zm0-2.036v-1.019h1v1.019h-1zm0-2.037v-1.018h1v1.018h-1zm0-2.037v-1.018h1v1.018h-1zm.5-2.545l5.774 10H77.117l5.773-10zm-1 22.403v-.51h2v.51h-2zm0-1.528v-1.018h2v1.018h-2zm0-2.037v-1.018h2v1.018h-2zm0-2.036v-1.019h2v1.019h-2zm0-2.037v-1.018h2v1.018h-2zm0-2.036v-1.019h2v1.019h-2zm0-2.037v-1.018h2v1.018h-2zm0-2.037v-1.018h2v1.018h-2zm0-2.036v-1.019h2v1.019h-2zm0-2.037v-1.018h2v1.018h-2zm0-2.037v-1.018h2v1.018h-2z" fill="#F31010"/><path d="M76.17 196.071l2.886 5h-5.773l2.887-5zm-.5 22.403v-.51h1v.51h-1zm0-1.528v-1.018h1v1.018h-1zm0-2.037v-1.018h1v1.018h-1zm0-2.036v-1.019h1v1.019h-1zm0-2.037v-1.018h1v1.018h-1zm0-2.036v-1.019h1v1.019h-1zm0-2.037v-1.018h1v1.018h-1zm0-2.037v-1.018h1v1.018h-1zm0-2.036v-1.019h1v1.019h-1zm0-2.037v-1.018h1v1.018h-1zm0-2.037v-1.018h1v1.018h-1zm.5-2.545l5.773 10H70.396l5.774-10zm-1 22.403v-.51h2v.51h-2zm0-1.528v-1.018h2v1.018h-2zm0-2.037v-1.018h2v1.018h-2zm0-2.036v-1.019h2v1.019h-2zm0-2.037v-1.018h2v1.018h-2zm0-2.036v-1.019h2v1.019h-2zm0-2.037v-1.018h2v1.018h-2zm0-2.037v-1.018h2v1.018h-2zm0-2.036v-1.019h2v1.019h-2zm0-2.037v-1.018h2v1.018h-2zm0-2.037v-1.018h2v1.018h-2z" fill="#F31010"/><path d="M69.449 196.071l2.886 5h-5.773l2.887-5zm-.5 22.403v-.51h1v.51h-1zm0-1.528v-1.018h1v1.018h-1zm0-2.037v-1.018h1v1.018h-1zm0-2.036v-1.019h1v1.019h-1zm0-2.037v-1.018h1v1.018h-1zm0-2.036v-1.019h1v1.019h-1zm0-2.037v-1.018h1v1.018h-1zm0-2.037v-1.018h1v1.018h-1zm0-2.036v-1.019h1v1.019h-1zm0-2.037v-1.018h1v1.018h-1zm0-2.037v-1.018h1v1.018h-1zm.5-2.545l5.773 10H63.675l5.774-10zm-1 22.403v-.51h2v.51h-2zm0-1.528v-1.018h2v1.018h-2zm0-2.037v-1.018h2v1.018h-2zm0-2.036v-1.019h2v1.019h-2zm0-2.037v-1.018h2v1.018h-2zm0-2.036v-1.019h2v1.019h-2zm0-2.037v-1.018h2v1.018h-2zm0-2.037v-1.018h2v1.018h-2zm0-2.036v-1.019h2v1.019h-2zm0-2.037v-1.018h2v1.018h-2zm0-2.037v-1.018h2v1.018h-2zm45.805-15.108l-1.046 5.678-4.394-3.746 5.44-1.932zm-14.913 16.725l.33-.388.761.649-.33.387-.761-.648zm.991-1.163l.66-.775.761.649-.66.775-.761-.649zm1.321-1.55l.66-.775.762.649-.661.775-.761-.649zm1.321-1.55l.661-.775.761.649-.661.775-.761-.649zm1.321-1.55l.661-.775.761.649-.661.775-.761-.649zm1.321-1.55l.661-.775.761.649-.661.775-.761-.649zm1.322-1.55l.66-.775.761.649-.66.775-.761-.649zm1.321-1.549l.66-.775.761.648-.66.775-.761-.648zm1.321-1.55l.661-.775.761.648-.661.775-.761-.648zm1.321-1.55l.661-.775.761.648-.661.775-.761-.648zm1.321-1.55l.661-.775.761.648-.661.775-.761-.648zm2.032-1.613l-2.093 11.355-8.788-7.49 10.881-3.865zm-15.294 16.4l.33-.387 1.523 1.297-.331.388-1.522-1.298zm.991-1.162l.661-.775 1.522 1.297-.661.775-1.522-1.297zm1.321-1.55l.661-.775 1.522 1.297-.661.775-1.522-1.297zm1.322-1.55l.66-.775 1.522 1.297-.66.775-1.522-1.297zm1.321-1.55l.66-.775 1.522 1.297-.66.775-1.522-1.297zm1.321-1.55l.661-.775 1.522 1.297-.661.775-1.522-1.297zm1.321-1.55l.661-.775 1.522 1.298-.661.775-1.522-1.298zm1.321-1.55l.661-.775 1.522 1.298-.661.775-1.522-1.298zm1.322-1.55l.66-.775 1.522 1.298-.66.775-1.522-1.298zm1.321-1.55l.66-.775 1.522 1.298-.66.775-1.522-1.298zm1.321-1.55l.66-.775 1.523 1.298-.661.775-1.522-1.298z" fill="#F31010"/><path d="M109.14 179.148l-1.047 5.678-4.394-3.746 5.441-1.932zm-14.914 16.725l.33-.388.761.649-.33.388-.76-.649zm.99-1.163l.662-.775.76.649-.66.775-.761-.649zm1.322-1.55l.66-.775.762.649-.66.775-.762-.649zm1.321-1.55l.66-.774.762.648-.66.775-.762-.649zm1.322-1.549l.66-.775.761.648-.66.775-.761-.648zm1.321-1.55l.66-.775.761.648-.66.775-.761-.648zm1.321-1.55l.66-.775.762.648-.661.775-.761-.648zm1.321-1.55l.661-.775.761.649-.661.774-.761-.648zm1.321-1.55l.661-.775.761.649-.661.775-.761-.649zm1.321-1.55l.661-.775.761.649-.661.775-.761-.649zm1.322-1.55l.66-.775.761.649-.66.775-.761-.649zm2.032-1.613l-2.094 11.356-8.787-7.491 10.881-3.865zm-15.294 16.4l.33-.387 1.522 1.297-.33.388-1.522-1.298zm.99-1.162l.661-.775 1.522 1.297-.66.775-1.523-1.297zm1.322-1.55l.66-.775 1.522 1.298-.66.774-1.522-1.297zm1.32-1.55l.661-.775 1.523 1.298-.661.775-1.522-1.298zm1.322-1.55l.66-.775 1.523 1.298-.661.775-1.522-1.298zm1.321-1.55l.661-.775 1.522 1.298-.661.775-1.522-1.298zm1.321-1.55l.661-.775 1.522 1.298-.661.775-1.522-1.298zm1.322-1.55l.66-.775 1.522 1.298-.66.775-1.522-1.298zm1.321-1.55l.66-.774 1.522 1.297-.66.775-1.522-1.298zm1.321-1.549l.661-.775 1.522 1.297-.661.775-1.522-1.297zm1.321-1.55l.661-.775 1.522 1.297-.661.775-1.522-1.297z" fill="#F31010"/><path d="M104.025 174.788l-1.047 5.678-4.394-3.746 5.441-1.932zm-14.914 16.725l.33-.388.762.649-.33.388-.762-.649zm.991-1.163l.66-.775.762.649-.66.775-.762-.649zm1.321-1.55l.661-.775.761.649-.66.775-.762-.649zm1.322-1.549l.66-.775.761.648-.66.775-.761-.648zm1.32-1.55l.661-.775.761.648-.66.775-.761-.648zm1.322-1.55l.66-.775.762.648-.661.775-.761-.648zm1.321-1.55l.66-.775.762.648-.66.775-.762-.648zm1.321-1.55l.66-.775.762.649-.66.775-.762-.649zm1.322-1.55l.66-.775.761.649-.66.775-.761-.649zm1.321-1.55l.66-.775.761.649-.66.775-.761-.649zm1.321-1.55l.661-.775.761.649-.661.775-.761-.649zm2.032-1.613l-2.093 11.356-8.788-7.491 10.881-3.865zm-15.294 16.4l.33-.387 1.522 1.297-.33.388-1.522-1.298zm.99-1.162l.661-.775 1.522 1.297-.66.775-1.522-1.297zm1.322-1.55l.66-.775 1.522 1.298-.66.775-1.522-1.298zm1.321-1.55l.66-.775 1.523 1.298-.66.775-1.523-1.298zm1.321-1.55l.66-.775 1.523 1.298-.66.775-1.523-1.298zm1.321-1.55l.661-.775 1.522 1.298-.66.775-1.523-1.298zm1.322-1.55l.66-.775 1.522 1.298-.66.775-1.522-1.298zm1.32-1.55l.661-.775 1.523 1.298-.661.775-1.522-1.298zm1.322-1.549l.66-.775 1.523 1.297-.661.775-1.522-1.297zm1.321-1.55l.661-.775 1.522 1.297-.661.775-1.522-1.297zm1.321-1.55l.661-.775 1.522 1.297-.661.775-1.522-1.297zm-49.019-1.289l5.243 2.415-4.713 3.334-.53-5.749zm12.527 18.579l-.294-.415.817-.578.293.416-.816.577zm-.882-1.247l-.588-.831.816-.577.589.831-.817.577zm-1.176-1.662l-.588-.832.817-.577.588.831-.817.578zm-1.176-1.663l-.588-.832.817-.577.587.831-.816.578zm-1.176-1.663l-.588-.831.817-.578.588.832-.817.577zm-1.176-1.663l-.588-.831.817-.578.588.832-.817.577zm-1.176-1.663l-.588-.831.817-.577.588.831-.817.577zm-1.176-1.662l-.588-.832.817-.577.588.831-.817.578zm-1.176-1.663l-.588-.832.817-.577.588.831-.817.578zm-1.176-1.663l-.588-.831.817-.578.588.832-.817.577zm-1.176-1.663l-.588-.831.817-.578.588.832-.817.577zm-1.062-2.367l10.488 4.831-9.427 6.667-1.06-11.498zm12.12 18.868l-.294-.416 1.633-1.154.294.415-1.633 1.155zm-.882-1.247l-.588-.831 1.633-1.155.588.831-1.633 1.155zm-1.176-1.663l-.588-.831 1.633-1.155.588.831-1.633 1.155zm-1.176-1.663l-.588-.831 1.633-1.155.588.832-1.633 1.154zm-1.176-1.662l-.588-.832 1.633-1.155.588.832-1.633 1.155zm-1.176-1.663l-.588-.832 1.633-1.154.588.831-1.633 1.155zm-1.176-1.663l-.588-.831 1.633-1.155.588.831-1.633 1.155zm-1.176-1.663l-.588-.831 1.633-1.155.588.831-1.633 1.155zm-1.176-1.663l-.588-.831 1.633-1.155.588.832-1.633 1.154zm-1.176-1.662l-.588-.832 1.633-1.155.588.832-1.633 1.155zm-1.176-1.663l-.588-.832 1.633-1.154.588.831-1.633 1.155z" fill="#F31010"/><path d="M47.105 178.669l5.244 2.415-4.714 3.334-.53-5.749zm12.528 18.579l-.294-.415.816-.578.294.416-.816.577zm-.882-1.247l-.588-.831.816-.578.588.832-.816.577zm-1.176-1.663l-.588-.831.816-.577.588.831-.816.577zm-1.176-1.662l-.588-.832.816-.577.588.831-.816.578zm-1.176-1.663l-.588-.832.816-.577.588.831-.816.578zm-1.176-1.663l-.588-.831.816-.578.588.832-.816.577zm-1.176-1.663l-.588-.831.816-.578.588.832-.816.577zm-1.176-1.663l-.588-.831.816-.577.588.831-.816.577zm-1.176-1.662l-.588-.832.816-.577.588.831-.816.578zm-1.176-1.663l-.588-.832.816-.577.588.831-.816.578zm-1.176-1.663l-.588-.831.816-.578.588.832-.816.577zm-1.062-2.367l10.488 4.831-9.427 6.667-1.06-11.498zm12.12 18.868l-.294-.416 1.633-1.155.294.416-1.633 1.155zm-.882-1.247l-.588-.831 1.633-1.155.587.831-1.632 1.155zm-1.176-1.663l-.588-.831 1.633-1.155.587.831-1.632 1.155zm-1.176-1.663l-.588-.831 1.633-1.155.587.831-1.632 1.155zm-1.176-1.662l-.588-.832 1.633-1.155.587.832-1.632 1.155zm-1.176-1.663l-.588-.832 1.633-1.155.588.832-1.633 1.155zm-1.176-1.663l-.588-.831 1.633-1.155.588.831-1.633 1.155zm-1.176-1.663l-.588-.831 1.633-1.155.588.831-1.633 1.155zm-1.176-1.663l-.588-.831 1.633-1.155.588.831-1.633 1.155zm-1.176-1.662l-.588-.832 1.633-1.155.588.832-1.633 1.155zm-1.176-1.663l-.588-.832 1.633-1.155.588.832-1.633 1.155z" fill="#F31010"/><path d="M41.618 182.549l5.244 2.416-4.714 3.334-.53-5.75zm12.528 18.58l-.294-.416.816-.577.294.416-.816.577zm-.882-1.247l-.588-.832.816-.577.588.831-.816.578zm-1.176-1.663l-.588-.831.816-.578.588.832-.816.577zm-1.176-1.663l-.588-.831.816-.578.588.832-.816.577zm-1.176-1.663l-.588-.831.816-.577.588.831-.816.577zm-1.176-1.662l-.588-.832.816-.577.588.831-.816.578zm-1.176-1.663l-.588-.832.816-.577.588.831-.816.578zm-1.176-1.663l-.588-.831.816-.578.588.832-.816.577zm-1.176-1.663l-.588-.831.816-.578.588.832-.816.577zm-1.176-1.663l-.588-.831.816-.577.588.831-.816.577zm-1.176-1.662l-.588-.832.816-.577.588.831-.816.578zm-1.062-2.368l10.488 4.831-9.428 6.668-1.06-11.499zm12.12 18.869l-.295-.416 1.633-1.155.294.416-1.633 1.155zm-.883-1.247l-.588-.832 1.633-1.155.588.832-1.633 1.155zm-1.176-1.663l-.588-.832 1.633-1.155.588.832-1.633 1.155zm-1.176-1.663l-.587-.831 1.632-1.155.588.831-1.633 1.155zm-1.175-1.663l-.589-.831 1.633-1.155.588.831-1.633 1.155zm-1.177-1.663l-.588-.831 1.633-1.155.588.832-1.633 1.154zm-1.176-1.662l-.587-.832 1.632-1.155.588.832-1.633 1.155zm-1.175-1.663l-.588-.832 1.632-1.154.588.831-1.633 1.155zm-1.176-1.663l-.588-.831 1.633-1.155.587.831-1.633 1.155zm-1.176-1.663l-.588-.831 1.633-1.155.587.831-1.632 1.155zm-1.176-1.663l-.588-.831 1.633-1.155.587.832-1.632 1.154z" fill="#F31010"/></g><defs><clipPath id="clip0_287_330"><path fill="#fff" transform="matrix(-1 0 0 1 152.899 .046)" d="M0 0h152.899v269.954H0z"/></clipPath></defs></svg>