<svg width="382" height="172" fill="none" xmlns="http://www.w3.org/2000/svg"><g clip-path="url(#clip0_261_2456)"><path d="M.89 30.376l11.186-28.31-.214-.464-.463.214L.249 30.305v.427l.642-.356zM11.578 2.315l30.634 11.93h.534l-.213-.464-30.67-12.107-.463.178.178.463zm286.999 145.683l3.74-9.543-.178-.463-.463.213-3.563 9.544v.427l.464-.178zm7.409-18.838l3.918-9.543-.214-.463-.463.213-3.562 9.544.214.427.107-.178zm-1.959 3.134l-1.14 2.564v.463h.463l1.14-2.6v-.427h-.463zm-1.069 2.564l-1.354 3.561.214.463.428-.178 1.353-3.561v-.427l-.641.142zM.534 31.159l.178.214h.463v-.712H.677l-.143.498zM0 30.305l.463.819h.463v-.499l-.285-.676L0 29.806v.499zm31.026 12.428l236.488 93.336.463-.178-.214-.57-236.488-93.3-.427.213.178.499zM.214 30.447l30.812 12.286.463-.178-.178-.463L.463 29.806 0 29.984l.214.463zM267.372 136.07l30.847 12.179.463-.214-.213-.427-30.706-12.286-.427.214.036.534zm30.206 12.464l.891-.357.213-.427-.463-.214-.89.357-.178.462.427.179zM27.713 50.959l-2.778-1.104h-.463v.463l2.814 1.175.463-.214-.036-.32zm-27-19.586l2.315 3.063 2.565 2.884 2.742 2.706 2.921 2.529 3.1 2.35 3.276 2.066h.178l3.563 1.887 3.562 1.638h.463l-.463-.64-3.562-1.603-3.242-1.959-3.277-2.03-3.063-2.315-2.921-2.492-2.743-2.671-2.565-2.778-2.315-3.062H.748l-.036.427zm263.595 113.064L27.678 50.923h-.463l.178.463 236.63 93.692.428-.178-.143-.463zm2.743 1.069l-2.814-1.14-.641.214.213.463 2.814 1.104.535-.143-.107-.498zm30.313 2.421l-3.847.57-3.811.356h-7.659l-3.847-.427-3.918-.784-3.562-.926-3.562-1.246-.428.249.214.428 3.562 1.21 3.776.926 3.811.712 3.848.392h7.765l3.811-.356 3.883-.57.285-.427-.321-.107zm.214.641h.214v-.463h-.713v.463h.499zM11.684 1.923l3.562-.641L18.808.89h7.124l3.562.285 3.562.606 3.562.747 3.563.962 3.562 1.282.463-.178-.214-.463-3.562-1.282-3.562-.997-3.562-.748-3.562-.57L26.288 0h-3.562l-3.562.178-3.562.427-3.562.641-.748.392.392.285zm298.433 117.231l-2.244-2.92-2.387-2.814-2.707-2.635-2.779-2.457-2.921-2.279-2.956-2.101-3.17-1.888-3.277-1.709-3.563-1.46-.463.178v.463l3.562 1.46 3.242 1.674 3.17 1.852 2.957 2.101 2.885 2.279 2.743 2.457 2.565 2.599 2.386 2.778 2.209 2.92h.498l.25-.498zM42.745 13.425L11.684 1.211h-.463l.213.463 30.884 12.57.427-.356v-.463zm-.427.82l236.488 93.228.463-.178-.214-.463-236.31-93.407h-.427v.82zM11.826 1.994v-.357l-.107-.463-.427.25v.32l.107.463.427-.214zm272.43 96.825l-1.781-.712-.463.213.214.463 1.781.677.463-.178-.214-.463zm-1.746-.641L45.987 4.665l-.463.178.213.463L282.261 98.82l.463-.178-.214-.463zM46.022 4.7l-1.816-.713-.428.214.178.463 1.817.677.534-.178-.285-.463zm-3.562 9.01L11.577 1.495h-.463l.213.64 30.884 12.108h.534l-.285-.534zm236.488 93.477L42.425 13.638l-.463.215.178.463 236.559 93.513.463-.213-.214-.428zm30.955 11.859l-30.883-12.215h-.463l.213.463 30.919 12.25h.463l-.249-.498zm0 .285l-30.919-12.215-.427.214v.427l30.883 12.25.463-.213v-.463zm-.249 0l-.214.285v.498h.463l.249-.32v-.463h-.498zm-8.3 21.01h.712v-.463h-.712v.463zm4.987-12.962h.249l.428-.285-.285-.392h-.214l-.427.249.249.428zm-3.028 7.122l-3.063 7.941.213.463.464-.214 3.099-7.692-.214-.463-.499-.035zm0 8.546l-2.636-1.068h-.463l.214.463 2.636 1.068.463-.213-.214-.25zm.998-11.11l-1.033 2.564v.463l.463-.178 1.068-2.6-.213-.427-.285.178zm3.063-7.728l-3.099 7.728v.463l.463-.214 3.313-7.549v-.463l-.677.035zm0 .463l2.565 1.069.463-.214v-.463l-2.565-1.033h-.463v.641zm3.883 2.529v-1.069l-.285-.391-.463-.285h-.499v.498l.392.25.213.284v.891l.321.391.321-.569zm-3.242 6.267l-1.068 2.564.213.463.463-.214 1.033-2.564v-.463l-.641.214zm2.565-6.445l-2.636 6.445v.427h.463l2.636-6.445-.178-.427h-.285zm-3.562 9.009l-2.565 6.446v.427h.463l2.565-6.446-.178-.427h-.285zm-3.883 7.835h1.069l.463-.285.285-.499v-.463h-.463l-.25.392-.356.214h-.819l-.428.284.499.357zm58.525 12.819l-.356-.356-.356.356.356.356.356-.356zm.642-1.424l-.392-.214h-.499v.463l.428.25h.463v-.499zm-.713 1.638l.819-1.175v-.499h-.498l-.82 1.14v.498l.499.036zm.321-1.816l-53.432-21.189-.463.214.214.463 53.431 21.153h.464l-.214-.641zm0 1.317l.356-.925-.214-.463-.463.213-.32.926.178.463.463-.214zm0 .392v-.498l-.25-.392-.427.249v.463l.249.427.428-.249zm-.214-.427l-53.788-21.046-.463.178.214.463 53.431 21.153.428-.178.178-.57zm-.534.534l12.467 9.544h.499v-.499l-12.432-9.508h-.499l-.035.463zm20.446 13.532l-.89 1.068v.5h.427l.891-1.068v-.499h-.428zm0 0l-.926 1.104v.499h.463l.962-1.14v-.463h-.499zm-7.124-5.555l-.891 1.104v.498h.464l.89-1.104v-.498h-.463zm-.356 1.033l-12.325-9.509h-.499v.463l12.325 9.544h.499v-.498zm-.428.569l1.105.926 1.104.819 1.033.784.997.783.82.641.748.534.569.463.392.321h.677v-.499h-.285l-.392-.32-.57-.463-.748-.534-.819-.641-.997-.748-1.033-.819-1.105-.819-1.104-.926h-.499l.107.498zm7.445 4.986l-.677-.534-.534-.428-.249-.178h-.285v.321l.285.213.534.428.677.57h.249v-.499l-.712-.57-.535-.391-.285-.25h-.391v.392l.32.214.534.391.713.535h.463l-.107-.214zm0 0l-.285-.214-.427-.356-.57-.392-.713-.569-.89-.641-.926-.748-1.069-.819-1.104-.819-1.176-.891h-.498v.499l1.175.89 1.104.819 1.069.819.926.748.891.641.676.57.57.392.392.356.285.213h.57v-.498zm-6.412-6.695l-12.325-9.508h-.498v.499l12.325 9.543h.498v-.534zm7.125 5.52l-.214-.178-.392-.285-.606-.463-.748-.57-.819-.677-.997-.712-1.069-.783-1.14-.89-1.175-.891h-.463v.499l1.175.89 1.104.855 1.069.819.997.712.82.641.748.57.605.463.392.249.214.214h.499v-.463zm0 .391l-.357-.32-.32.32.32.357.357-.357z" fill="#1D1D1B"/><path d="M380.041 171.608l.178.143.035.035.214.107.036.071V172h.534v-.036h.036v-.071l.214-.285h-1.247z" fill="#1D1D1B"/><circle cx="91" cy="50" r="8.5" fill="#fff" stroke="#000"/></g><defs><clipPath id="clip0_261_2456"><path fill="#fff" d="M0 0h382v172H0z"/></clipPath></defs></svg>