<svg width="415" height="368" fill="none" xmlns="http://www.w3.org/2000/svg"><path d="M23.4 94.523l-12.818 26.184-.506.165-.187-.449 12.977-26.277.32-.284.213.661zm-13.004 25.688l31.852 12.399.4.354-.507.165-32.012-12.304-.213-.425.48-.189zm323.795 93.672l-4.344 8.807-.479.188-.187-.448 4.477-8.689.319-.283.214.425zm-8.554 17.401l-4.21 8.924-.506.165-.187-.448 4.477-8.689.479-.141-.053.189zm.879-3.377l1.066-2.455.347-.307.346.307-1.092 2.479-.32.283-.347-.307zm1.119-2.408l1.653-3.258.506-.165.187.401-1.652 3.258-.32.284-.374-.52zM23.719 93.768l.293-.024.347.307-.374.33-.16.142-.373-.33.267-.425zm-1.04.212l.96-.236.346.307-.373.33-.72.26-.586-.33.373-.33zm32.519 12.328l246.821 94.893.213.425-.586.236-246.795-94.916-.16-.425.507-.213zm-32.252-12.28l32.252 12.28.213.425-.48.189-32.278-12.304-.213-.425.506-.165zm278.966 107.078l32.199 12.376.186.448-.479.142-32.172-12.21-.16-.425.426-.331zm31.932 11.762l.4.826-.16.425-.506-.165-.4-.827.213-.425.453.166zM58.875 98.658l-2.905-1.11-.347-.306.347-.307 2.985 1.086.187.449-.267.189zm-34.863-4.914l4.025-.495 4.078-.212 4.078.024 4.078.26 4.078.496 3.998.803.133.118 4.078 1.11 3.892 1.276.346.307-.826.118-3.865-1.3-3.891-.85-3.972-.826-4.025-.497-4.051-.283-4.051-.048-3.998.141-4.025.496-.373-.33.293-.308zm281.871 99.784L58.822 98.658l-.347-.306.48-.19 247.194 94.752.187.401-.453.213zm2.852 1.11l-2.959-1.11-.32-.567.506-.165 2.932 1.133.294.449-.453.26zm24.496 18.489l-2.452-2.928-2.586-2.762-2.852-2.527-2.879-2.55-3.199-2.267-3.518-2.078-3.359-1.748-3.598-1.535-.133-.449.479-.141 3.572 1.559 3.518 1.889 3.386 2.054 3.172 2.291 2.879 2.55 2.932 2.598 2.585 2.762 2.48 2.952-.107.472-.32-.142zm.64-.283l.16.142-.347.307-.373-.331-.16-.142.347-.306.373.33zM10.182 120.541l2.186 2.787 2.373 2.621 2.665 2.361 2.666 2.361 2.879 2.173 3.118 1.96 3.226 1.866 3.385 1.723 3.625 1.512.213.425-.506.165-3.625-1.511-3.412-1.701-3.225-1.865-3.092-1.984-2.986-1.936-2.665-2.362-2.533-2.479-2.346-2.645-2.185-2.786-.267-.755.506.07zm311.059 120.116l-3.865.448-3.891.283-3.998-.048-3.919-.213-3.891-.425-3.785-.567-3.785-.85-3.731-1.04-3.759-1.393-.213-.425.347-.307 3.758 1.393 3.678 1.04 3.758.874 3.785.567 3.865.401 3.891.19 3.865-.024 3.865-.259 3.838-.472.373.331-.186.496zM42.035 133.507L9.649 121.014l-.346-.307.506-.166 32.519 12.14.053.519-.346.307zm.293-.826l246.74 94.963.214.425-.507.165-246.74-94.727-.32-.283.613-.543zm-31.986-12.092l-.266.236-.427.236-.133-.449.24-.212.426-.236.16.425zm276.329 116.405l-1.866-.709-.187-.448.507-.166 1.839.732.213.425-.506.166zm-1.786-.732l-246.98-94.799-.214-.425.506-.165 246.981 94.798.213.425-.506.166zM37.958 141.463l-1.893-.732-.16-.425.48-.189 1.866.756.266.472-.56.118zm4.077-8.334L9.782 120.754l-.347-.307.64-.283 32.172 12.446.4.354-.614.165zm246.927 94.798L41.955 133.153l-.187-.449.48-.189 247.007 94.822.187.449-.48.141zm32.039 12.659l-32.252-12.375-.347-.307.507-.166 32.305 12.376.346.307-.559.165zm.213-.189l-32.279-12.399-.16-.425.32-.283 32.279 12.351.186.449-.346.307zm-.187-.165l.054-.331.373-.33.346.307-.053.377-.347.307-.373-.33zm9.513-19.431l.187.165.346.307-.346.307-.187-.165-.346-.307.346-.307zm-5.969 11.899l.187.165.106.473-.506.07-.16-.141-.133-.449.506-.118zm3.065-6.729l3.65-7.295.507-.165.186.448-3.437 7.154-.507.165-.399-.307zm6.396-5.666l-2.772-1.039-.347-.307.506-.165 2.772 1.039.187.449-.346.023zm-7.569 8.027l1.146-2.384.346-.307.214.425-1.146 2.432-.48.141-.08-.307zm-3.491 7.154l3.464-7.177.347-.307.186.448-3.17 7.201-.347.307-.48-.472zm.347-.307l2.719.992.186.449-.346.307-2.692-1.016-.347-.307.48-.425zm4.798.898l-.4.354-.4.354-.506.071-.56-.118-.373-.331.373-.33.48.094.373-.047.293-.26.373-.33.533-.047-.186.59zm2.264-6.304l1.119-2.408.507-.166.186.449-1.145 2.385-.347.307-.32-.567zm-2.904 5.973l2.851-6.02.32-.284.346.307-2.851 6.021-.453.165-.213-.189zm4.077-8.334l2.904-5.973.32-.284.347.307-2.905 5.974-.453.165-.213-.189zm2.957-7.768l.4.354.4.355.133.495-.16.52-.346.307-.347-.307.107-.425-.107-.378-.293-.26-.32-.283-.106-.472.639.094zm53.39 30.298h-.533v-.472h.533v.472zm-.586 1.37l-.453-.119-.373-.33.346-.307.507.118.346.307-.373.331zm.693-1.559l-.266 1.322-.373.331-.374-.331.24-1.298.373-.331.4.307zm-1.119 1.417l-55.841-21.373-.187-.449.506-.165 55.815 21.397.346.307-.639.283zm.986-.874l-.427.85-.506.166-.187-.449.453-.826.48-.189.187.448zm.293-.259l-.373.33-.48.095-.133-.449.346-.307.507-.118.133.449zm-.48.141l-56.001-21.704-.213-.425.506-.165 55.815 21.397.186.401-.293.496zm0-.708l16.472 1.938.373.33-.373.331-16.418-1.938-.374-.331.32-.33zm25.428 4.583l.133-1.299.373-.33.32.283-.133 1.299-.373.33-.32-.283zm0 0l.133-1.346.373-.33.347.307-.133 1.393-.347.306-.373-.33zm-9.489-1.04l.16-1.322.373-.331.347.307-.16 1.323-.373.33-.347-.307zm.507-.921l-16.339-1.867-.373-.33.346-.307 16.365 1.843.374.331-.373.33zm.106-.661l1.519.118 1.44.189 1.359.166 1.333.142 1.092.118.96.142.773.07.533.048.187.165.319.283-.373.331-.213-.189-.533-.047-.773-.071-.959-.142-1.093-.118-1.306-.165-1.386-.142-1.44-.189-1.519-.119-.373-.33.453-.26zm9.302 1.63l-.906-.094-.72-.071-.319-.047-.214-.189.24-.213.373.047.72.071.933.071.186.166-.373.33-.959-.094-.693-.095-.4-.024-.293-.259.293-.26.4.071.693.094.933.118.346.307-.24.071zm0 0l-.373-.047-.586-.047-.72-.118-.959-.095-1.147-.165-1.252-.118-1.413-.166-1.439-.189-1.546-.189-.373-.331.373-.33 1.546.189 1.439.189 1.413.165 1.252.119 1.147.165.932.071.72.118.56.024.373.047.426.378-.373.33zm-9.808.188l-16.339-1.867-.373-.33.373-.331 16.365 1.843.374.331-.4.354zm9.462 1.064l-.293-.024-.507-.071-.799-.094-.986-.119-1.12-.094-1.279-.189-1.386-.189-1.52-.166-1.545-.189-.347-.307.373-.33 1.546.189 1.466.165 1.413.166 1.279.189 1.093.118.986.118.8.095.479.094h.32l.373.331-.346.307zm.293-.26l-.506-.024v-.425l.506-.023v.472z" fill="#1D1D1B"/><path d="M403.821 252.235l.24.023h.053l.24.071.08-.023.026-.024.054.047.186.166.16.142-.026.023.026.024-.026.023-.027.024-.053.331-.933-.827z" fill="#1D1D1B"/></svg>